Fira Sans-Bold Italic.ufo
<glyph name="exclam" format="1">
  <advance width="228"/>
  <unicode hex="0021"/>
  <outline>
    <contour>
      <point x="190" y="270" type="line"/>
      <point x="276" y="696" type="line"/>
      <point x="72" y="696" type="line"/>
      <point x="38" y="270" type="line"/>
    </contour>
    <component base="period"/>
  </outline>
</glyph>
<glyph name="numbersign" format="1">
  <advance width="568"/>
  <unicode hex="0023"/>
  <outline>
    <contour>
      <point x="418" y="680" type="line"/>
      <point x="236" y="0" type="line"/>
      <point x="396" y="0" type="line"/>
      <point x="579" y="680" type="line"/>
    </contour>
    <contour>
      <point x="13" y="257" type="line"/>
      <point x="-5" y="131" type="line"/>
      <point x="498" y="131" type="line"/>
      <point x="516" y="257" type="line"/>
    </contour>
    <contour>
      <point x="192" y="680" type="line"/>
      <point x="10" y="0" type="line"/>
      <point x="170" y="0" type="line"/>
      <point x="353" y="680" type="line"/>
    </contour>
    <contour>
      <point x="92" y="562" type="line"/>
      <point x="75" y="436" type="line"/>
      <point x="578" y="436" type="line"/>
      <point x="595" y="562" type="line"/>
    </contour>
  </outline>
</glyph>
<glyph name="dollar" format="1">
  <advance width="548"/>
  <unicode hex="0024"/>
  <outline>
    <contour>
      <point x="177" y="-1" type="line"/>
      <point x="153" y="-165" type="line"/>
      <point x="286" y="-165" type="line"/>
      <point x="310" y="5" type="line"/>
    </contour>
    <contour>
      <point x="293" y="834" type="line"/>
      <point x="271" y="673" type="line"/>
      <point x="403" y="678" type="line"/>
      <point x="426" y="834" type="line"/>
    </contour>
    <contour>
      <point x="161" y="690"/>
      <point x="68" y="582"/>
      <point x="68" y="468" type="curve" smooth="yes"/>
      <point x="68" y="391"/>
      <point x="112" y="323"/>
      <point x="240" y="276" type="curve" smooth="yes"/>
      <point x="302" y="251"/>
      <point x="324" y="235"/>
      <point x="324" y="198" type="curve" smooth="yes"/>
      <point x="324" y="163"/>
      <point x="293" y="132"/>
      <point x="234" y="132" type="curve" smooth="yes"/>
      <point x="184" y="132"/>
      <point x="129" y="154"/>
      <point x="85" y="197" type="curve"/>
      <point x="-24" y="94" type="line"/>
      <point x="23" y="39"/>
      <point x="109" y="-9"/>
      <point x="226" y="-9" type="curve" smooth="yes"/>
      <point x="447" y="-9"/>
      <point x="527" y="116"/>
      <point x="527" y="227" type="curve" smooth="yes"/>
      <point x="527" y="320"/>
      <point x="473" y="384"/>
      <point x="366" y="424" type="curve" smooth="yes"/>
      <point x="293" y="453"/>
      <point x="272" y="467"/>
      <point x="272" y="499" type="curve" smooth="yes"/>
      <point x="272" y="529"/>
      <point x="300" y="551"/>
      <point x="353" y="551" type="curve" smooth="yes"/>
      <point x="390" y="551"/>
      <point x="432" y="537"/>
      <point x="482" y="499" type="curve"/>
      <point x="578" y="598" type="line"/>
      <point x="523" y="653"/>
      <point x="445" y="690"/>
      <point x="350" y="690" type="curve" smooth="yes"/>
    </contour>
  </outline>
</glyph>
<glyph name="percent" format="1">
  <advance width="867"/>
  <unicode hex="0025"/>
  <outline>
    <contour>
      <point x="118" y="28" type="line"/>
      <point x="222" y="-45" type="line"/>
      <point x="774" y="652" type="line"/>
      <point x="668" y="725" type="line"/>
    </contour>
    <contour>
      <point x="285" y="582"/>
      <point x="295" y="560"/>
      <point x="295" y="534" type="curve" smooth="yes"/>
      <point x="295" y="490"/>
      <point x="280" y="438"/>
      <point x="228" y="438" type="curve" smooth="yes"/>
      <point x="194" y="438"/>
      <point x="184" y="460"/>
      <point x="184" y="486" type="curve" smooth="yes"/>
      <point x="184" y="519"/>
      <point x="192" y="582"/>
      <point x="252" y="582" type="curve" smooth="yes"/>
    </contour>
    <contour>
      <point x="120" y="696"/>
      <point x="54" y="578"/>
      <point x="54" y="482" type="curve" smooth="yes"/>
      <point x="54" y="384"/>
      <point x="123" y="324"/>
      <point x="216" y="324" type="curve" smooth="yes"/>
      <point x="361" y="324"/>
      <point x="425" y="442"/>
      <point x="425" y="538" type="curve" smooth="yes"/>
      <point x="425" y="636"/>
      <point x="357" y="696"/>
      <point x="264" y="696" type="curve" smooth="yes"/>
    </contour>
    <contour>
      <point x="693" y="238"/>
      <point x="703" y="216"/>
      <point x="703" y="190" type="curve" smooth="yes"/>
      <point x="703" y="146"/>
      <point x="688" y="94"/>
      <point x="636" y="94" type="curve" smooth="yes"/>
      <point x="602" y="94"/>
      <point x="592" y="116"/>
      <point x="592" y="142" type="curve" smooth="yes"/>
      <point x="592" y="175"/>
      <point x="600" y="238"/>
      <point x="660" y="238" type="curve" smooth="yes"/>
    </contour>
    <contour>
      <point x="528" y="352"/>
      <point x="462" y="234"/>
      <point x="462" y="138" type="curve" smooth="yes"/>
      <point x="462" y="40"/>
      <point x="531" y="-20"/>
      <point x="624" y="-20" type="curve" smooth="yes"/>
      <point x="769" y="-20"/>
      <point x="833" y="98"/>
      <point x="833" y="194" type="curve" smooth="yes"/>
      <point x="833" y="292"/>
      <point x="765" y="352"/>
      <point x="672" y="352" type="curve" smooth="yes"/>
    </contour>
  </outline>
</glyph>
<glyph name="ampersand" format="1">
  <advance width="795"/>
  <unicode hex="0026"/>
  <outline>
    <contour>
      <point x="175" y="716"/>
      <point x="123" y="599"/>
      <point x="123" y="529" type="curve" smooth="yes"/>
      <point x="123" y="474"/>
      <point x="141" y="436"/>
      <point x="194" y="375" type="curve"/>
      <point x="85" y="312"/>
      <point x="37" y="255"/>
      <point x="37" y="164" type="curve" smooth="yes"/>
      <point x="37" y="56"/>
      <point x="124" y="-20"/>
      <point x="267" y="-20" type="curve" smooth="yes"/>
      <point x="343" y="-20"/>
      <point x="418" y="-5"/>
      <point x="491" y="44" type="curve"/>
      <point x="548" y="-20" type="line"/>
      <point x="715" y="52" type="line"/>
      <point x="617" y="154" type="line"/>
      <point x="658" y="202"/>
      <point x="697" y="255"/>
      <point x="732" y="322" type="curve"/>
      <point x="581" y="371" type="line"/>
      <point x="563" y="324"/>
      <point x="546" y="289"/>
      <point x="525" y="255" type="curve"/>
      <point x="433" y="357" type="line"/>
      <point x="552" y="435"/>
      <point x="584" y="492"/>
      <point x="584" y="553" type="curve" smooth="yes"/>
      <point x="584" y="647"/>
      <point x="509" y="716"/>
      <point x="371" y="716" type="curve" smooth="yes"/>
    </contour>
    <contour>
      <point x="405" y="136" type="line"/>
      <point x="378" y="124"/>
      <point x="349" y="116"/>
      <point x="317" y="116" type="curve" smooth="yes"/>
      <point x="267" y="116"/>
      <point x="245" y="141"/>
      <point x="245" y="180" type="curve"/>
      <point x="245" y="213"/>
      <point x="259" y="238"/>
      <point x="290" y="265" type="curve"/>
    </contour>
    <contour>
      <point x="385" y="594"/>
      <point x="403" y="578"/>
      <point x="403" y="553" type="curve" smooth="yes"/>
      <point x="403" y="530"/>
      <point x="392" y="498"/>
      <point x="339" y="461" type="curve"/>
      <point x="314" y="492"/>
      <point x="305" y="509"/>
      <point x="305" y="534" type="curve" smooth="yes"/>
      <point x="305" y="572"/>
      <point x="328" y="594"/>
      <point x="361" y="594" type="curve" smooth="yes"/>
    </contour>
  </outline>
</glyph>
<glyph name="quotesingle" format="1">
  <advance width="238"/>
  <unicode hex="0027"/>
  <outline>
    <contour>
      <point x="201" y="406" type="line"/>
      <point x="262" y="696" type="line"/>
      <point x="96" y="696" type="line"/>
      <point x="77" y="406" type="line"/>
    </contour>
  </outline>
</glyph>
<glyph name="parenleft" format="1">
  <advance width="313"/>
  <unicode hex="0028"/>
  <outline>
    <contour>
      <point x="157" y="730"/>
      <point x="47" y="591"/>
      <point x="14" y="353" type="curve" smooth="yes"/>
      <point x="-20" y="111"/>
      <point x="55" y="-28"/>
      <point x="136" y="-166" type="curve"/>
      <point x="271" y="-88" type="line"/>
      <point x="197" y="44"/>
      <point x="184" y="182"/>
      <point x="208" y="347" type="curve" smooth="yes"/>
      <point x="231" y="516"/>
      <point x="283" y="649"/>
      <point x="394" y="781" type="curve"/>
      <point x="276" y="868" type="line"/>
    </contour>
  </outline>
</glyph>
<glyph name="parenright" format="1">
  <advance width="313"/>
  <unicode hex="0029"/>
  <outline>
    <contour>
      <point x="64" y="788" type="line"/>
      <point x="138" y="656"/>
      <point x="151" y="518"/>
      <point x="128" y="353" type="curve" smooth="yes"/>
      <point x="104" y="184"/>
      <point x="52" y="51"/>
      <point x="-58" y="-81" type="curve"/>
      <point x="59" y="-168" type="line"/>
      <point x="179" y="-30"/>
      <point x="288" y="109"/>
      <point x="322" y="347" type="curve" smooth="yes"/>
      <point x="355" y="589"/>
      <point x="280" y="728"/>
      <point x="200" y="866" type="curve"/>
    </contour>
  </outline>
</glyph>
<glyph name="asterisk" format="1">
  <advance width="443"/>
  <unicode hex="002A"/>
  <outline>
    <contour>
      <point x="240" y="449" type="line"/>
      <point x="287" y="312" type="line"/>
      <point x="430" y="409" type="line"/>
      <point x="335" y="513" type="line"/>
      <point x="259" y="532" type="line"/>
    </contour>
    <contour>
      <point x="204" y="744" type="line"/>
      <point x="214" y="592" type="line"/>
      <point x="259" y="532" type="line"/>
      <point x="322" y="591" type="line"/>
      <point x="374" y="744" type="line"/>
    </contour>
    <contour>
      <point x="311" y="600" type="line"/>
      <point x="259" y="532" type="line"/>
      <point x="330" y="500" type="line"/>
      <point x="480" y="520" type="line"/>
      <point x="451" y="673" type="line"/>
    </contour>
    <contour>
      <point x="33" y="519" type="line"/>
      <point x="180" y="500" type="line"/>
      <point x="259" y="532" type="line"/>
      <point x="226" y="601" type="line"/>
      <point x="102" y="670" type="line"/>
    </contour>
    <contour>
      <point x="176" y="513" type="line"/>
      <point x="55" y="408" type="line"/>
      <point x="172" y="311" type="line"/>
      <point x="254" y="449" type="line"/>
      <point x="259" y="532" type="line"/>
    </contour>
  </outline>
</glyph>
<glyph name="plus" format="1">
  <advance width="536"/>
  <unicode hex="002B"/>
  <outline>
    <contour>
      <point x="231" y="567" type="line"/>
      <point x="210" y="407" type="line"/>
      <point x="58" y="407" type="line"/>
      <point x="37" y="257" type="line"/>
      <point x="189" y="257" type="line"/>
      <point x="166" y="97" type="line"/>
      <point x="322" y="97" type="line"/>
      <point x="345" y="257" type="line"/>
      <point x="497" y="257" type="line"/>
      <point x="518" y="407" type="line"/>
      <point x="366" y="407" type="line"/>
      <point x="388" y="567" type="line"/>
    </contour>
  </outline>
</glyph>
<glyph name="comma" format="1">
  <advance width="242"/>
  <unicode hex="002C"/>
  <outline>
    <contour>
      <point x="43" y="186"/>
      <point x="-7" y="134"/>
      <point x="-7" y="69" type="curve" smooth="yes"/>
      <point x="-7" y="40"/>
      <point x="5" y="16"/>
      <point x="28" y="0" type="curve"/>
      <point x="-43" y="-184" type="line"/>
      <point x="58" y="-184" type="line"/>
      <point x="139" y="-45" type="line" smooth="yes"/>
      <point x="179" y="27"/>
      <point x="196" y="57"/>
      <point x="196" y="97" type="curve" smooth="yes"/>
      <point x="196" y="149"/>
      <point x="159" y="186"/>
      <point x="107" y="186" type="curve" smooth="yes"/>
    </contour>
  </outline>
</glyph>
<glyph name="hyphen" format="1">
  <advance width="398"/>
  <unicode hex="002D"/>
  <outline>
    <contour>
      <point x="362" y="238" type="line"/>
      <point x="383" y="388" type="line"/>
      <point x="49" y="388" type="line"/>
      <point x="28" y="238" type="line"/>
    </contour>
  </outline>
</glyph>
<glyph name="period" format="1">
  <advance width="240"/>
  <unicode hex="002E"/>
  <outline>
    <contour>
      <point x="40" y="186"/>
      <point x="-10" y="133"/>
      <point x="-10" y="73" type="curve" smooth="yes"/>
      <point x="-10" y="18"/>
      <point x="27" y="-20"/>
      <point x="80" y="-20" type="curve" smooth="yes"/>
      <point x="144" y="-20"/>
      <point x="194" y="33"/>
      <point x="194" y="95" type="curve" smooth="yes"/>
      <point x="194" y="149"/>
      <point x="156" y="186"/>
      <point x="105" y="186" type="curve" smooth="yes"/>
    </contour>
  </outline>
</glyph>
<glyph name="slash" format="1">
  <advance width="508"/>
  <unicode hex="002F"/>
  <outline>
    <contour>
      <point x="4" y="-77" type="line"/>
      <point x="171" y="-117" type="line"/>
      <point x="528" y="782" type="line"/>
      <point x="362" y="822" type="line"/>
    </contour>
  </outline>
</glyph>
<glyph name="zero" format="1">
  <advance width="590"/>
  <unicode hex="0030"/>
  <outline>
    <contour>
      <point x="100" y="696"/>
      <point x="29" y="429"/>
      <point x="29" y="248" type="curve" smooth="yes"/>
      <point x="29" y="76"/>
      <point x="110" y="-20"/>
      <point x="259" y="-20" type="curve" smooth="yes"/>
      <point x="510" y="-20"/>
      <point x="581" y="254"/>
      <point x="581" y="432" type="curve" smooth="yes"/>
      <point x="581" y="603"/>
      <point x="499" y="696"/>
      <point x="351" y="696" type="curve" smooth="yes"/>
    </contour>
    <contour>
      <point x="372" y="553"/>
      <point x="389" y="537"/>
      <point x="389" y="475" type="curve" smooth="yes"/>
      <point x="389" y="444"/>
      <point x="384" y="401"/>
      <point x="376" y="342" type="curve" smooth="yes"/>
      <point x="351" y="165"/>
      <point x="328" y="124"/>
      <point x="273" y="124" type="curve" smooth="yes"/>
      <point x="238" y="124"/>
      <point x="222" y="144"/>
      <point x="222" y="206" type="curve" smooth="yes"/>
      <point x="222" y="237"/>
      <point x="226" y="280"/>
      <point x="234" y="336" type="curve" smooth="yes"/>
      <point x="257" y="506"/>
      <point x="282" y="553"/>
      <point x="337" y="553" type="curve" smooth="yes"/>
    </contour>
  </outline>
</glyph>
<glyph name="one" format="1">
  <advance width="470"/>
  <unicode hex="0031"/>
  <outline>
    <contour>
      <point x="291" y="680" type="line"/>
      <point x="35" y="536" type="line"/>
      <point x="101" y="398" type="line"/>
      <point x="250" y="483" type="line"/>
      <point x="182" y="0" type="line"/>
      <point x="370" y="0" type="line"/>
      <point x="465" y="680" type="line"/>
    </contour>
  </outline>
</glyph>
<glyph name="two" format="1">
  <advance width="518"/>
  <unicode hex="0032"/>
  <outline>
    <contour>
      <point x="191" y="696"/>
      <point x="99" y="652"/>
      <point x="31" y="579" type="curve"/>
      <point x="135" y="479" type="line"/>
      <point x="177" y="525"/>
      <point x="210" y="548"/>
      <point x="254" y="548" type="curve" smooth="yes"/>
      <point x="292" y="548"/>
      <point x="317" y="526"/>
      <point x="317" y="489" type="curve" smooth="yes"/>
      <point x="317" y="418"/>
      <point x="277" y="371"/>
      <point x="2" y="137" type="curve"/>
      <point x="-15" y="0" type="line"/>
      <point x="442" y="0" type="line"/>
      <point x="483" y="148" type="line"/>
      <point x="225" y="147" type="line"/>
      <point x="495" y="336"/>
      <point x="519" y="430"/>
      <point x="519" y="517" type="curve" smooth="yes"/>
      <point x="519" y="615"/>
      <point x="444" y="696"/>
      <point x="292" y="696" type="curve" smooth="yes"/>
    </contour>
  </outline>
</glyph>
<glyph name="three" format="1">
  <advance width="520"/>
  <unicode hex="0033"/>
  <outline>
    <contour>
      <point x="199" y="696"/>
      <point x="116" y="663"/>
      <point x="41" y="604" type="curve"/>
      <point x="124" y="495" type="line"/>
      <point x="165" y="531"/>
      <point x="210" y="553"/>
      <point x="259" y="553" type="curve" smooth="yes"/>
      <point x="300" y="553"/>
      <point x="324" y="536"/>
      <point x="324" y="504" type="curve" smooth="yes"/>
      <point x="324" y="473"/>
      <point x="307" y="421"/>
      <point x="231" y="421" type="curve" smooth="yes"/>
      <point x="191" y="421" type="line"/>
      <point x="152" y="289" type="line"/>
      <point x="212" y="289" type="line" smooth="yes"/>
      <point x="269" y="289"/>
      <point x="295" y="270"/>
      <point x="295" y="227" type="curve" smooth="yes"/>
      <point x="295" y="161"/>
      <point x="249" y="128"/>
      <point x="195" y="128" type="curve" smooth="yes"/>
      <point x="146" y="128"/>
      <point x="111" y="146"/>
      <point x="77" y="187" type="curve"/>
      <point x="-40" y="91" type="line"/>
      <point x="5" y="25"/>
      <point x="80" y="-20"/>
      <point x="192" y="-20" type="curve" smooth="yes"/>
      <point x="425" y="-20"/>
      <point x="492" y="129"/>
      <point x="492" y="219" type="curve" smooth="yes"/>
      <point x="492" y="308"/>
      <point x="432" y="350"/>
      <point x="360" y="358" type="curve"/>
      <point x="481" y="393"/>
      <point x="515" y="473"/>
      <point x="515" y="535" type="curve" smooth="yes"/>
      <point x="515" y="629"/>
      <point x="443" y="696"/>
      <point x="299" y="696" type="curve" smooth="yes"/>
    </contour>
  </outline>
</glyph>
<glyph name="four" format="1">
  <advance width="573"/>
  <unicode hex="0034"/>
  <outline>
    <contour>
      <point x="18" y="263" type="line"/>
      <point x="0" y="134" type="line"/>
      <point x="540" y="134" type="line"/>
      <point x="560" y="280" type="line"/>
      <point x="230" y="280" type="line"/>
      <point x="418" y="641" type="line"/>
      <point x="257" y="701" type="line"/>
    </contour>
    <contour>
      <point x="346" y="428" type="line"/>
      <point x="298" y="264" type="line"/>
      <point x="263" y="0" type="line"/>
      <point x="453" y="0" type="line"/>
      <point x="513" y="428" type="line"/>
    </contour>
  </outline>
</glyph>
<glyph name="five" format="1">
  <advance width="545"/>
  <unicode hex="0035"/>
  <outline>
    <contour>
      <point x="105" y="680" type="line"/>
      <point x="52" y="299" type="line"/>
      <point x="180" y="298" type="line"/>
      <point x="211" y="317"/>
      <point x="233" y="323"/>
      <point x="255" y="323" type="curve" smooth="yes"/>
      <point x="294" y="323"/>
      <point x="321" y="305"/>
      <point x="321" y="252" type="curve" smooth="yes"/>
      <point x="321" y="170"/>
      <point x="275" y="126"/>
      <point x="211" y="126" type="curve" smooth="yes"/>
      <point x="160" y="126"/>
      <point x="123" y="151"/>
      <point x="94" y="188" type="curve"/>
      <point x="-22" y="90" type="line"/>
      <point x="22" y="30"/>
      <point x="91" y="-20"/>
      <point x="205" y="-20" type="curve" smooth="yes"/>
      <point x="436" y="-20"/>
      <point x="519" y="149"/>
      <point x="519" y="265" type="curve" smooth="yes"/>
      <point x="519" y="389"/>
      <point x="450" y="454"/>
      <point x="353" y="454" type="curve" smooth="yes"/>
      <point x="325" y="454"/>
      <point x="291" y="448"/>
      <point x="258" y="433" type="curve"/>
      <point x="274" y="542" type="line"/>
      <point x="504" y="542" type="line"/>
      <point x="544" y="680" type="line"/>
    </contour>
  </outline>
</glyph>
<glyph name="six" format="1">
  <advance width="571"/>
  <unicode hex="0036"/>
  <outline>
    <contour>
      <point x="205" y="696"/>
      <point x="65" y="542"/>
      <point x="31" y="309" type="curve" smooth="yes"/>
      <point x="27" y="281"/>
      <point x="25" y="255"/>
      <point x="25" y="230" type="curve" smooth="yes"/>
      <point x="25" y="77"/>
      <point x="101" y="-20"/>
      <point x="268" y="-20" type="curve" smooth="yes"/>
      <point x="483" y="-20"/>
      <point x="555" y="167"/>
      <point x="555" y="278" type="curve" smooth="yes"/>
      <point x="555" y="395"/>
      <point x="490" y="464"/>
      <point x="387" y="464" type="curve" smooth="yes"/>
      <point x="339" y="464"/>
      <point x="282" y="447"/>
      <point x="233" y="406" type="curve"/>
      <point x="220" y="289" type="line"/>
      <point x="253" y="319"/>
      <point x="285" y="333"/>
      <point x="311" y="333" type="curve" smooth="yes"/>
      <point x="345" y="333"/>
      <point x="360" y="318"/>
      <point x="360" y="275" type="curve" smooth="yes"/>
      <point x="360" y="224"/>
      <point x="344" y="118"/>
      <point x="276" y="118" type="curve" smooth="yes"/>
      <point x="240" y="118"/>
      <point x="225" y="139"/>
      <point x="225" y="197" type="curve" smooth="yes"/>
      <point x="225" y="230"/>
      <point x="230" y="275"/>
      <point x="239" y="334" type="curve"/>
      <point x="245" y="391" type="line"/>
      <point x="268" y="506"/>
      <point x="322" y="560"/>
      <point x="389" y="560" type="curve" smooth="yes"/>
      <point x="422" y="560"/>
      <point x="446" y="551"/>
      <point x="468" y="536" type="curve"/>
      <point x="553" y="647" type="line"/>
      <point x="519" y="675"/>
      <point x="467" y="696"/>
      <point x="398" y="696" type="curve" smooth="yes"/>
    </contour>
  </outline>
</glyph>
<glyph name="seven" format="1">
  <advance width="470"/>
  <unicode hex="0037"/>
  <outline>
    <contour>
      <point x="61" y="680" type="line"/>
      <point x="41" y="534" type="line"/>
      <point x="295" y="534" type="line"/>
      <point x="12" y="40" type="line"/>
      <point x="183" y="-20" type="line"/>
      <point x="501" y="550" type="line"/>
      <point x="519" y="680" type="line"/>
    </contour>
  </outline>
</glyph>
<glyph name="eight" format="1">
  <advance width="587"/>
  <unicode hex="0038"/>
  <outline>
    <contour>
      <point x="152" y="696"/>
      <point x="77" y="576"/>
      <point x="77" y="484" type="curve" smooth="yes"/>
      <point x="77" y="429"/>
      <point x="102" y="380"/>
      <point x="167" y="339" type="curve"/>
      <point x="250" y="297" type="line"/>
      <point x="300" y="278" type="line" smooth="yes"/>
      <point x="346" y="258"/>
      <point x="365" y="239"/>
      <point x="365" y="206" type="curve" smooth="yes"/>
      <point x="365" y="161"/>
      <point x="337" y="118"/>
      <point x="273" y="118" type="curve" smooth="yes"/>
      <point x="228" y="118"/>
      <point x="201" y="143"/>
      <point x="201" y="179" type="curve" smooth="yes"/>
      <point x="201" y="208"/>
      <point x="215" y="268"/>
      <point x="280" y="299" type="curve"/>
      <point x="166" y="353" type="line"/>
      <point x="49" y="311"/>
      <point x="5" y="234"/>
      <point x="5" y="168" type="curve" smooth="yes"/>
      <point x="5" y="64"/>
      <point x="91" y="-20"/>
      <point x="253" y="-20" type="curve" smooth="yes"/>
      <point x="450" y="-20"/>
      <point x="559" y="89"/>
      <point x="559" y="202" type="curve" smooth="yes"/>
      <point x="559" y="271"/>
      <point x="520" y="330"/>
      <point x="433" y="374" type="curve"/>
      <point x="345" y="410" type="line"/>
      <point x="309" y="425" type="line" smooth="yes"/>
      <point x="276" y="443"/>
      <point x="264" y="465"/>
      <point x="264" y="491" type="curve" smooth="yes"/>
      <point x="264" y="520"/>
      <point x="279" y="567"/>
      <point x="339" y="567" type="curve" smooth="yes"/>
      <point x="373" y="567"/>
      <point x="392" y="548"/>
      <point x="392" y="522" type="curve" smooth="yes"/>
      <point x="392" y="499"/>
      <point x="384" y="446"/>
      <point x="309" y="403" type="curve"/>
      <point x="433" y="354" type="line"/>
      <point x="545" y="404"/>
      <point x="580" y="479"/>
      <point x="580" y="531" type="curve" smooth="yes"/>
      <point x="580" y="632"/>
      <point x="491" y="696"/>
      <point x="349" y="696" type="curve" smooth="yes"/>
    </contour>
  </outline>
</glyph>
<glyph name="nine" format="1">
  <advance width="570"/>
  <unicode hex="0039"/>
  <outline>
    <contour>
      <point x="383" y="425" type="line"/>
      <point x="353" y="382"/>
      <point x="316" y="363"/>
      <point x="284" y="363" type="curve" smooth="yes"/>
      <point x="257" y="363"/>
      <point x="235" y="376"/>
      <point x="235" y="428" type="curve" smooth="yes"/>
      <point x="235" y="480"/>
      <point x="253" y="560"/>
      <point x="323" y="560" type="curve" smooth="yes"/>
      <point x="363" y="560"/>
      <point x="379" y="541"/>
      <point x="379" y="491" type="curve" smooth="yes"/>
      <point x="379" y="463"/>
      <point x="374" y="426"/>
      <point x="366" y="378" type="curve"/>
      <point x="345" y="292" type="line"/>
      <point x="293" y="185"/>
      <point x="215" y="142"/>
      <point x="37" y="105" type="curve"/>
      <point x="60" y="-32" type="line"/>
      <point x="482" y="31"/>
      <point x="578" y="286"/>
      <point x="578" y="477" type="curve" smooth="yes"/>
      <point x="578" y="606"/>
      <point x="492" y="696"/>
      <point x="333" y="696" type="curve" smooth="yes"/>
      <point x="122" y="696"/>
      <point x="40" y="536"/>
      <point x="40" y="416" type="curve" smooth="yes"/>
      <point x="40" y="298"/>
      <point x="112" y="229"/>
      <point x="205" y="229" type="curve" smooth="yes"/>
      <point x="267" y="229"/>
      <point x="306" y="249"/>
      <point x="350" y="289" type="curve"/>
    </contour>
  </outline>
</glyph>
<glyph name="less" format="1">
  <advance width="520"/>
  <unicode hex="003C"/>
  <outline>
    <contour>
      <point x="39" y="416" type="line"/>
      <point x="16" y="249" type="line"/>
      <point x="403" y="75" type="line"/>
      <point x="482" y="215" type="line"/>
      <point x="195" y="333" type="line"/>
      <point x="522" y="449" type="line"/>
      <point x="475" y="591" type="line"/>
    </contour>
  </outline>
</glyph>
<glyph name="greater" format="1">
  <advance width="518"/>
  <unicode hex="003E"/>
  <outline>
    <contour>
      <point x="51" y="459" type="line"/>
      <point x="336" y="333" type="line"/>
      <point x="12" y="225" type="line"/>
      <point x="56" y="75" type="line"/>
      <point x="491" y="249" type="line"/>
      <point x="515" y="416" type="line"/>
      <point x="128" y="591" type="line"/>
    </contour>
  </outline>
</glyph>
<glyph name="question" format="1">
  <advance width="483"/>
  <unicode hex="003F"/>
  <outline>
    <contour>
      <point x="197" y="716"/>
      <point x="115" y="671"/>
      <point x="51" y="605" type="curve"/>
      <point x="158" y="507" type="line"/>
      <point x="197" y="542"/>
      <point x="234" y="562"/>
      <point x="269" y="562" type="curve" smooth="yes"/>
      <point x="298" y="562"/>
      <point x="312" y="551"/>
      <point x="312" y="532" type="curve" smooth="yes"/>
      <point x="312" y="448"/>
      <point x="124" y="456"/>
      <point x="124" y="289" type="curve" smooth="yes"/>
      <point x="124" y="273"/>
      <point x="126" y="257"/>
      <point x="130" y="241" type="curve"/>
      <point x="301" y="266" type="line"/>
      <point x="300" y="271"/>
      <point x="299" y="279"/>
      <point x="299" y="284" type="curve" smooth="yes"/>
      <point x="300" y="394"/>
      <point x="519" y="366"/>
      <point x="519" y="564" type="curve"/>
      <point x="519" y="648"/>
      <point x="451" y="716"/>
      <point x="309" y="716" type="curve" smooth="yes"/>
    </contour>
    <component base="period" xOffset="115"/>
  </outline>
</glyph>
<glyph name="at" format="1">
  <advance width="1008"/>
  <unicode hex="0040"/>
  <outline>
    <contour>
      <point x="180" y="716"/>
      <point x="28" y="404"/>
      <point x="28" y="182" type="curve" smooth="yes"/>
      <point x="28" y="-58"/>
      <point x="192" y="-227"/>
      <point x="470" y="-227" type="curve" smooth="yes"/>
      <point x="537" y="-227"/>
      <point x="635" y="-209"/>
      <point x="699" y="-184" type="curve"/>
      <point x="671" y="-51" type="line"/>
      <point x="620" y="-70"/>
      <point x="541" y="-86"/>
      <point x="487" y="-86" type="curve" smooth="yes"/>
      <point x="296" y="-86"/>
      <point x="200" y="26"/>
      <point x="200" y="188" type="curve" smooth="yes"/>
      <point x="200" y="349"/>
      <point x="270" y="577"/>
      <point x="556" y="577" type="curve" smooth="yes"/>
      <point x="730" y="577"/>
      <point x="813" y="505"/>
      <point x="813" y="368" type="curve" smooth="yes"/>
      <point x="813" y="274"/>
      <point x="786" y="116"/>
      <point x="717" y="116" type="curve" smooth="yes"/>
      <point x="694" y="116"/>
      <point x="685" y="130"/>
      <point x="689" y="161" type="curve" smooth="yes"/>
      <point x="728" y="460" type="line"/>
      <point x="679" y="490"/>
      <point x="609" y="509"/>
      <point x="553" y="509" type="curve" smooth="yes"/>
      <point x="338" y="509"/>
      <point x="275" y="305"/>
      <point x="275" y="179" type="curve" smooth="yes"/>
      <point x="275" y="79"/>
      <point x="325" y="6"/>
      <point x="442" y="6" type="curve" smooth="yes"/>
      <point x="507" y="6"/>
      <point x="555" y="41"/>
      <point x="586" y="100" type="curve"/>
      <point x="591" y="51"/>
      <point x="651" y="1"/>
      <point x="726" y="1" type="curve" smooth="yes"/>
      <point x="906" y="1"/>
      <point x="981" y="212"/>
      <point x="981" y="359" type="curve" smooth="yes"/>
      <point x="981" y="554"/>
      <point x="831" y="716"/>
      <point x="572" y="716" type="curve" smooth="yes"/>
    </contour>
    <contour>
      <point x="457" y="125"/>
      <point x="445" y="134"/>
      <point x="445" y="167" type="curve" smooth="yes"/>
      <point x="445" y="246"/>
      <point x="463" y="389"/>
      <point x="530" y="389" type="curve" smooth="yes"/>
      <point x="539" y="389"/>
      <point x="546" y="389"/>
      <point x="556" y="384" type="curve"/>
      <point x="523" y="154" type="line"/>
      <point x="511" y="136"/>
      <point x="495" y="125"/>
      <point x="477" y="125" type="curve" smooth="yes"/>
    </contour>
  </outline>
</glyph>
<glyph name="A" format="1">
  <advance width="589"/>
  <unicode hex="0041"/>
  <outline>
    <contour>
      <point x="234" y="696" type="line"/>
      <point x="-62" y="0" type="line"/>
      <point x="149" y="0" type="line"/>
      <point x="332" y="567" type="line"/>
      <point x="363" y="0" type="line"/>
      <point x="577" y="0" type="line"/>
      <point x="476" y="696" type="line"/>
    </contour>
    <contour>
      <point x="225" y="279" type="line"/>
      <point x="177" y="135" type="line"/>
      <point x="370" y="135" type="line"/>
      <point x="362" y="279" type="line"/>
    </contour>
    <contour>
      <point x="489" y="0" type="move" name="ogonek"/>
    </contour>
    <contour>
      <point x="355" y="696" type="move" name="top"/>
    </contour>
    <contour>
      <point x="203" y="696" type="move" name="topleft"/>
    </contour>
    <contour>
      <point x="256" y="0" type="move" name="bottom"/>
    </contour>
  </outline>
</glyph>
<glyph name="B" format="1">
  <advance width="610"/>
  <unicode hex="0042"/>
  <outline>
    <contour>
      <point x="103" y="696" type="line"/>
      <point x="6" y="0" type="line"/>
      <point x="246" y="0" type="line" smooth="yes"/>
      <point x="505" y="0"/>
      <point x="589" y="100"/>
      <point x="589" y="221" type="curve" smooth="yes"/>
      <point x="589" y="321"/>
      <point x="523" y="354"/>
      <point x="453" y="368" type="curve"/>
      <point x="527" y="387"/>
      <point x="604" y="433"/>
      <point x="604" y="535" type="curve" smooth="yes"/>
      <point x="604" y="657"/>
      <point x="491" y="696"/>
      <point x="314" y="696" type="curve" smooth="yes"/>
    </contour>
    <contour>
      <point x="374" y="555"/>
      <point x="395" y="540"/>
      <point x="395" y="509" type="curve" smooth="yes"/>
      <point x="395" y="474"/>
      <point x="386" y="427"/>
      <point x="301" y="427" type="curve" smooth="yes"/>
      <point x="252" y="427" type="line"/>
      <point x="233" y="297" type="line"/>
      <point x="297" y="297" type="line" smooth="yes"/>
      <point x="352" y="297"/>
      <point x="382" y="279"/>
      <point x="382" y="239" type="curve" smooth="yes"/>
      <point x="382" y="186"/>
      <point x="362" y="145"/>
      <point x="266" y="145" type="curve" smooth="yes"/>
      <point x="227" y="145" type="line"/>
      <point x="284" y="555" type="line"/>
      <point x="315" y="555" type="line" smooth="yes"/>
    </contour>
    <contour>
      <point x="338" y="696" type="move" name="top"/>
    </contour>
  </outline>
</glyph>
<glyph name="C" format="1">
  <advance width="571"/>
  <unicode hex="0043"/>
  <outline>
    <contour>
      <point x="122" y="716"/>
      <point x="25" y="464"/>
      <point x="25" y="270" type="curve" smooth="yes"/>
      <point x="25" y="81"/>
      <point x="132" y="-20"/>
      <point x="308" y="-20" type="curve" smooth="yes"/>
      <point x="403" y="-20"/>
      <point x="488" y="25"/>
      <point x="545" y="76" type="curve"/>
      <point x="471" y="194" type="line"/>
      <point x="427" y="162"/>
      <point x="386" y="135"/>
      <point x="337" y="135" type="curve" smooth="yes"/>
      <point x="271" y="135"/>
      <point x="234" y="179"/>
      <point x="234" y="274" type="curve" smooth="yes"/>
      <point x="234" y="377"/>
      <point x="270" y="568"/>
      <point x="397" y="568" type="curve" smooth="yes"/>
      <point x="443" y="568"/>
      <point x="475" y="550"/>
      <point x="504" y="520" type="curve"/>
      <point x="613" y="626" type="line"/>
      <point x="564" y="684"/>
      <point x="491" y="716"/>
      <point x="395" y="716" type="curve" smooth="yes"/>
    </contour>
    <contour>
      <point x="410" y="696" type="move" name="top"/>
    </contour>
    <contour>
      <point x="294" y="0" type="move" name="bottom"/>
    </contour>
  </outline>
</glyph>
<glyph name="D" format="1">
  <advance width="644"/>
  <unicode hex="0044"/>
  <outline>
    <contour>
      <point x="103" y="696" type="line"/>
      <point x="6" y="0" type="line"/>
      <point x="237" y="0" type="line" smooth="yes"/>
      <point x="548" y="0"/>
      <point x="642" y="203"/>
      <point x="642" y="432" type="curve" smooth="yes"/>
      <point x="642" y="645"/>
      <point x="489" y="696"/>
      <point x="320" y="696" type="curve" smooth="yes"/>
    </contour>
    <contour>
      <point x="397" y="551"/>
      <point x="434" y="524"/>
      <point x="434" y="430" type="curve" smooth="yes"/>
      <point x="434" y="314"/>
      <point x="408" y="145"/>
      <point x="267" y="145" type="curve" smooth="yes"/>
      <point x="228" y="145" type="line"/>
      <point x="285" y="551" type="line"/>
      <point x="327" y="551" type="line" smooth="yes"/>
    </contour>
    <contour>
      <point x="334" y="348" type="move" name="center"/>
    </contour>
    <contour>
      <point x="252" y="0" type="move" name="bottom"/>
    </contour>
    <contour>
      <point x="346" y="696" type="move" name="top"/>
    </contour>
  </outline>
</glyph>
<glyph name="E" format="1">
  <advance width="511"/>
  <unicode hex="0045"/>
  <outline>
    <contour>
      <point x="104" y="696" type="line"/>
      <point x="7" y="0" type="line"/>
      <point x="451" y="0" type="line"/>
      <point x="471" y="144" type="line"/>
      <point x="229" y="144" type="line"/>
      <point x="249" y="284" type="line"/>
      <point x="447" y="284" type="line"/>
      <point x="465" y="423" type="line"/>
      <point x="268" y="423" type="line"/>
      <point x="286" y="553" type="line"/>
      <point x="512" y="553" type="line"/>
      <point x="553" y="696" type="line"/>
    </contour>
    <contour>
      <point x="421" y="0" type="move" name="ogonek"/>
    </contour>
    <contour>
      <point x="329" y="696" type="move" name="top"/>
    </contour>
    <contour>
      <point x="104" y="696" type="move" name="topleft"/>
    </contour>
    <contour>
      <point x="229" y="0" type="move" name="bottom"/>
    </contour>
  </outline>
</glyph>
<glyph name="F" format="1">
  <advance width="475"/>
  <unicode hex="0046"/>
  <outline>
    <contour>
      <point x="103" y="696" type="line" smooth="yes"/>
      <point x="6" y="0" type="line" smooth="yes"/>
      <point x="208" y="0" type="line" smooth="yes"/>
      <point x="244" y="258" type="line" smooth="yes"/>
      <point x="430" y="258" type="line" smooth="yes"/>
      <point x="450" y="401" type="line" smooth="yes"/>
      <point x="264" y="401" type="line" smooth="yes"/>
      <point x="285" y="553" type="line" smooth="yes"/>
      <point x="496" y="553" type="line" smooth="yes"/>
      <point x="537" y="696" type="line" smooth="yes"/>
    </contour>
    <contour>
      <point x="320" y="696" type="move" name="top"/>
    </contour>
    <contour>
      <point x="200" y="0" type="move" name="bottom"/>
    </contour>
  </outline>
</glyph>
<glyph name="G" format="1">
  <advance width="640"/>
  <unicode hex="0047"/>
  <outline>
    <contour>
      <point x="131" y="716"/>
      <point x="24" y="472"/>
      <point x="24" y="259" type="curve" smooth="yes"/>
      <point x="24" y="79"/>
      <point x="113" y="-20"/>
      <point x="310" y="-20" type="curve" smooth="yes"/>
      <point x="395" y="-20"/>
      <point x="498" y="8"/>
      <point x="578" y="58" type="curve"/>
      <point x="626" y="409" type="line"/>
      <point x="345" y="409" type="line"/>
      <point x="343" y="270" type="line"/>
      <point x="412" y="270" type="line"/>
      <point x="394" y="142" type="line"/>
      <point x="370" y="132"/>
      <point x="347" y="126"/>
      <point x="319" y="126" type="curve" smooth="yes"/>
      <point x="261" y="126"/>
      <point x="231" y="154"/>
      <point x="231" y="243" type="curve" smooth="yes"/>
      <point x="231" y="382"/>
      <point x="266" y="572"/>
      <point x="421" y="572" type="curve" smooth="yes"/>
      <point x="472" y="572"/>
      <point x="504" y="555"/>
      <point x="540" y="519" type="curve"/>
      <point x="654" y="622" type="line"/>
      <point x="607" y="675"/>
      <point x="529" y="716"/>
      <point x="425" y="716" type="curve" smooth="yes"/>
    </contour>
    <contour>
      <point x="403" y="696" type="move" name="top"/>
    </contour>
    <contour>
      <point x="306" y="0" type="move" name="bottom"/>
    </contour>
  </outline>
</glyph>
<glyph name="H" format="1">
  <advance width="645"/>
  <unicode hex="0048"/>
  <outline>
    <contour>
      <point x="565" y="0" type="line"/>
      <point x="662" y="696" type="line"/>
      <point x="460" y="696" type="line"/>
      <point x="424" y="439" type="line"/>
      <point x="269" y="439" type="line"/>
      <point x="305" y="696" type="line"/>
      <point x="104" y="696" type="line"/>
      <point x="6" y="0" type="line"/>
      <point x="208" y="0" type="line"/>
      <point x="247" y="281" type="line"/>
      <point x="401" y="281" type="line"/>
      <point x="363" y="0" type="line"/>
    </contour>
    <contour>
      <point x="285" y="0" type="move" name="bottom"/>
    </contour>
    <contour>
      <point x="383" y="696" type="move" name="top"/>
    </contour>
    <contour>
      <point x="105" y="696" type="move" name="topleft"/>
    </contour>
    <contour>
      <point x="575" y="0" type="move" name="bottomright"/>
    </contour>
    <contour>
      <point x="335" y="348" type="move" name="center"/>
    </contour>
  </outline>
</glyph>
<glyph name="I" format="1">
  <advance width="288"/>
  <unicode hex="0049"/>
  <outline>
    <contour>
      <point x="103" y="696" type="line"/>
      <point x="6" y="0" type="line"/>
      <point x="208" y="0" type="line"/>
      <point x="305" y="696" type="line"/>
    </contour>
    <contour>
      <point x="173" y="0" type="move" name="ogonek"/>
    </contour>
    <contour>
      <point x="204" y="696" type="move" name="top"/>
    </contour>
    <contour>
      <point x="102" y="696" type="move" name="topleft"/>
    </contour>
    <contour>
      <point x="107" y="0" type="move" name="bottom"/>
    </contour>
  </outline>
</glyph>
<glyph name="J" format="1">
  <advance width="316"/>
  <unicode hex="004A"/>
  <outline>
    <contour>
      <point x="133" y="696" type="line"/>
      <point x="52" y="119" type="line" smooth="yes"/>
      <point x="41" y="42"/>
      <point x="24" y="-10"/>
      <point x="-68" y="-44" type="curve"/>
      <point x="-32" y="-189" type="line"/>
      <point x="92" y="-149"/>
      <point x="226" y="-84"/>
      <point x="254" y="110" type="curve" smooth="yes"/>
      <point x="335" y="696" type="line"/>
    </contour>
    <contour>
      <point x="234" y="696" type="move" name="top"/>
    </contour>
  </outline>
</glyph>
<glyph name="K" format="1">
  <advance width="647"/>
  <unicode hex="004B"/>
  <outline>
    <contour>
      <point x="499" y="696" type="line"/>
      <point x="266" y="371" type="line"/>
      <point x="402" y="0" type="line"/>
      <point x="630" y="0" type="line"/>
      <point x="471" y="377" type="line"/>
      <point x="709" y="696" type="line"/>
    </contour>
    <contour>
      <point x="103" y="696" type="line"/>
      <point x="6" y="0" type="line"/>
      <point x="208" y="0" type="line"/>
      <point x="305" y="696" type="line"/>
    </contour>
    <contour>
      <point x="385" y="696" type="move" name="top"/>
    </contour>
    <contour>
      <point x="288" y="0" type="move" name="bottom"/>
    </contour>
  </outline>
</glyph>
<glyph name="L" format="1">
  <advance width="514"/>
  <unicode hex="004C"/>
  <outline>
    <contour>
      <point x="103" y="696" type="line"/>
      <point x="6" y="0" type="line"/>
      <point x="445" y="0" type="line"/>
      <point x="487" y="158" type="line"/>
      <point x="230" y="158" type="line"/>
      <point x="305" y="696" type="line"/>
    </contour>
    <contour>
      <point x="226" y="0" type="move" name="bottom"/>
    </contour>
    <contour>
      <point x="204" y="696" type="move" name="top"/>
    </contour>
    <contour>
      <point x="324" y="696" type="move" name="topright"/>
    </contour>
    <contour>
      <point x="415" y="404" type="move" name="center"/>
    </contour>
  </outline>
</glyph>
<glyph name="M" format="1">
  <advance width="779"/>
  <unicode hex="004D"/>
  <outline>
    <contour>
      <point x="518" y="696" type="line"/>
      <point x="382" y="226" type="line"/>
      <point x="369" y="696" type="line"/>
      <point x="125" y="696" type="line"/>
      <point x="-21" y="0" type="line"/>
      <point x="178" y="0" type="line"/>
      <point x="217" y="247" type="line" smooth="yes"/>
      <point x="233" y="341"/>
      <point x="239" y="415"/>
      <point x="241" y="550" type="curve"/>
      <point x="264" y="70" type="line"/>
      <point x="458" y="70" type="line"/>
      <point x="604" y="552" type="line"/>
      <point x="580" y="428"/>
      <point x="566" y="338"/>
      <point x="556" y="248" type="curve" smooth="yes"/>
      <point x="527" y="0" type="line"/>
      <point x="726" y="0" type="line"/>
      <point x="774" y="696" type="line"/>
    </contour>
  </outline>
</glyph>
<glyph name="N" format="1">
  <advance width="639"/>
  <unicode hex="004E"/>
  <outline>
    <contour>
      <point x="480" y="696" type="line"/>
      <point x="450" y="484" type="line" smooth="yes"/>
      <point x="431" y="348"/>
      <point x="435" y="268"/>
      <point x="442" y="169" type="curve"/>
      <point x="353" y="696" type="line"/>
      <point x="103" y="696" type="line"/>
      <point x="6" y="0" type="line"/>
      <point x="182" y="0" type="line"/>
      <point x="211" y="205" type="line" smooth="yes"/>
      <point x="230" y="344"/>
      <point x="225" y="440"/>
      <point x="220" y="527" type="curve"/>
      <point x="305" y="0" type="line"/>
      <point x="559" y="0" type="line"/>
      <point x="656" y="696" type="line"/>
    </contour>
    <contour>
      <point x="380" y="696" type="move" name="top"/>
    </contour>
    <contour>
      <point x="283" y="0" type="move" name="bottom"/>
    </contour>
  </outline>
</glyph>
<glyph name="O" format="1">
  <advance width="678"/>
  <unicode hex="004F"/>
  <outline>
    <contour>
      <point x="112" y="716"/>
      <point x="25" y="458"/>
      <point x="25" y="268" type="curve" smooth="yes"/>
      <point x="25" y="89"/>
      <point x="121" y="-20"/>
      <point x="301" y="-20" type="curve"/>
      <point x="591" y="-20"/>
      <point x="676" y="241"/>
      <point x="676" y="429" type="curve" smooth="yes"/>
      <point x="676" y="609"/>
      <point x="580" y="716"/>
      <point x="400" y="716" type="curve"/>
    </contour>
    <contour>
      <point x="441" y="570"/>
      <point x="468" y="536"/>
      <point x="468" y="447" type="curve" smooth="yes"/>
      <point x="468" y="346"/>
      <point x="446" y="126"/>
      <point x="317" y="126" type="curve" smooth="yes"/>
      <point x="260" y="126"/>
      <point x="233" y="161"/>
      <point x="233" y="251" type="curve" smooth="yes"/>
      <point x="233" y="348"/>
      <point x="255" y="570"/>
      <point x="384" y="570" type="curve"/>
    </contour>
    <contour>
      <point x="399" y="696" type="move" name="top"/>
    </contour>
    <contour>
      <point x="644" y="696" type="move" name="topright"/>
    </contour>
    <contour>
      <point x="106" y="696" type="move" name="topleft"/>
    </contour>
    <contour>
      <point x="303" y="0" type="move" name="bottom"/>
    </contour>
  </outline>
</glyph>
<glyph name="P" format="1">
  <advance width="601"/>
  <unicode hex="0050"/>
  <outline>
    <contour>
      <point x="286" y="553" type="line"/>
      <point x="329" y="553" type="line" smooth="yes"/>
      <point x="386" y="553"/>
      <point x="410" y="528"/>
      <point x="410" y="483" type="curve" smooth="yes"/>
      <point x="410" y="438"/>
      <point x="390" y="362"/>
      <point x="305" y="362" type="curve" smooth="yes"/>
      <point x="244" y="362" type="line"/>
      <point x="224" y="217" type="line"/>
      <point x="307" y="217" type="line" smooth="yes"/>
      <point x="535" y="217"/>
      <point x="618" y="370"/>
      <point x="618" y="495" type="curve" smooth="yes"/>
      <point x="618" y="627"/>
      <point x="517" y="696"/>
      <point x="350" y="696" type="curve" smooth="yes"/>
      <point x="104" y="696" type="line"/>
      <point x="7" y="0" type="line"/>
      <point x="209" y="0" type="line"/>
    </contour>
    <contour>
      <point x="361" y="696" type="move" name="top"/>
    </contour>
    <contour>
      <point x="263" y="0" type="move" name="bottom"/>
    </contour>
    <contour>
      <point x="104" y="696" type="move" name="topleft"/>
    </contour>
  </outline>
</glyph>
<glyph name="Q" format="1">
  <advance width="678"/>
  <unicode hex="0051"/>
  <outline>
    <contour>
      <point x="301" y="-20" type="line"/>
      <point x="430" y="-20"/>
      <point x="498" y="-103"/>
      <point x="543" y="-176" type="curve"/>
      <point x="682" y="-20" type="line"/>
      <point x="630" y="24"/>
      <point x="573" y="46"/>
      <point x="448" y="46" type="curve"/>
    </contour>
    <contour>
      <point x="112" y="716"/>
      <point x="25" y="458"/>
      <point x="25" y="268" type="curve" smooth="yes"/>
      <point x="25" y="89"/>
      <point x="121" y="-20"/>
      <point x="301" y="-20" type="curve"/>
      <point x="351" y="-20"/>
      <point x="396" y="-12"/>
      <point x="434" y="2" type="curve"/>
      <point x="466" y="39" type="line"/>
      <point x="627" y="115"/>
      <point x="676" y="288"/>
      <point x="676" y="429" type="curve" smooth="yes"/>
      <point x="676" y="609"/>
      <point x="580" y="716"/>
      <point x="400" y="716" type="curve"/>
    </contour>
    <contour>
      <point x="441" y="570"/>
      <point x="468" y="536"/>
      <point x="468" y="452" type="curve" smooth="yes"/>
      <point x="468" y="346"/>
      <point x="446" y="126"/>
      <point x="317" y="126" type="curve" smooth="yes"/>
      <point x="260" y="126"/>
      <point x="233" y="161"/>
      <point x="233" y="246" type="curve" smooth="yes"/>
      <point x="233" y="348"/>
      <point x="255" y="570"/>
      <point x="384" y="570" type="curve"/>
    </contour>
    <contour>
      <point x="399" y="696" type="move" name="top"/>
    </contour>
    <contour>
      <point x="301" y="0" type="move" name="bottom"/>
    </contour>
  </outline>
</glyph>
<glyph name="R" format="1">
  <advance width="612"/>
  <unicode hex="0052"/>
  <outline>
    <contour>
      <point x="103" y="696" type="line"/>
      <point x="6" y="0" type="line"/>
      <point x="208" y="0" type="line"/>
      <point x="285" y="555" type="line"/>
      <point x="329" y="555" type="line" smooth="yes"/>
      <point x="382" y="555"/>
      <point x="410" y="535"/>
      <point x="410" y="494" type="curve" smooth="yes"/>
      <point x="410" y="449"/>
      <point x="391" y="386"/>
      <point x="314" y="386" type="curve" smooth="yes"/>
      <point x="245" y="386" type="line"/>
      <point x="226" y="248" type="line"/>
      <point x="392" y="247" type="line"/>
      <point x="588" y="322"/>
      <point x="618" y="407"/>
      <point x="618" y="512" type="curve" smooth="yes"/>
      <point x="618" y="638"/>
      <point x="528" y="696"/>
      <point x="354" y="696" type="curve" smooth="yes"/>
    </contour>
    <contour>
      <point x="278" y="262" type="line"/>
      <point x="375" y="0" type="line"/>
      <point x="595" y="0" type="line"/>
      <point x="462" y="300" type="line"/>
    </contour>
    <contour>
      <point x="367" y="696" type="move" name="top"/>
    </contour>
    <contour>
      <point x="270" y="0" type="move" name="bottom"/>
    </contour>
  </outline>
</glyph>
<glyph name="S" format="1">
  <advance width="576"/>
  <unicode hex="0053"/>
  <outline>
    <contour>
      <point x="144" y="716"/>
      <point x="58" y="602"/>
      <point x="58" y="488" type="curve" smooth="yes"/>
      <point x="58" y="399"/>
      <point x="105" y="331"/>
      <point x="244" y="285" type="curve" smooth="yes"/>
      <point x="319" y="259"/>
      <point x="342" y="235"/>
      <point x="342" y="197" type="curve" smooth="yes"/>
      <point x="342" y="160"/>
      <point x="310" y="134"/>
      <point x="244" y="134" type="curve" smooth="yes"/>
      <point x="182" y="134"/>
      <point x="131" y="158"/>
      <point x="88" y="201" type="curve"/>
      <point x="-25" y="86" type="line"/>
      <point x="29" y="31"/>
      <point x="115" y="-20"/>
      <point x="244" y="-20" type="curve" smooth="yes"/>
      <point x="478" y="-20"/>
      <point x="556" y="118"/>
      <point x="556" y="238" type="curve" smooth="yes"/>
      <point x="556" y="337"/>
      <point x="500" y="400"/>
      <point x="380" y="440" type="curve" smooth="yes"/>
      <point x="297" y="470"/>
      <point x="271" y="481"/>
      <point x="271" y="514" type="curve" smooth="yes"/>
      <point x="271" y="547"/>
      <point x="300" y="570"/>
      <point x="354" y="570" type="curve" smooth="yes"/>
      <point x="407" y="570"/>
      <point x="451" y="552"/>
      <point x="492" y="515" type="curve"/>
      <point x="594" y="620" type="line"/>
      <point x="537" y="681"/>
      <point x="457" y="716"/>
      <point x="353" y="716" type="curve" smooth="yes"/>
    </contour>
    <contour>
      <point x="361" y="696" type="move" name="top"/>
    </contour>
    <contour>
      <point x="250" y="0" type="move" name="bottom"/>
    </contour>
  </outline>
</glyph>
<glyph name="T" format="1">
  <advance width="542"/>
  <unicode hex="0054"/>
  <outline>
    <contour>
      <point x="64" y="696" type="line"/>
      <point x="43" y="542" type="line"/>
      <point x="209" y="542" type="line"/>
      <point x="133" y="0" type="line"/>
      <point x="335" y="0" type="line"/>
      <point x="411" y="542" type="line"/>
      <point x="566" y="542" type="line"/>
      <point x="608" y="696" type="line"/>
    </contour>
    <contour>
      <point x="234" y="0" type="move" name="bottom"/>
    </contour>
    <contour>
      <point x="332" y="696" type="move" name="top"/>
    </contour>
    <contour>
      <point x="345" y="0" type="move" name="bottomright"/>
    </contour>
    <contour>
      <point x="283" y="348" type="move" name="center"/>
    </contour>
  </outline>
</glyph>
<glyph name="U" format="1">
  <advance width="632"/>
  <unicode hex="0055"/>
  <outline>
    <contour>
      <point x="457" y="696" type="line"/>
      <point x="393" y="243" type="line" smooth="yes"/>
      <point x="382" y="166"/>
      <point x="354" y="128"/>
      <point x="294" y="128" type="curve" smooth="yes"/>
      <point x="236" y="128"/>
      <point x="220" y="164"/>
      <point x="231" y="241" type="curve" smooth="yes"/>
      <point x="295" y="696" type="line"/>
      <point x="93" y="696" type="line"/>
      <point x="29" y="237" type="line" smooth="yes"/>
      <point x="8" y="85"/>
      <point x="85" y="-20"/>
      <point x="278" y="-20" type="curve" smooth="yes"/>
      <point x="469" y="-20"/>
      <point x="575" y="93"/>
      <point x="595" y="235" type="curve" smooth="yes"/>
      <point x="659" y="696" type="line"/>
    </contour>
    <contour>
      <point x="414" y="0" type="move" name="ogonek"/>
    </contour>
    <contour>
      <point x="376" y="696" type="move" name="top"/>
    </contour>
    <contour>
      <point x="669" y="696" type="move" name="topright"/>
    </contour>
    <contour>
      <point x="279" y="0" type="move" name="bottom"/>
    </contour>
  </outline>
</glyph>
<glyph name="V" format="1">
  <advance width="567"/>
  <unicode hex="0056"/>
  <outline>
    <contour>
      <point x="444" y="696" type="line"/>
      <point x="274" y="143" type="line"/>
      <point x="247" y="696" type="line"/>
      <point x="36" y="696" type="line"/>
      <point x="123" y="0" type="line"/>
      <point x="383" y="0" type="line"/>
      <point x="653" y="696" type="line"/>
    </contour>
    <contour>
      <point x="344" y="696" type="move" name="top"/>
    </contour>
    <contour>
      <point x="246" y="0" type="move" name="bottom"/>
    </contour>
  </outline>
</glyph>
<glyph name="W" format="1">
  <advance width="847"/>
  <unicode hex="0057"/>
  <outline>
    <contour>
      <point x="709" y="696" type="line"/>
      <point x="574" y="149" type="line"/>
      <point x="590" y="696" type="line"/>
      <point x="378" y="696" type="line"/>
      <point x="229" y="149" type="line"/>
      <point x="262" y="696" type="line"/>
      <point x="62" y="696" type="line"/>
      <point x="61" y="0" type="line"/>
      <point x="317" y="0" type="line"/>
      <point x="455" y="500" type="line"/>
      <point x="446" y="0" type="line"/>
      <point x="709" y="0" type="line"/>
      <point x="905" y="696" type="line"/>
    </contour>
    <contour>
      <point x="486" y="696" type="move" name="top"/>
    </contour>
    <contour>
      <point x="386" y="0" type="move" name="bottom"/>
    </contour>
  </outline>
</glyph>
<glyph name="X" format="1">
  <advance width="594"/>
  <unicode hex="0058"/>
  <outline>
    <contour>
      <point x="63" y="696" type="line"/>
      <point x="187" y="369" type="line"/>
      <point x="291" y="249" type="line"/>
      <point x="351" y="0" type="line"/>
      <point x="567" y="0" type="line"/>
      <point x="429" y="375" type="line"/>
      <point x="323" y="486" type="line"/>
      <point x="278" y="696" type="line"/>
    </contour>
    <contour>
      <point x="435" y="696" type="line"/>
      <point x="323" y="486" type="line"/>
      <point x="186" y="369" type="line"/>
      <point x="-47" y="0" type="line"/>
      <point x="169" y="0" type="line"/>
      <point x="291" y="249" type="line"/>
      <point x="430" y="375" type="line"/>
      <point x="650" y="696" type="line"/>
    </contour>
    <contour>
      <point x="357" y="696" type="move" name="top"/>
    </contour>
    <contour>
      <point x="259" y="0" type="move" name="bottom"/>
    </contour>
    <contour>
      <point x="508" y="0" type="move" name="bottomright"/>
    </contour>
  </outline>
</glyph>
<glyph name="Y" format="1">
  <advance width="608"/>
  <unicode hex="0059"/>
  <outline>
    <contour>
      <point x="467" y="696" type="line"/>
      <point x="325" y="412" type="line"/>
      <point x="262" y="696" type="line"/>
      <point x="45" y="696" type="line"/>
      <point x="202" y="256" type="line"/>
      <point x="166" y="0" type="line"/>
      <point x="368" y="0" type="line"/>
      <point x="404" y="257" type="line"/>
      <point x="683" y="696" type="line"/>
    </contour>
    <contour>
      <point x="364" y="696" type="move" name="top"/>
    </contour>
    <contour>
      <point x="267" y="0" type="move" name="bottom"/>
    </contour>
    <contour>
      <point x="46" y="696" type="move" name="topleft"/>
    </contour>
  </outline>
</glyph>
<glyph name="Z" format="1">
  <advance width="545"/>
  <unicode hex="005A"/>
  <outline>
    <contour>
      <point x="474" y="0" type="line"/>
      <point x="516" y="161" type="line"/>
      <point x="237" y="161" type="line"/>
      <point x="561" y="543" type="line"/>
      <point x="582" y="696" type="line"/>
      <point x="97" y="696" type="line"/>
      <point x="76" y="540" type="line"/>
      <point x="326" y="540" type="line"/>
      <point x="-8" y="151" type="line"/>
      <point x="-28" y="0" type="line"/>
    </contour>
    <contour>
      <point x="333" y="696" type="move" name="top"/>
    </contour>
    <contour>
      <point x="223" y="0" type="move" name="bottom"/>
    </contour>
  </outline>
</glyph>
<glyph name="bracketleft" format="1">
  <advance width="313"/>
  <unicode hex="005B"/>
  <outline>
    <contour>
      <point x="91" y="827" type="line"/>
      <point x="-44" y="-127" type="line"/>
      <point x="251" y="-127" type="line"/>
      <point x="271" y="15" type="line"/>
      <point x="161" y="15" type="line"/>
      <point x="255" y="684" type="line"/>
      <point x="365" y="684" type="line"/>
      <point x="385" y="827" type="line"/>
    </contour>
  </outline>
</glyph>
<glyph name="backslash" format="1">
  <advance width="508"/>
  <unicode hex="005C"/>
  <outline>
    <contour>
      <point x="124" y="782" type="line"/>
      <point x="231" y="-117" type="line"/>
      <point x="408" y="-77" type="line"/>
      <point x="300" y="822" type="line"/>
    </contour>
  </outline>
</glyph>
<glyph name="bracketright" format="1">
  <advance width="313"/>
  <unicode hex="005D"/>
  <outline>
    <contour>
      <point x="87" y="827" type="line"/>
      <point x="67" y="685" type="line"/>
      <point x="177" y="685" type="line"/>
      <point x="83" y="16" type="line"/>
      <point x="-27" y="16" type="line"/>
      <point x="-48" y="-127" type="line"/>
      <point x="247" y="-127" type="line"/>
      <point x="381" y="827" type="line"/>
    </contour>
  </outline>
</glyph>
<glyph name="asciicircum" format="1">
  <advance width="558"/>
  <unicode hex="005E"/>
  <outline>
    <contour>
      <point x="271" y="847" type="line"/>
      <point x="40" y="527" type="line"/>
      <point x="231" y="527" type="line"/>
      <point x="340" y="705" type="line"/>
      <point x="405" y="527" type="line"/>
      <point x="590" y="527" type="line"/>
      <point x="449" y="847" type="line"/>
    </contour>
  </outline>
</glyph>
<glyph name="underscore" format="1">
  <advance width="508"/>
  <unicode hex="005F"/>
  <outline>
    <contour>
      <point x="440" y="-188" type="line"/>
      <point x="461" y="-38" type="line"/>
      <point x="-39" y="-38" type="line"/>
      <point x="-60" y="-188" type="line"/>
    </contour>
  </outline>
</glyph>
<glyph name="grave" format="1">
  <advance width="357"/>
  <unicode hex="0060"/>
  <outline>
    <contour>
      <point x="93" y="712" type="line"/>
      <point x="325" y="613" type="line"/>
      <point x="389" y="711" type="line"/>
      <point x="185" y="856" type="line"/>
    </contour>
  </outline>
</glyph>
<glyph name="a" format="1">
  <advance width="574"/>
  <unicode hex="0061"/>
  <outline>
    <contour>
      <point x="94" y="554"/>
      <point x="11" y="354"/>
      <point x="11" y="197" type="curve" smooth="yes"/>
      <point x="11" y="64"/>
      <point x="70" y="-20"/>
      <point x="188" y="-20" type="curve" smooth="yes"/>
      <point x="262" y="-20"/>
      <point x="311" y="19"/>
      <point x="345" y="72" type="curve"/>
      <point x="366" y="15"/>
      <point x="424" y="-12"/>
      <point x="486" y="-16" type="curve"/>
      <point x="542" y="110" type="line"/>
      <point x="525" y="117"/>
      <point x="518" y="127"/>
      <point x="518" y="148" type="curve" smooth="yes"/>
      <point x="518" y="155"/>
      <point x="519" y="163"/>
      <point x="520" y="172" type="curve" smooth="yes"/>
      <point x="566" y="491" type="line"/>
      <point x="492" y="535"/>
      <point x="405" y="554"/>
      <point x="330" y="554" type="curve" smooth="yes"/>
    </contour>
    <contour>
      <point x="338" y="418"/>
      <point x="349" y="416"/>
      <point x="364" y="412" type="curve"/>
      <point x="330" y="182" type="line"/>
      <point x="306" y="141"/>
      <point x="279" y="122"/>
      <point x="253" y="122" type="curve" smooth="yes"/>
      <point x="231" y="122"/>
      <point x="210" y="132"/>
      <point x="210" y="198" type="curve" smooth="yes"/>
      <point x="210" y="292"/>
      <point x="237" y="418"/>
      <point x="322" y="418" type="curve" smooth="yes"/>
    </contour>
    <contour>
      <point x="494" y="-16" type="move" name="ogonek"/>
    </contour>
    <contour>
      <point x="277" y="0" type="move" name="bottom"/>
    </contour>
    <contour>
      <point x="347" y="534" type="move" name="top"/>
    </contour>
  </outline>
</glyph>
<glyph name="b" format="1">
  <advance width="583"/>
  <unicode hex="0062"/>
  <outline>
    <contour>
      <point x="107" y="744" type="line"/>
      <point x="7" y="30" type="line"/>
      <point x="77" y="-1"/>
      <point x="156" y="-20"/>
      <point x="244" y="-20" type="curve" smooth="yes"/>
      <point x="514" y="-20"/>
      <point x="571" y="191"/>
      <point x="571" y="347" type="curve" smooth="yes"/>
      <point x="571" y="478"/>
      <point x="518" y="554"/>
      <point x="407" y="554" type="curve" smooth="yes"/>
      <point x="357" y="554"/>
      <point x="300" y="530"/>
      <point x="265" y="493" type="curve"/>
      <point x="303" y="764" type="line"/>
    </contour>
    <contour>
      <point x="351" y="412"/>
      <point x="372" y="400"/>
      <point x="372" y="338" type="curve" smooth="yes"/>
      <point x="372" y="249"/>
      <point x="345" y="121"/>
      <point x="266" y="121" type="curve" smooth="yes"/>
      <point x="245" y="121"/>
      <point x="228" y="126"/>
      <point x="215" y="131" type="curve"/>
      <point x="247" y="359" type="line"/>
      <point x="272" y="396"/>
      <point x="299" y="412"/>
      <point x="326" y="412" type="curve" smooth="yes"/>
    </contour>
    <contour>
      <point x="401" y="744" type="move" name="top"/>
    </contour>
    <contour>
      <point x="254" y="0" type="move" name="bottom"/>
    </contour>
  </outline>
</glyph>
<glyph name="c" format="1">
  <advance width="469"/>
  <unicode hex="0063"/>
  <outline>
    <contour>
      <point x="99" y="554"/>
      <point x="12" y="355"/>
      <point x="12" y="217" type="curve" smooth="yes"/>
      <point x="12" y="74"/>
      <point x="101" y="-20"/>
      <point x="256" y="-20" type="curve" smooth="yes"/>
      <point x="334" y="-20"/>
      <point x="395" y="5"/>
      <point x="449" y="44" type="curve"/>
      <point x="379" y="168" type="line"/>
      <point x="342" y="145"/>
      <point x="317" y="133"/>
      <point x="284" y="133" type="curve" smooth="yes"/>
      <point x="244" y="133"/>
      <point x="215" y="148"/>
      <point x="215" y="212" type="curve" smooth="yes"/>
      <point x="215" y="291"/>
      <point x="235" y="405"/>
      <point x="328" y="405" type="curve" smooth="yes"/>
      <point x="358" y="405"/>
      <point x="386" y="395"/>
      <point x="414" y="369" type="curve"/>
      <point x="507" y="480" type="line"/>
      <point x="462" y="527"/>
      <point x="400" y="554"/>
      <point x="327" y="554" type="curve" smooth="yes"/>
    </contour>
    <contour>
      <point x="323" y="534" type="move" name="top"/>
    </contour>
    <contour>
      <point x="235" y="0" type="move" name="bottom"/>
    </contour>
  </outline>
</glyph>
<glyph name="d" format="1">
  <advance width="590"/>
  <unicode hex="0064"/>
  <outline>
    <contour>
      <point x="389" y="511" type="line"/>
      <point x="363" y="538"/>
      <point x="324" y="554"/>
      <point x="284" y="554" type="curve" smooth="yes"/>
      <point x="85" y="554"/>
      <point x="16" y="347"/>
      <point x="16" y="197" type="curve" smooth="yes"/>
      <point x="16" y="61"/>
      <point x="68" y="-20"/>
      <point x="183" y="-20" type="curve" smooth="yes"/>
      <point x="258" y="-20"/>
      <point x="308" y="25"/>
      <point x="340" y="69" type="curve"/>
      <point x="339" y="0" type="line"/>
      <point x="512" y="0" type="line"/>
      <point x="616" y="744" type="line"/>
      <point x="424" y="764" type="line"/>
    </contour>
    <contour>
      <point x="343" y="413"/>
      <point x="357" y="406"/>
      <point x="372" y="389" type="curve"/>
      <point x="346" y="205" type="line"/>
      <point x="322" y="166"/>
      <point x="289" y="122"/>
      <point x="257" y="122" type="curve" smooth="yes"/>
      <point x="235" y="122"/>
      <point x="216" y="133"/>
      <point x="216" y="199" type="curve" smooth="yes"/>
      <point x="216" y="278"/>
      <point x="238" y="413"/>
      <point x="320" y="413" type="curve" smooth="yes"/>
    </contour>
    <contour>
      <point x="258" y="0" type="move" name="bottom"/>
    </contour>
    <contour>
      <point x="342" y="744" type="move" name="top"/>
    </contour>
    <contour>
      <point x="630" y="744" type="move" name="topright"/>
    </contour>
    <contour>
      <point x="296" y="267" type="move" name="center"/>
    </contour>
  </outline>
</glyph>
<glyph name="e" format="1">
  <advance width="543"/>
  <unicode hex="0065"/>
  <outline>
    <contour>
      <point x="94" y="554"/>
      <point x="12" y="356"/>
      <point x="12" y="211" type="curve" smooth="yes"/>
      <point x="12" y="75"/>
      <point x="90" y="-20"/>
      <point x="261" y="-20" type="curve" smooth="yes"/>
      <point x="351" y="-20"/>
      <point x="427" y="13"/>
      <point x="486" y="56" type="curve"/>
      <point x="419" y="169" type="line"/>
      <point x="369" y="137"/>
      <point x="331" y="120"/>
      <point x="287" y="120" type="curve" smooth="yes"/>
      <point x="240" y="120"/>
      <point x="205" y="140"/>
      <point x="205" y="208" type="curve" smooth="yes"/>
      <point x="205" y="286"/>
      <point x="226" y="429"/>
      <point x="308" y="429" type="curve" smooth="yes"/>
      <point x="341" y="429"/>
      <point x="351" y="413"/>
      <point x="351" y="389" type="curve" smooth="yes"/>
      <point x="351" y="371"/>
      <point x="334" y="305"/>
      <point x="203" y="302" type="curve"/>
      <point x="189" y="190" type="line"/>
      <point x="348" y="202"/>
      <point x="545" y="247"/>
      <point x="545" y="401" type="curve" smooth="yes"/>
      <point x="545" y="488"/>
      <point x="470" y="554"/>
      <point x="331" y="554" type="curve" smooth="yes"/>
    </contour>
    <contour>
      <point x="412" y="11" type="move" name="ogonek"/>
    </contour>
    <contour>
      <point x="251" y="0" type="move" name="bottom"/>
    </contour>
    <contour>
      <point x="316" y="534" type="move" name="top"/>
    </contour>
  </outline>
</glyph>
<glyph name="g" format="1">
  <advance width="575"/>
  <unicode hex="0067"/>
  <outline>
    <contour>
      <point x="94" y="554"/>
      <point x="12" y="352"/>
      <point x="12" y="211" type="curve" smooth="yes"/>
      <point x="12" y="87"/>
      <point x="71" y="0"/>
      <point x="189" y="0" type="curve" smooth="yes"/>
      <point x="246" y="0"/>
      <point x="291" y="26"/>
      <point x="324" y="63" type="curve"/>
      <point x="317" y="21" type="line" smooth="yes"/>
      <point x="304" y="-67"/>
      <point x="257" y="-82"/>
      <point x="206" y="-82" type="curve" smooth="yes"/>
      <point x="166" y="-82"/>
      <point x="120" y="-72"/>
      <point x="60" y="-40" type="curve"/>
      <point x="-3" y="-164" type="line"/>
      <point x="59" y="-203"/>
      <point x="140" y="-227"/>
      <point x="207" y="-227" type="curve" smooth="yes"/>
      <point x="401" y="-227"/>
      <point x="482" y="-139"/>
      <point x="510" y="58" type="curve" smooth="yes"/>
      <point x="571" y="491" type="line"/>
      <point x="497" y="535"/>
      <point x="410" y="554"/>
      <point x="335" y="554" type="curve" smooth="yes"/>
    </contour>
    <contour>
      <point x="343" y="418"/>
      <point x="354" y="416"/>
      <point x="369" y="412" type="curve"/>
      <point x="337" y="202" type="line"/>
      <point x="313" y="166"/>
      <point x="285" y="144"/>
      <point x="257" y="144" type="curve" smooth="yes"/>
      <point x="235" y="144"/>
      <point x="211" y="155"/>
      <point x="211" y="218" type="curve" smooth="yes"/>
      <point x="211" y="292"/>
      <point x="238" y="418"/>
      <point x="328" y="418" type="curve" smooth="yes"/>
    </contour>
    <contour>
      <point x="336" y="534" type="move" name="top"/>
    </contour>
    <contour>
      <point x="207" y="-215" type="move" name="bottom"/>
    </contour>
  </outline>
</glyph>
<glyph name="h" format="1">
  <advance width="559"/>
  <unicode hex="0068"/>
  <outline>
    <contour>
      <point x="360" y="554"/>
      <point x="294" y="512"/>
      <point x="260" y="451" type="curve"/>
      <point x="303" y="764" type="line"/>
      <point x="107" y="744" type="line"/>
      <point x="3" y="0" type="line"/>
      <point x="197" y="0" type="line"/>
      <point x="237" y="278" type="line"/>
      <point x="272" y="353"/>
      <point x="300" y="393"/>
      <point x="324" y="393" type="curve" smooth="yes"/>
      <point x="337" y="393"/>
      <point x="346" y="383"/>
      <point x="340" y="341" type="curve" smooth="yes"/>
      <point x="292" y="0" type="line"/>
      <point x="486" y="0" type="line"/>
      <point x="541" y="393" type="line" smooth="yes"/>
      <point x="555" y="495"/>
      <point x="509" y="554"/>
      <point x="426" y="554" type="curve" smooth="yes"/>
    </contour>
    <contour>
      <point x="279" y="267" type="move" name="center"/>
    </contour>
    <contour>
      <point x="245" y="0" type="move" name="bottom"/>
    </contour>
    <contour>
      <point x="346" y="744" type="move" name="top"/>
    </contour>
  </outline>
</glyph>
<glyph name="k" format="1">
  <advance width="579"/>
  <unicode hex="006B"/>
  <outline>
    <contour>
      <point x="107" y="744" type="line"/>
      <point x="3" y="0" type="line"/>
      <point x="198" y="0" type="line"/>
      <point x="244" y="337" type="line"/>
      <point x="287" y="398"/>
      <point x="323" y="421"/>
      <point x="355" y="421" type="curve" smooth="yes"/>
      <point x="379" y="421"/>
      <point x="393" y="409"/>
      <point x="393" y="385" type="curve" smooth="yes"/>
      <point x="393" y="340"/>
      <point x="364" y="295"/>
      <point x="252" y="256" type="curve"/>
      <point x="330" y="0" type="line"/>
      <point x="542" y="0" type="line"/>
      <point x="456" y="238" type="line"/>
      <point x="546" y="280"/>
      <point x="589" y="341"/>
      <point x="589" y="423" type="curve" smooth="yes"/>
      <point x="589" y="501"/>
      <point x="533" y="554"/>
      <point x="437" y="554" type="curve" smooth="yes"/>
      <point x="374" y="554"/>
      <point x="319" y="533"/>
      <point x="264" y="478" type="curve"/>
      <point x="304" y="764" type="line"/>
    </contour>
    <contour>
      <point x="383" y="744" type="move" name="top"/>
    </contour>
    <contour>
      <point x="263" y="0" type="move" name="bottom"/>
    </contour>
  </outline>
</glyph>
<glyph name="l" format="1">
  <advance width="288"/>
  <unicode hex="006C"/>
  <outline>
    <contour>
      <point x="102" y="744" type="line"/>
      <point x="19" y="152" type="line" smooth="yes"/>
      <point x="3" y="41"/>
      <point x="55" y="-20"/>
      <point x="156" y="-20" type="curve" smooth="yes"/>
      <point x="197" y="-20"/>
      <point x="242" y="-12"/>
      <point x="272" y="1" type="curve"/>
      <point x="254" y="139" type="line"/>
      <point x="247" y="137"/>
      <point x="239" y="135"/>
      <point x="234" y="135" type="curve" smooth="yes"/>
      <point x="221" y="135"/>
      <point x="211" y="142"/>
      <point x="215" y="171" type="curve" smooth="yes"/>
      <point x="298" y="764" type="line"/>
    </contour>
    <contour>
      <point x="144" y="0" type="move" name="bottom"/>
    </contour>
    <contour>
      <point x="199" y="744" type="move" name="top"/>
    </contour>
    <contour>
      <point x="315" y="744" type="move" name="topright"/>
    </contour>
    <contour>
      <point x="395" y="373" type="move" name="center"/>
    </contour>
  </outline>
</glyph>
<glyph name="m" format="1">
  <advance width="821"/>
  <unicode hex="006D"/>
  <outline>
    <contour>
      <point x="347" y="554"/>
      <point x="287" y="518"/>
      <point x="248" y="456" type="curve"/>
      <point x="247" y="534" type="line"/>
      <point x="78" y="534" type="line"/>
      <point x="4" y="0" type="line"/>
      <point x="198" y="0" type="line"/>
      <point x="238" y="281" type="line"/>
      <point x="261" y="354"/>
      <point x="290" y="393"/>
      <point x="311" y="393" type="curve" smooth="yes"/>
      <point x="324" y="393"/>
      <point x="333" y="383"/>
      <point x="327" y="341" type="curve" smooth="yes"/>
      <point x="279" y="0" type="line"/>
      <point x="473" y="0" type="line"/>
      <point x="528" y="393" type="line" smooth="yes"/>
      <point x="542" y="495"/>
      <point x="496" y="554"/>
      <point x="410" y="554" type="curve" smooth="yes"/>
    </contour>
    <contour>
      <point x="608" y="554"/>
      <point x="525" y="489"/>
      <point x="493" y="397" type="curve"/>
      <point x="509" y="275" type="line"/>
      <point x="536" y="352"/>
      <point x="564" y="393"/>
      <point x="588" y="393" type="curve" smooth="yes"/>
      <point x="601" y="393"/>
      <point x="609" y="383"/>
      <point x="603" y="341" type="curve" smooth="yes"/>
      <point x="554" y="0" type="line"/>
      <point x="748" y="0" type="line"/>
      <point x="803" y="393" type="line" smooth="yes"/>
      <point x="817" y="495"/>
      <point x="771" y="554"/>
      <point x="686" y="554" type="curve" smooth="yes"/>
    </contour>
    <contour>
      <point x="456" y="534" type="move" name="top"/>
    </contour>
    <contour>
      <point x="376" y="0" type="move" name="bottom"/>
    </contour>
  </outline>
</glyph>
<glyph name="n" format="1">
  <advance width="560"/>
  <unicode hex="006E"/>
  <outline>
    <contour>
      <point x="359" y="554"/>
      <point x="290" y="511"/>
      <point x="248" y="446" type="curve"/>
      <point x="247" y="534" type="line"/>
      <point x="78" y="534" type="line"/>
      <point x="4" y="0" type="line"/>
      <point x="198" y="0" type="line"/>
      <point x="238" y="278" type="line"/>
      <point x="273" y="353"/>
      <point x="301" y="393"/>
      <point x="325" y="393" type="curve" smooth="yes"/>
      <point x="338" y="393"/>
      <point x="347" y="383"/>
      <point x="341" y="341" type="curve" smooth="yes"/>
      <point x="293" y="0" type="line"/>
      <point x="487" y="0" type="line"/>
      <point x="542" y="393" type="line" smooth="yes"/>
      <point x="556" y="495"/>
      <point x="510" y="554"/>
      <point x="427" y="554" type="curve" smooth="yes"/>
    </contour>
    <contour>
      <point x="322" y="534" type="move" name="top"/>
    </contour>
    <contour>
      <point x="246" y="0" type="move" name="bottom"/>
    </contour>
    <contour>
      <point x="70" y="534" type="move" name="topleft"/>
    </contour>
  </outline>
</glyph>
<glyph name="o" format="1">
  <advance width="572"/>
  <unicode hex="006F"/>
  <outline>
    <contour>
      <point x="89" y="554"/>
      <point x="13" y="370"/>
      <point x="13" y="211" type="curve" smooth="yes"/>
      <point x="13" y="66"/>
      <point x="100" y="-20"/>
      <point x="247" y="-20" type="curve"/>
      <point x="481" y="-20"/>
      <point x="557" y="165"/>
      <point x="558" y="323" type="curve" smooth="yes"/>
      <point x="559" y="465"/>
      <point x="471" y="554"/>
      <point x="323" y="554" type="curve"/>
    </contour>
    <contour>
      <point x="344" y="412"/>
      <point x="361" y="390"/>
      <point x="360" y="333" type="curve" smooth="yes"/>
      <point x="359" y="264"/>
      <point x="348" y="122"/>
      <point x="263" y="122" type="curve" smooth="yes"/>
      <point x="227" y="122"/>
      <point x="211" y="144"/>
      <point x="211" y="201" type="curve" smooth="yes"/>
      <point x="211" y="270"/>
      <point x="222" y="412"/>
      <point x="307" y="412" type="curve"/>
    </contour>
    <contour>
      <point x="314" y="534" type="move" name="top"/>
    </contour>
    <contour>
      <point x="252" y="0" type="move" name="bottom"/>
    </contour>
    <contour>
      <point x="543" y="534" type="move" name="topright"/>
    </contour>
  </outline>
</glyph>
<glyph name="p" format="1">
  <advance width="588"/>
  <unicode hex="0070"/>
  <outline>
    <contour>
      <point x="362" y="554"/>
      <point x="305" y="534"/>
      <point x="252" y="479" type="curve"/>
      <point x="251" y="534" type="line"/>
      <point x="78" y="534" type="line"/>
      <point x="-28" y="-227" type="line"/>
      <point x="166" y="-207" type="line"/>
      <point x="196" y="-6" type="line"/>
      <point x="211" y="-12"/>
      <point x="239" y="-20"/>
      <point x="289" y="-20" type="curve" smooth="yes"/>
      <point x="503" y="-20"/>
      <point x="572" y="191"/>
      <point x="572" y="347" type="curve" smooth="yes"/>
      <point x="572" y="478"/>
      <point x="519" y="554"/>
      <point x="406" y="554" type="curve" smooth="yes"/>
    </contour>
    <contour>
      <point x="352" y="412"/>
      <point x="373" y="400"/>
      <point x="373" y="338" type="curve" smooth="yes"/>
      <point x="373" y="249"/>
      <point x="346" y="121"/>
      <point x="267" y="121" type="curve" smooth="yes"/>
      <point x="246" y="121"/>
      <point x="229" y="126"/>
      <point x="216" y="131" type="curve"/>
      <point x="248" y="360" type="line"/>
      <point x="273" y="396"/>
      <point x="300" y="412"/>
      <point x="327" y="412" type="curve" smooth="yes"/>
    </contour>
    <contour>
      <point x="331" y="534" type="move" name="top"/>
    </contour>
    <contour>
      <point x="232" y="-215" type="move" name="bottom"/>
    </contour>
  </outline>
</glyph>
<glyph name="q" format="1">
  <advance width="574"/>
  <unicode hex="0071"/>
  <outline>
    <contour>
      <point x="97" y="554"/>
      <point x="11" y="363"/>
      <point x="11" y="197" type="curve" smooth="yes"/>
      <point x="11" y="64"/>
      <point x="71" y="-20"/>
      <point x="185" y="-20" type="curve" smooth="yes"/>
      <point x="250" y="-20"/>
      <point x="301" y="16"/>
      <point x="314" y="36" type="curve"/>
      <point x="277" y="-227" type="line"/>
      <point x="472" y="-207" type="line"/>
      <point x="569" y="491" type="line"/>
      <point x="495" y="535"/>
      <point x="408" y="554"/>
      <point x="333" y="554" type="curve" smooth="yes"/>
    </contour>
    <contour>
      <point x="341" y="418"/>
      <point x="352" y="416"/>
      <point x="367" y="412" type="curve"/>
      <point x="333" y="182" type="line"/>
      <point x="309" y="141"/>
      <point x="283" y="122"/>
      <point x="256" y="122" type="curve" smooth="yes"/>
      <point x="233" y="122"/>
      <point x="210" y="132"/>
      <point x="210" y="198" type="curve" smooth="yes"/>
      <point x="210" y="292"/>
      <point x="240" y="418"/>
      <point x="325" y="418" type="curve" smooth="yes"/>
    </contour>
    <contour>
      <point x="333" y="534" type="move" name="top"/>
    </contour>
    <contour>
      <point x="203" y="-215" type="move" name="bottom"/>
    </contour>
  </outline>
</glyph>
<glyph name="r" format="1">
  <advance width="399"/>
  <unicode hex="0072"/>
  <outline>
    <contour>
      <point x="343" y="551"/>
      <point x="282" y="507"/>
      <point x="248" y="439" type="curve"/>
      <point x="247" y="534" type="line"/>
      <point x="78" y="534" type="line"/>
      <point x="4" y="0" type="line"/>
      <point x="198" y="0" type="line"/>
      <point x="230" y="225" type="line"/>
      <point x="254" y="296"/>
      <point x="284" y="359"/>
      <point x="348" y="359" type="curve" smooth="yes"/>
      <point x="364" y="359"/>
      <point x="377" y="356"/>
      <point x="394" y="351" type="curve"/>
      <point x="449" y="542" type="line"/>
      <point x="432" y="548"/>
      <point x="418" y="551"/>
      <point x="396" y="551" type="curve" smooth="yes"/>
    </contour>
    <contour>
      <point x="263" y="534" type="move" name="top"/>
    </contour>
    <contour>
      <point x="101" y="0" type="move" name="bottom"/>
    </contour>
  </outline>
</glyph>
<glyph name="s" format="1">
  <advance width="481"/>
  <unicode hex="0073"/>
  <outline>
    <contour>
      <point x="122" y="554"/>
      <point x="35" y="473"/>
      <point x="35" y="370" type="curve" smooth="yes"/>
      <point x="35" y="287"/>
      <point x="81" y="240"/>
      <point x="167" y="209" type="curve" smooth="yes"/>
      <point x="251" y="179"/>
      <point x="268" y="173"/>
      <point x="268" y="150" type="curve" smooth="yes"/>
      <point x="268" y="125"/>
      <point x="241" y="117"/>
      <point x="209" y="117" type="curve" smooth="yes"/>
      <point x="148" y="117"/>
      <point x="101" y="143"/>
      <point x="67" y="173" type="curve"/>
      <point x="-27" y="74" type="line"/>
      <point x="22" y="18"/>
      <point x="113" y="-20"/>
      <point x="209" y="-20" type="curve" smooth="yes"/>
      <point x="405" y="-20"/>
      <point x="459" y="87"/>
      <point x="459" y="174" type="curve" smooth="yes"/>
      <point x="459" y="258"/>
      <point x="411" y="309"/>
      <point x="327" y="337" type="curve" smooth="yes"/>
      <point x="240" y="366"/>
      <point x="227" y="371"/>
      <point x="227" y="390" type="curve" smooth="yes"/>
      <point x="227" y="406"/>
      <point x="240" y="417"/>
      <point x="277" y="417" type="curve" smooth="yes"/>
      <point x="316" y="417"/>
      <point x="362" y="403"/>
      <point x="399" y="380" type="curve"/>
      <point x="482" y="484" type="line"/>
      <point x="432" y="525"/>
      <point x="358" y="554"/>
      <point x="275" y="554" type="curve" smooth="yes"/>
    </contour>
    <contour>
      <point x="282" y="534" type="move" name="top"/>
    </contour>
    <contour>
      <point x="203" y="0" type="move" name="bottom"/>
    </contour>
  </outline>
</glyph>
<glyph name="t" format="1">
  <advance width="389"/>
  <unicode hex="0074"/>
  <outline>
    <contour>
      <point x="137" y="649" type="line"/>
      <point x="88" y="474" type="line"/>
      <point x="49" y="198" type="line" smooth="yes"/>
      <point x="30" y="57"/>
      <point x="79" y="-19"/>
      <point x="211" y="-20" type="curve" smooth="yes"/>
      <point x="259" y="-20"/>
      <point x="325" y="-6"/>
      <point x="373" y="22" type="curve"/>
      <point x="325" y="149" type="line"/>
      <point x="307" y="139"/>
      <point x="289" y="135"/>
      <point x="273" y="135" type="curve" smooth="yes"/>
      <point x="250" y="135"/>
      <point x="237" y="148"/>
      <point x="244" y="198" type="curve" smooth="yes"/>
      <point x="309" y="669" type="line"/>
    </contour>
    <contour>
      <point x="33" y="534" type="line"/>
      <point x="15" y="400" type="line"/>
      <point x="370" y="400" type="line"/>
      <point x="408" y="534" type="line"/>
    </contour>
    <contour>
      <point x="190" y="0" type="move" name="bottom"/>
    </contour>
    <contour>
      <point x="221" y="649" type="move" name="top"/>
    </contour>
    <contour>
      <point x="334" y="809" type="move" name="topright"/>
    </contour>
    <contour>
      <point x="192" y="267" type="move" name="center"/>
    </contour>
  </outline>
</glyph>
<glyph name="u" format="1">
  <advance width="554"/>
  <unicode hex="0075"/>
  <outline>
    <contour>
      <point x="356" y="534" type="line"/>
      <point x="309" y="201" type="line"/>
      <point x="287" y="163"/>
      <point x="262" y="138"/>
      <point x="242" y="138" type="curve" smooth="yes"/>
      <point x="225" y="138"/>
      <point x="214" y="147"/>
      <point x="220" y="189" type="curve" smooth="yes"/>
      <point x="267" y="534" type="line"/>
      <point x="73" y="534" type="line"/>
      <point x="19" y="151" type="line" smooth="yes"/>
      <point x="5" y="49"/>
      <point x="41" y="-20"/>
      <point x="144" y="-20" type="curve" smooth="yes"/>
      <point x="208" y="-20"/>
      <point x="265" y="15"/>
      <point x="309" y="67" type="curve"/>
      <point x="307" y="0" type="line"/>
      <point x="476" y="0" type="line"/>
      <point x="550" y="534" type="line"/>
    </contour>
    <contour>
      <point x="484" y="0" type="move" name="ogonek"/>
    </contour>
    <contour>
      <point x="312" y="534" type="move" name="top"/>
    </contour>
    <contour>
      <point x="560" y="534" type="move" name="topright"/>
    </contour>
    <contour>
      <point x="486" y="0" type="move" name="bottomright"/>
    </contour>
    <contour>
      <point x="251" y="0" type="move" name="bottom"/>
    </contour>
  </outline>
</glyph>
<glyph name="v" format="1">
  <advance width="514"/>
  <unicode hex="0076"/>
  <outline>
    <contour>
      <point x="365" y="534" type="line"/>
      <point x="244" y="143" type="line"/>
      <point x="229" y="534" type="line"/>
      <point x="21" y="534" type="line"/>
      <point x="107" y="0" type="line"/>
      <point x="340" y="0" type="line"/>
      <point x="567" y="534" type="line"/>
    </contour>
    <contour>
      <point x="297" y="534" type="move" name="top"/>
    </contour>
    <contour>
      <point x="224" y="0" type="move" name="bottom"/>
    </contour>
  </outline>
</glyph>
<glyph name="w" format="1">
  <advance width="756"/>
  <unicode hex="0077"/>
  <outline>
    <contour>
      <point x="610" y="534" type="line"/>
      <point x="513" y="151" type="line"/>
      <point x="511" y="534" type="line"/>
      <point x="330" y="534" type="line"/>
      <point x="208" y="151" type="line"/>
      <point x="230" y="534" type="line"/>
      <point x="34" y="534" type="line"/>
      <point x="65" y="0" type="line"/>
      <point x="288" y="0" type="line"/>
      <point x="392" y="358" type="line"/>
      <point x="399" y="0" type="line"/>
      <point x="619" y="0" type="line"/>
      <point x="796" y="534" type="line"/>
    </contour>
    <contour>
      <point x="415" y="534" type="move" name="top"/>
    </contour>
    <contour>
      <point x="344" y="0" type="move" name="bottom"/>
    </contour>
  </outline>
</glyph>
<glyph name="x" format="1">
  <advance width="518"/>
  <unicode hex="0078"/>
  <outline>
    <contour>
      <point x="30" y="534" type="line"/>
      <point x="141" y="283" type="line"/>
      <point x="242" y="178" type="line"/>
      <point x="286" y="0" type="line"/>
      <point x="499" y="0" type="line"/>
      <point x="379" y="282" type="line"/>
      <point x="273" y="377" type="line"/>
      <point x="244" y="534" type="line"/>
    </contour>
    <contour>
      <point x="341" y="534" type="line"/>
      <point x="273" y="377" type="line"/>
      <point x="141" y="283" type="line"/>
      <point x="-57" y="0" type="line"/>
      <point x="151" y="0" type="line"/>
      <point x="242" y="178" type="line"/>
      <point x="379" y="282" type="line"/>
      <point x="545" y="534" type="line"/>
    </contour>
    <contour>
      <point x="292" y="534" type="move" name="top"/>
    </contour>
    <contour>
      <point x="219" y="0" type="move" name="bottom"/>
    </contour>
    <contour>
      <point x="431" y="0" type="move" name="bottomright"/>
    </contour>
  </outline>
</glyph>
<glyph name="y" format="1">
  <advance width="520"/>
  <unicode hex="0079"/>
  <outline>
    <contour>
      <point x="370" y="534" type="line"/>
      <point x="234" y="122" type="line"/>
      <point x="223" y="534" type="line"/>
      <point x="21" y="534" type="line"/>
      <point x="96" y="0" type="line"/>
      <point x="165" y="1" type="line"/>
      <point x="127" y="-59"/>
      <point x="80" y="-83"/>
      <point x="-22" y="-93" type="curve"/>
      <point x="-18" y="-228" type="line"/>
      <point x="158" y="-223"/>
      <point x="280" y="-148"/>
      <point x="344" y="0" type="curve" smooth="yes"/>
      <point x="573" y="534" type="line"/>
    </contour>
    <contour>
      <point x="297" y="534" type="move" name="top"/>
    </contour>
    <contour>
      <point x="204" y="-215" type="move" name="bottom"/>
    </contour>
  </outline>
</glyph>
<glyph name="z" format="1">
  <advance width="460"/>
  <unicode hex="007A"/>
  <outline>
    <contour>
      <point x="60" y="534" type="line"/>
      <point x="40" y="390" type="line"/>
      <point x="222" y="390" type="line"/>
      <point x="-16" y="138" type="line"/>
      <point x="-34" y="0" type="line"/>
      <point x="398" y="0" type="line"/>
      <point x="435" y="146" type="line"/>
      <point x="229" y="146" type="line"/>
      <point x="464" y="397" type="line"/>
      <point x="482" y="534" type="line"/>
    </contour>
    <contour>
      <point x="271" y="534" type="move" name="top"/>
    </contour>
    <contour>
      <point x="182" y="0" type="move" name="bottom"/>
    </contour>
  </outline>
</glyph>
<glyph name="braceleft" format="1">
  <advance width="313"/>
  <unicode hex="007B"/>
  <outline>
    <contour>
      <point x="177" y="842"/>
      <point x="130" y="780"/>
      <point x="114" y="669" type="curve" smooth="yes"/>
      <point x="93" y="516" type="line" smooth="yes"/>
      <point x="85" y="456"/>
      <point x="69" y="431"/>
      <point x="19" y="431" type="curve"/>
      <point x="-4" y="269" type="line"/>
      <point x="48" y="269"/>
      <point x="55" y="246"/>
      <point x="46" y="186" type="curve" smooth="yes"/>
      <point x="25" y="33" type="line" smooth="yes"/>
      <point x="10" y="-77"/>
      <point x="62" y="-142"/>
      <point x="245" y="-142" type="curve"/>
      <point x="261" y="-8" type="line"/>
      <point x="208" y="-8"/>
      <point x="203" y="6"/>
      <point x="208" y="45" type="curve" smooth="yes"/>
      <point x="230" y="199" type="line" smooth="yes"/>
      <point x="245" y="305"/>
      <point x="201" y="336"/>
      <point x="132" y="348" type="curve"/>
      <point x="209" y="366"/>
      <point x="257" y="400"/>
      <point x="271" y="499" type="curve" smooth="yes"/>
      <point x="292" y="653" type="line" smooth="yes"/>
      <point x="298" y="692"/>
      <point x="309" y="708"/>
      <point x="363" y="708" type="curve"/>
      <point x="381" y="842" type="line"/>
    </contour>
  </outline>
</glyph>
<glyph name="bar" format="1">
  <advance width="348"/>
  <unicode hex="007C"/>
  <outline>
    <contour>
      <point x="159" y="812" type="line"/>
      <point x="31" y="-107" type="line"/>
      <point x="213" y="-107" type="line"/>
      <point x="341" y="812" type="line"/>
    </contour>
  </outline>
</glyph>
<glyph name="braceright" format="1">
  <advance width="314"/>
  <unicode hex="007D"/>
  <outline>
    <contour>
      <point x="160" y="-142"/>
      <point x="207" y="-80"/>
      <point x="223" y="31" type="curve" smooth="yes"/>
      <point x="244" y="184" type="line" smooth="yes"/>
      <point x="252" y="244"/>
      <point x="268" y="269"/>
      <point x="318" y="269" type="curve"/>
      <point x="341" y="431" type="line"/>
      <point x="289" y="431"/>
      <point x="282" y="454"/>
      <point x="291" y="514" type="curve" smooth="yes"/>
      <point x="312" y="667" type="line" smooth="yes"/>
      <point x="327" y="777"/>
      <point x="275" y="842"/>
      <point x="92" y="842" type="curve"/>
      <point x="76" y="708" type="line"/>
      <point x="129" y="708"/>
      <point x="134" y="694"/>
      <point x="129" y="655" type="curve" smooth="yes"/>
      <point x="107" y="501" type="line" smooth="yes"/>
      <point x="92" y="395"/>
      <point x="136" y="364"/>
      <point x="205" y="352" type="curve"/>
      <point x="128" y="334"/>
      <point x="80" y="300"/>
      <point x="66" y="201" type="curve" smooth="yes"/>
      <point x="45" y="47" type="line" smooth="yes"/>
      <point x="39" y="8"/>
      <point x="28" y="-8"/>
      <point x="-26" y="-8" type="curve"/>
      <point x="-44" y="-142" type="line"/>
    </contour>
  </outline>
</glyph>
<glyph name="asciitilde" format="1">
  <advance width="518"/>
  <unicode hex="007E"/>
  <outline>
    <contour>
      <point x="109" y="426"/>
      <point x="51" y="356"/>
      <point x="6" y="282" type="curve"/>
      <point x="100" y="225" type="line"/>
      <point x="120" y="256"/>
      <point x="135" y="281"/>
      <point x="172" y="281" type="curve" smooth="yes"/>
      <point x="223" y="281"/>
      <point x="241" y="221"/>
      <point x="337" y="221" type="curve" smooth="yes"/>
      <point x="425" y="221"/>
      <point x="483" y="291"/>
      <point x="528" y="365" type="curve"/>
      <point x="433" y="422" type="line"/>
      <point x="413" y="391"/>
      <point x="397" y="366"/>
      <point x="360" y="366" type="curve" smooth="yes"/>
      <point x="309" y="366"/>
      <point x="293" y="426"/>
      <point x="197" y="426" type="curve" smooth="yes"/>
    </contour>
  </outline>
</glyph>
<glyph name="exclamdown" format="1">
  <advance width="225"/>
  <unicode hex="00A1"/>
  <outline>
    <contour>
      <point x="33" y="228" type="line"/>
      <point x="-55" y="-207" type="line"/>
      <point x="149" y="-207" type="line"/>
      <point x="185" y="228" type="line"/>
    </contour>
    <component base="period" xOffset="43" yOffset="332"/>
  </outline>
</glyph>
<glyph name="cent" format="1">
  <advance width="469"/>
  <unicode hex="00A2"/>
  <outline>
    <contour>
      <point x="265" y="696" type="line"/>
      <point x="242" y="535" type="line"/>
      <point x="374" y="538" type="line"/>
      <point x="396" y="696" type="line"/>
    </contour>
    <contour>
      <point x="143" y="-165" type="line"/>
      <point x="276" y="-165" type="line"/>
      <point x="299" y="-5" type="line"/>
      <point x="167" y="-1" type="line"/>
    </contour>
    <component base="c"/>
  </outline>
</glyph>
<glyph name="sterling" format="1">
  <advance width="554"/>
  <unicode hex="00A3"/>
  <outline>
    <contour>
      <point x="231" y="696"/>
      <point x="149" y="614"/>
      <point x="132" y="487" type="curve" smooth="yes"/>
      <point x="120" y="399" type="line"/>
      <point x="53" y="399" type="line"/>
      <point x="39" y="304" type="line"/>
      <point x="107" y="304" type="line"/>
      <point x="99" y="251" type="line" smooth="yes"/>
      <point x="93" y="198"/>
      <point x="84" y="160"/>
      <point x="1" y="139" type="curve"/>
      <point x="-18" y="0" type="line"/>
      <point x="462" y="0" type="line"/>
      <point x="504" y="146" type="line"/>
      <point x="211" y="145" type="line"/>
      <point x="269" y="175"/>
      <point x="284" y="212"/>
      <point x="292" y="262" type="curve" smooth="yes"/>
      <point x="298" y="304" type="line"/>
      <point x="464" y="304" type="line"/>
      <point x="478" y="399" type="line"/>
      <point x="311" y="399" type="line"/>
      <point x="322" y="483" type="line" smooth="yes"/>
      <point x="328" y="531"/>
      <point x="348" y="552"/>
      <point x="392" y="552" type="curve" smooth="yes"/>
      <point x="422" y="552"/>
      <point x="442" y="543"/>
      <point x="460" y="505" type="curve"/>
      <point x="584" y="586" type="line"/>
      <point x="543" y="658"/>
      <point x="478" y="696"/>
      <point x="380" y="696" type="curve" smooth="yes"/>
    </contour>
  </outline>
</glyph>
<glyph name="currency" format="1">
  <advance width="560"/>
  <unicode hex="00A4"/>
  <outline>
    <contour>
      <point x="151" y="564"/>
      <point x="55" y="467"/>
      <point x="55" y="342" type="curve" smooth="yes"/>
      <point x="55" y="216"/>
      <point x="151" y="120"/>
      <point x="281" y="120" type="curve" smooth="yes"/>
      <point x="411" y="120"/>
      <point x="507" y="216"/>
      <point x="507" y="342" type="curve" smooth="yes"/>
      <point x="507" y="467"/>
      <point x="411" y="564"/>
      <point x="281" y="564" type="curve" smooth="yes"/>
    </contour>
    <contour>
      <point x="10" y="151" type="line"/>
      <point x="89" y="72" type="line"/>
      <point x="177" y="156" type="line"/>
      <point x="97" y="237" type="line"/>
    </contour>
    <contour>
      <point x="386" y="156" type="line"/>
      <point x="472" y="72" type="line"/>
      <point x="551" y="151" type="line"/>
      <point x="465" y="236" type="line"/>
    </contour>
    <contour>
      <point x="10" y="534" type="line"/>
      <point x="95" y="447" type="line"/>
      <point x="177" y="526" type="line"/>
      <point x="89" y="613" type="line"/>
    </contour>
    <contour>
      <point x="386" y="526" type="line"/>
      <point x="466" y="448" type="line"/>
      <point x="551" y="534" type="line"/>
      <point x="472" y="613" type="line"/>
    </contour>
    <contour>
      <point x="335" y="435"/>
      <point x="362" y="401"/>
      <point x="362" y="342" type="curve" smooth="yes"/>
      <point x="362" y="282"/>
      <point x="335" y="247"/>
      <point x="281" y="247" type="curve" smooth="yes"/>
      <point x="226" y="247"/>
      <point x="198" y="282"/>
      <point x="198" y="342" type="curve" smooth="yes"/>
      <point x="198" y="401"/>
      <point x="226" y="435"/>
      <point x="281" y="435" type="curve" smooth="yes"/>
    </contour>
  </outline>
</glyph>
<glyph name="yen" format="1">
  <advance width="576"/>
  <unicode hex="00A5"/>
  <outline>
    <contour>
      <point x="446" y="680" type="line"/>
      <point x="308" y="407" type="line"/>
      <point x="243" y="680" type="line"/>
      <point x="43" y="680" type="line"/>
      <point x="194" y="277" type="line"/>
      <point x="156" y="0" type="line"/>
      <point x="348" y="0" type="line"/>
      <point x="387" y="277" type="line"/>
      <point x="649" y="680" type="line"/>
    </contour>
    <contour>
      <point x="58" y="201" type="line"/>
      <point x="44" y="106" type="line"/>
      <point x="490" y="106" type="line"/>
      <point x="504" y="201" type="line"/>
    </contour>
    <contour>
      <point x="79" y="356" type="line"/>
      <point x="66" y="261" type="line"/>
      <point x="512" y="261" type="line"/>
      <point x="525" y="356" type="line"/>
    </contour>
  </outline>
</glyph>
<glyph name="brokenbar" format="1">
  <advance width="348"/>
  <unicode hex="00A6"/>
  <outline>
    <contour>
      <point x="159" y="812" type="line"/>
      <point x="107" y="443" type="line"/>
      <point x="290" y="443" type="line"/>
      <point x="341" y="812" type="line"/>
    </contour>
    <contour>
      <point x="82" y="262" type="line"/>
      <point x="31" y="-107" type="line"/>
      <point x="213" y="-107" type="line"/>
      <point x="265" y="262" type="line"/>
    </contour>
  </outline>
</glyph>
<glyph name="section" format="1">
  <advance width="548"/>
  <unicode hex="00A7"/>
  <outline>
    <contour>
      <point x="190" y="696"/>
      <point x="100" y="626"/>
      <point x="100" y="522" type="curve" smooth="yes"/>
      <point x="100" y="455"/>
      <point x="143" y="395"/>
      <point x="277" y="350" type="curve" smooth="yes"/>
      <point x="329" y="333"/>
      <point x="347" y="313"/>
      <point x="347" y="291" type="curve" smooth="yes"/>
      <point x="347" y="270"/>
      <point x="332" y="247"/>
      <point x="311" y="225" type="curve"/>
      <point x="408" y="180" type="line"/>
      <point x="468" y="210"/>
      <point x="516" y="253"/>
      <point x="516" y="329" type="curve" smooth="yes"/>
      <point x="516" y="409"/>
      <point x="462" y="445"/>
      <point x="385" y="468" type="curve" smooth="yes"/>
      <point x="301" y="495"/>
      <point x="285" y="505"/>
      <point x="285" y="527" type="curve" smooth="yes"/>
      <point x="285" y="549"/>
      <point x="302" y="564"/>
      <point x="350" y="564" type="curve" smooth="yes"/>
      <point x="388" y="564"/>
      <point x="432" y="552"/>
      <point x="470" y="526" type="curve"/>
      <point x="548" y="632" type="line"/>
      <point x="497" y="668"/>
      <point x="419" y="696"/>
      <point x="342" y="696" type="curve" smooth="yes"/>
    </contour>
    <contour>
      <point x="97" y="393"/>
      <point x="42" y="351"/>
      <point x="42" y="278" type="curve" smooth="yes"/>
      <point x="42" y="200"/>
      <point x="95" y="163"/>
      <point x="172" y="140" type="curve" smooth="yes"/>
      <point x="258" y="111"/>
      <point x="274" y="101"/>
      <point x="274" y="77" type="curve" smooth="yes"/>
      <point x="274" y="56"/>
      <point x="259" y="41"/>
      <point x="202" y="41" type="curve" smooth="yes"/>
      <point x="162" y="41"/>
      <point x="122" y="56"/>
      <point x="82" y="83" type="curve"/>
      <point x="8" y="-28" type="line"/>
      <point x="55" y="-63"/>
      <point x="125" y="-91"/>
      <point x="208" y="-91" type="curve" smooth="yes"/>
      <point x="392" y="-91"/>
      <point x="459" y="-5"/>
      <point x="459" y="84" type="curve" smooth="yes"/>
      <point x="459" y="159"/>
      <point x="405" y="202"/>
      <point x="266" y="258" type="curve" smooth="yes"/>
      <point x="225" y="275"/>
      <point x="212" y="295"/>
      <point x="212" y="315" type="curve" smooth="yes"/>
      <point x="212" y="333"/>
      <point x="220" y="356"/>
      <point x="245" y="382" type="curve"/>
      <point x="154" y="423" type="line"/>
    </contour>
  </outline>
</glyph>
<glyph name="dieresis" format="1">
  <advance width="488"/>
  <unicode hex="00A8"/>
  <outline>
    <contour>
      <point x="387" y="818"/>
      <point x="342" y="778"/>
      <point x="335" y="729" type="curve" smooth="yes"/>
      <point x="328" y="675"/>
      <point x="366" y="633"/>
      <point x="418" y="633" type="curve" smooth="yes"/>
      <point x="473" y="633"/>
      <point x="515" y="673"/>
      <point x="522" y="723" type="curve" smooth="yes"/>
      <point x="530" y="776"/>
      <point x="494" y="818"/>
      <point x="440" y="818" type="curve" smooth="yes"/>
    </contour>
    <contour>
      <point x="146" y="818"/>
      <point x="102" y="778"/>
      <point x="95" y="729" type="curve" smooth="yes"/>
      <point x="88" y="675"/>
      <point x="125" y="633"/>
      <point x="177" y="633" type="curve" smooth="yes"/>
      <point x="232" y="633"/>
      <point x="275" y="673"/>
      <point x="282" y="723" type="curve" smooth="yes"/>
      <point x="290" y="776"/>
      <point x="253" y="818"/>
      <point x="199" y="818" type="curve" smooth="yes"/>
    </contour>
  </outline>
</glyph>
<glyph name="ordfeminine" format="1">
  <advance width="488"/>
  <unicode hex="00AA"/>
  <outline>
    <contour>
      <point x="244" y="696"/>
      <point x="175" y="684"/>
      <point x="119" y="663" type="curve"/>
      <point x="142" y="555" type="line"/>
      <point x="186" y="568"/>
      <point x="229" y="576"/>
      <point x="253" y="576" type="curve" smooth="yes"/>
      <point x="289" y="576"/>
      <point x="303" y="572"/>
      <point x="303" y="552" type="curve" smooth="yes"/>
      <point x="303" y="547"/>
      <point x="302" y="541"/>
      <point x="301" y="534" type="curve" smooth="yes"/>
      <point x="300" y="530" type="line"/>
      <point x="276" y="530" type="line" smooth="yes"/>
      <point x="103" y="530"/>
      <point x="50" y="458"/>
      <point x="50" y="381" type="curve" smooth="yes"/>
      <point x="50" y="315"/>
      <point x="96" y="260"/>
      <point x="174" y="260" type="curve" smooth="yes"/>
      <point x="221" y="260"/>
      <point x="271" y="274"/>
      <point x="308" y="318" type="curve"/>
      <point x="332" y="282"/>
      <point x="367" y="267"/>
      <point x="420" y="264" type="curve"/>
      <point x="468" y="374" type="line"/>
      <point x="445" y="382"/>
      <point x="447" y="398"/>
      <point x="450" y="417" type="curve" smooth="yes"/>
      <point x="467" y="534" type="line" smooth="yes"/>
      <point x="469" y="547"/>
      <point x="470" y="563"/>
      <point x="470" y="573" type="curve" smooth="yes"/>
      <point x="470" y="656"/>
      <point x="416" y="696"/>
      <point x="291" y="696" type="curve" smooth="yes"/>
    </contour>
    <contour>
      <point x="282" y="395" type="line"/>
      <point x="274" y="388"/>
      <point x="260" y="381"/>
      <point x="245" y="381" type="curve" smooth="yes"/>
      <point x="230" y="381"/>
      <point x="225" y="389"/>
      <point x="225" y="402" type="curve" smooth="yes"/>
      <point x="225" y="433"/>
      <point x="244" y="442"/>
      <point x="281" y="442" type="curve" smooth="yes"/>
      <point x="289" y="442" type="line"/>
    </contour>
    <component base="minus" xOffset="-42" yOffset="-257" xScale="0.95"/>
  </outline>
</glyph>
<glyph name="logicalnot" format="1">
  <advance width="536"/>
  <unicode hex="00AC"/>
  <outline>
    <contour>
      <point x="58" y="407" type="line"/>
      <point x="37" y="257" type="line"/>
      <point x="341" y="257" type="line"/>
      <point x="318" y="97" type="line"/>
      <point x="474" y="97" type="line"/>
      <point x="518" y="407" type="line"/>
    </contour>
  </outline>
</glyph>
<glyph name="registered" format="1">
  <advance width="635"/>
  <unicode hex="00AE"/>
  <outline>
    <contour>
      <point x="153" y="764"/>
      <point x="30" y="643"/>
      <point x="30" y="479" type="curve" smooth="yes"/>
      <point x="30" y="316"/>
      <point x="153" y="196"/>
      <point x="319" y="196" type="curve" smooth="yes"/>
      <point x="484" y="196"/>
      <point x="605" y="316"/>
      <point x="605" y="479" type="curve" smooth="yes"/>
      <point x="605" y="643"/>
      <point x="484" y="764"/>
      <point x="319" y="764" type="curve" smooth="yes"/>
    </contour>
    <contour>
      <point x="299" y="462" type="line"/>
      <point x="363" y="347" type="line"/>
      <point x="454" y="347" type="line"/>
      <point x="373" y="479" type="line"/>
    </contour>
    <contour>
      <point x="433" y="686"/>
      <point x="513" y="598"/>
      <point x="513" y="479" type="curve" smooth="yes"/>
      <point x="513" y="360"/>
      <point x="433" y="274"/>
      <point x="319" y="274" type="curve" smooth="yes"/>
      <point x="204" y="274"/>
      <point x="122" y="360"/>
      <point x="122" y="479" type="curve" smooth="yes"/>
      <point x="122" y="598"/>
      <point x="204" y="686"/>
      <point x="319" y="686" type="curve" smooth="yes"/>
    </contour>
    <contour>
      <point x="207" y="633" type="line"/>
      <point x="207" y="347" type="line"/>
      <point x="287" y="347" type="line"/>
      <point x="287" y="574" type="line"/>
      <point x="315" y="574" type="line" smooth="yes"/>
      <point x="338" y="574"/>
      <point x="353" y="565"/>
      <point x="353" y="546" type="curve" smooth="yes"/>
      <point x="353" y="523"/>
      <point x="336" y="514"/>
      <point x="316" y="514" type="curve" smooth="yes"/>
      <point x="271" y="514" type="line"/>
      <point x="271" y="448" type="line"/>
      <point x="323" y="448" type="line"/>
      <point x="365" y="459" type="line"/>
      <point x="405" y="472"/>
      <point x="435" y="501"/>
      <point x="435" y="543" type="curve" smooth="yes"/>
      <point x="435" y="605"/>
      <point x="387" y="633"/>
      <point x="295" y="633" type="curve" smooth="yes"/>
    </contour>
  </outline>
</glyph>
<glyph name="macron" format="1">
  <advance width="380"/>
  <unicode hex="00AF"/>
  <outline>
    <contour>
      <point x="422" y="782" type="line"/>
      <point x="103" y="782" type="line"/>
      <point x="84" y="648" type="line"/>
      <point x="403" y="648" type="line"/>
    </contour>
    <contour>
      <point x="252" y="750" type="move" name="top"/>
    </contour>
    <contour>
      <point x="228" y="534" type="move" name="_top"/>
    </contour>
  </outline>
</glyph>
<glyph name="degree" format="1">
  <advance width="507"/>
  <unicode hex="00B0"/>
  <outline>
    <contour>
      <point x="200" y="473"/>
      <point x="186" y="503"/>
      <point x="191" y="538" type="curve" smooth="yes"/>
      <point x="197" y="577"/>
      <point x="221" y="608"/>
      <point x="261" y="608" type="curve" smooth="yes"/>
      <point x="299" y="608"/>
      <point x="313" y="579"/>
      <point x="308" y="544" type="curve" smooth="yes"/>
      <point x="302" y="505"/>
      <point x="278" y="473"/>
      <point x="238" y="473" type="curve" smooth="yes"/>
    </contour>
    <contour>
      <point x="314" y="362"/>
      <point x="417" y="430"/>
      <point x="432" y="538" type="curve" smooth="yes"/>
      <point x="447" y="650"/>
      <point x="362" y="716"/>
      <point x="272" y="716" type="curve" smooth="yes"/>
      <point x="184" y="716"/>
      <point x="81" y="652"/>
      <point x="67" y="544" type="curve" smooth="yes"/>
      <point x="51" y="432"/>
      <point x="136" y="362"/>
      <point x="226" y="362" type="curve" smooth="yes"/>
    </contour>
  </outline>
</glyph>
<glyph name="acute" format="1">
  <advance width="358"/>
  <unicode hex="00B4"/>
  <outline>
    <contour>
      <point x="93" y="712" type="line"/>
      <point x="131" y="613" type="line"/>
      <point x="391" y="712" type="line"/>
      <point x="337" y="856" type="line"/>
    </contour>
  </outline>
</glyph>
<glyph name="paragraph" format="1">
  <advance width="808"/>
  <unicode hex="00B6"/>
  <outline>
    <contour>
      <point x="388" y="696" type="line"/>
      <point x="349" y="662" type="line"/>
      <point x="225" y="-228" type="line"/>
      <point x="395" y="-207" type="line"/>
      <point x="503" y="563" type="line"/>
      <point x="580" y="563" type="line"/>
      <point x="470" y="-228" type="line"/>
      <point x="640" y="-207" type="line"/>
      <point x="767" y="696" type="line"/>
    </contour>
    <contour>
      <point x="207" y="703"/>
      <point x="99" y="611"/>
      <point x="79" y="476" type="curve" smooth="yes"/>
      <point x="61" y="339"/>
      <point x="141" y="246"/>
      <point x="312" y="252" type="curve"/>
      <point x="387" y="696" type="line"/>
    </contour>
  </outline>
</glyph>
<glyph name="cedilla" format="1">
  <advance width="344"/>
  <unicode hex="00B8"/>
  <outline>
    <contour>
      <point x="67" y="16" type="line"/>
      <point x="33" y="-120" type="line"/>
      <point x="96" y="-120"/>
      <point x="122" y="-126"/>
      <point x="121" y="-146" type="curve" smooth="yes"/>
      <point x="120" y="-166"/>
      <point x="100" y="-173"/>
      <point x="72" y="-173" type="curve" smooth="yes"/>
      <point x="49" y="-173"/>
      <point x="31" y="-167"/>
      <point x="12" y="-156" type="curve"/>
      <point x="-41" y="-240" type="line"/>
      <point x="-15" y="-258"/>
      <point x="26" y="-275"/>
      <point x="78" y="-275" type="curve" smooth="yes"/>
      <point x="215" y="-275"/>
      <point x="256" y="-193"/>
      <point x="256" y="-139" type="curve" smooth="yes"/>
      <point x="256" y="-85"/>
      <point x="223" y="-51"/>
      <point x="160" y="-43" type="curve"/>
      <point x="170" y="16" type="line"/>
    </contour>
  </outline>
</glyph>
<glyph name="ordmasculine" format="1">
  <advance width="488"/>
  <unicode hex="00BA"/>
  <outline>
    <contour>
      <point x="105" y="696"/>
      <point x="50" y="545"/>
      <point x="50" y="437" type="curve" smooth="yes"/>
      <point x="50" y="321"/>
      <point x="131" y="260"/>
      <point x="251" y="260" type="curve" smooth="yes"/>
      <point x="443" y="260"/>
      <point x="498" y="413"/>
      <point x="498" y="517" type="curve" smooth="yes"/>
      <point x="498" y="635"/>
      <point x="417" y="696"/>
      <point x="296" y="696" type="curve"/>
    </contour>
    <contour>
      <point x="313" y="574"/>
      <point x="325" y="561"/>
      <point x="325" y="525" type="curve" smooth="yes"/>
      <point x="325" y="475"/>
      <point x="318" y="382"/>
      <point x="259" y="382" type="curve"/>
      <point x="234" y="382"/>
      <point x="223" y="396"/>
      <point x="223" y="433" type="curve" smooth="yes"/>
      <point x="223" y="483"/>
      <point x="230" y="574"/>
      <point x="289" y="574" type="curve"/>
    </contour>
    <component base="minus" xOffset="-52" yOffset="-257"/>
  </outline>
</glyph>
<glyph name="questiondown" format="1">
  <advance width="482"/>
  <unicode hex="00BF"/>
  <outline>
    <contour>
      <point x="279" y="-227"/>
      <point x="361" y="-182"/>
      <point x="425" y="-116" type="curve"/>
      <point x="318" y="-18" type="line"/>
      <point x="279" y="-53"/>
      <point x="242" y="-73"/>
      <point x="207" y="-73" type="curve" smooth="yes"/>
      <point x="178" y="-73"/>
      <point x="164" y="-62"/>
      <point x="164" y="-43" type="curve" smooth="yes"/>
      <point x="164" y="41"/>
      <point x="352" y="33"/>
      <point x="352" y="200" type="curve" smooth="yes"/>
      <point x="352" y="216"/>
      <point x="350" y="232"/>
      <point x="346" y="248" type="curve"/>
      <point x="175" y="223" type="line"/>
      <point x="176" y="218"/>
      <point x="177" y="210"/>
      <point x="177" y="205" type="curve" smooth="yes"/>
      <point x="176" y="95"/>
      <point x="-43" y="123"/>
      <point x="-43" y="-75" type="curve"/>
      <point x="-43" y="-159"/>
      <point x="25" y="-227"/>
      <point x="167" y="-227" type="curve" smooth="yes"/>
    </contour>
    <component base="period" xOffset="361" yOffset="489" xScale="-1" yScale="-1"/>
  </outline>
</glyph>
<glyph name="AE" format="1">
  <advance width="847"/>
  <unicode hex="00C6"/>
  <outline>
    <contour>
      <point x="288" y="696" type="line"/>
      <point x="-64" y="0" type="line"/>
      <point x="155" y="0" type="line"/>
      <point x="397" y="549" type="line"/>
      <point x="401" y="0" type="line"/>
      <point x="791" y="0" type="line"/>
      <point x="811" y="144" type="line"/>
      <point x="583" y="144" type="line"/>
      <point x="571" y="553" type="line"/>
      <point x="814" y="553" type="line"/>
      <point x="854" y="696" type="line"/>
    </contour>
    <contour>
      <point x="261" y="279" type="line"/>
      <point x="198" y="135" type="line"/>
      <point x="408" y="135" type="line"/>
      <point x="409" y="279" type="line"/>
    </contour>
    <contour>
      <point x="558" y="421" type="line"/>
      <point x="565" y="282" type="line"/>
      <point x="788" y="282" type="line"/>
      <point x="806" y="421" type="line"/>
    </contour>
    <contour>
      <point x="541" y="696" type="move" name="top"/>
    </contour>
    <contour>
      <point x="386" y="0" type="move" name="bottom"/>
    </contour>
  </outline>
</glyph>
<glyph name="Eth" format="1">
  <advance width="654"/>
  <unicode hex="00D0"/>
  <outline>
    <contour>
      <point x="78" y="411" type="line"/>
      <point x="30" y="411" type="line"/>
      <point x="14" y="295" type="line"/>
      <point x="382" y="295" type="line"/>
      <point x="398" y="411" type="line"/>
    </contour>
    <component base="D" xOffset="9"/>
  </outline>
</glyph>
<glyph name="multiply" format="1">
  <advance width="518"/>
  <unicode hex="00D7"/>
  <outline>
    <contour>
      <point x="278" y="409" type="line"/>
      <point x="183" y="525" type="line"/>
      <point x="65" y="419" type="line"/>
      <point x="163" y="306" type="line"/>
      <point x="33" y="193" type="line"/>
      <point x="124" y="87" type="line"/>
      <point x="251" y="203" type="line"/>
      <point x="346" y="87" type="line"/>
      <point x="463" y="193" type="line"/>
      <point x="365" y="306" type="line"/>
      <point x="495" y="419" type="line"/>
      <point x="405" y="525" type="line"/>
    </contour>
  </outline>
</glyph>
<glyph name="Oslash" format="1">
  <advance width="678"/>
  <unicode hex="00D8"/>
  <outline>
    <contour>
      <point x="436" y="709" type="line"/>
      <point x="407" y="590" type="line"/>
      <point x="229" y="180" type="line"/>
      <point x="125" y="33" type="line"/>
      <point x="65" y="-99" type="line"/>
      <point x="208" y="-139" type="line"/>
      <point x="264" y="-12" type="line"/>
      <point x="299" y="112" type="line"/>
      <point x="480" y="532" type="line"/>
      <point x="576" y="664" type="line"/>
      <point x="635" y="793" type="line"/>
      <point x="493" y="833" type="line"/>
    </contour>
    <contour>
      <point x="112" y="716"/>
      <point x="25" y="458"/>
      <point x="25" y="268" type="curve" smooth="yes"/>
      <point x="25" y="89"/>
      <point x="121" y="-20"/>
      <point x="301" y="-20" type="curve"/>
      <point x="591" y="-20"/>
      <point x="676" y="241"/>
      <point x="676" y="429" type="curve" smooth="yes"/>
      <point x="676" y="609"/>
      <point x="580" y="716"/>
      <point x="400" y="716" type="curve"/>
    </contour>
    <contour>
      <point x="441" y="570"/>
      <point x="472" y="566"/>
      <point x="472" y="452" type="curve" smooth="yes"/>
      <point x="472" y="346"/>
      <point x="446" y="126"/>
      <point x="317" y="126" type="curve" smooth="yes"/>
      <point x="260" y="126"/>
      <point x="228" y="129"/>
      <point x="228" y="246" type="curve" smooth="yes"/>
      <point x="228" y="348"/>
      <point x="255" y="570"/>
      <point x="384" y="570" type="curve"/>
    </contour>
    <contour>
      <point x="406" y="741" type="move" name="top"/>
    </contour>
    <contour>
      <point x="301" y="0" type="move" name="bottom"/>
    </contour>
  </outline>
</glyph>
<glyph name="Thorn" format="1">
  <advance width="600"/>
  <unicode hex="00DE"/>
  <outline>
    <contour>
      <point x="227" y="593" type="line"/>
      <point x="268" y="450" type="line"/>
      <point x="313" y="450" type="line" smooth="yes"/>
      <point x="370" y="450"/>
      <point x="394" y="423"/>
      <point x="394" y="380" type="curve" smooth="yes"/>
      <point x="394" y="333"/>
      <point x="375" y="251"/>
      <point x="288" y="251" type="curve" smooth="yes"/>
      <point x="227" y="251" type="line"/>
      <point x="207" y="106" type="line"/>
      <point x="290" y="106" type="line" smooth="yes"/>
      <point x="534" y="106"/>
      <point x="602" y="271"/>
      <point x="602" y="386" type="curve" smooth="yes"/>
      <point x="602" y="527"/>
      <point x="501" y="593"/>
      <point x="334" y="593" type="curve" smooth="yes"/>
    </contour>
    <contour>
      <point x="103" y="696" type="line"/>
      <point x="6" y="0" type="line"/>
      <point x="208" y="0" type="line"/>
      <point x="305" y="696" type="line"/>
    </contour>
    <contour>
      <point x="360" y="696" type="move" name="top"/>
    </contour>
    <contour>
      <point x="262" y="0" type="move" name="bottom"/>
    </contour>
  </outline>
</glyph>
<glyph name="germandbls" format="1">
  <advance width="595"/>
  <unicode hex="00DF"/>
  <outline>
    <contour>
      <point x="438" y="490"/>
      <point x="555" y="505"/>
      <point x="555" y="613" type="curve" smooth="yes"/>
      <point x="555" y="697"/>
      <point x="489" y="764"/>
      <point x="355" y="764" type="curve" smooth="yes"/>
      <point x="191" y="764"/>
      <point x="93" y="675"/>
      <point x="73" y="531" type="curve"/>
      <point x="5" y="44" type="line" smooth="yes"/>
      <point x="-5" y="-29"/>
      <point x="-50" y="-61"/>
      <point x="-121" y="-86" type="curve"/>
      <point x="-74" y="-227" type="line"/>
      <point x="61" y="-184"/>
      <point x="178" y="-112"/>
      <point x="204" y="76" type="curve" smooth="yes"/>
      <point x="268" y="536" type="line" smooth="yes"/>
      <point x="276" y="596"/>
      <point x="296" y="629"/>
      <point x="336" y="629" type="curve" smooth="yes"/>
      <point x="358" y="629"/>
      <point x="369" y="615"/>
      <point x="369" y="595" type="curve" smooth="yes"/>
      <point x="369" y="508"/>
      <point x="266" y="501"/>
      <point x="266" y="375" type="curve" smooth="yes"/>
      <point x="266" y="269"/>
      <point x="378" y="260"/>
      <point x="378" y="181" type="curve" smooth="yes"/>
      <point x="378" y="165"/>
      <point x="371" y="130"/>
      <point x="326" y="130" type="curve" smooth="yes"/>
      <point x="316" y="130"/>
      <point x="303" y="132"/>
      <point x="290" y="139" type="curve"/>
      <point x="217" y="10" type="line"/>
      <point x="249" y="-7"/>
      <point x="295" y="-20"/>
      <point x="342" y="-20" type="curve" smooth="yes"/>
      <point x="514" y="-20"/>
      <point x="579" y="97"/>
      <point x="579" y="193" type="curve" smooth="yes"/>
      <point x="579" y="344"/>
      <point x="438" y="360"/>
      <point x="438" y="424" type="curve" smooth="yes"/>
    </contour>
  </outline>
</glyph>
<glyph name="ae" format="1">
  <advance width="847"/>
  <unicode hex="00E6"/>
  <outline>
    <contour>
      <point x="238" y="554"/>
      <point x="162" y="540"/>
      <point x="92" y="513" type="curve"/>
      <point x="120" y="387" type="line"/>
      <point x="175" y="405"/>
      <point x="227" y="412"/>
      <point x="255" y="412" type="curve" smooth="yes"/>
      <point x="307" y="412"/>
      <point x="343" y="400"/>
      <point x="349" y="370" type="curve"/>
      <point x="344" y="359"/>
      <point x="338" y="347"/>
      <point x="333" y="330" type="curve"/>
      <point x="287" y="330" type="line" smooth="yes"/>
      <point x="55" y="330"/>
      <point x="-1" y="224"/>
      <point x="-1" y="127" type="curve" smooth="yes"/>
      <point x="-1" y="39"/>
      <point x="65" y="-20"/>
      <point x="166" y="-20" type="curve" smooth="yes"/>
      <point x="237" y="-20"/>
      <point x="301" y="1"/>
      <point x="361" y="65" type="curve"/>
      <point x="399" y="11"/>
      <point x="466" y="-20"/>
      <point x="564" y="-20" type="curve" smooth="yes"/>
      <point x="654" y="-20"/>
      <point x="730" y="13"/>
      <point x="789" y="56" type="curve"/>
      <point x="722" y="169" type="line"/>
      <point x="672" y="137"/>
      <point x="634" y="120"/>
      <point x="590" y="120" type="curve" smooth="yes"/>
      <point x="547" y="120"/>
      <point x="514" y="131"/>
      <point x="509" y="191" type="curve"/>
      <point x="664" y="205"/>
      <point x="848" y="252"/>
      <point x="848" y="401" type="curve" smooth="yes"/>
      <point x="848" y="488"/>
      <point x="773" y="554"/>
      <point x="634" y="554" type="curve" smooth="yes"/>
      <point x="563" y="554"/>
      <point x="494" y="528"/>
      <point x="454" y="489" type="curve"/>
      <point x="420" y="529"/>
      <point x="376" y="554"/>
      <point x="297" y="554" type="curve" smooth="yes"/>
    </contour>
    <contour>
      <point x="317" y="194"/>
      <point x="318" y="178"/>
      <point x="321" y="162" type="curve"/>
      <point x="294" y="138"/>
      <point x="271" y="119"/>
      <point x="243" y="119" type="curve" smooth="yes"/>
      <point x="214" y="119"/>
      <point x="203" y="137"/>
      <point x="203" y="159" type="curve" smooth="yes"/>
      <point x="203" y="200"/>
      <point x="236" y="222"/>
      <point x="288" y="222" type="curve" smooth="yes"/>
      <point x="317" y="222" type="line"/>
    </contour>
    <contour>
      <point x="644" y="429"/>
      <point x="654" y="413"/>
      <point x="654" y="389" type="curve" smooth="yes"/>
      <point x="654" y="372"/>
      <point x="638" y="309"/>
      <point x="517" y="302" type="curve"/>
      <point x="529" y="367"/>
      <point x="557" y="429"/>
      <point x="611" y="429" type="curve" smooth="yes"/>
    </contour>
    <contour>
      <point x="461" y="534" type="move" name="top"/>
    </contour>
    <contour>
      <point x="360" y="0" type="move" name="bottom"/>
    </contour>
  </outline>
</glyph>
<glyph name="eth" format="1">
  <advance width="574"/>
  <unicode hex="00F0"/>
  <outline>
    <contour>
      <point x="474" y="726" type="line"/>
      <point x="389" y="811" type="line"/>
      <point x="303" y="730" type="line"/>
      <point x="248" y="749"/>
      <point x="210" y="757"/>
      <point x="168" y="763" type="curve"/>
      <point x="115" y="639" type="line"/>
      <point x="134" y="636"/>
      <point x="159" y="631"/>
      <point x="187" y="624" type="curve"/>
      <point x="136" y="576" type="line"/>
      <point x="248" y="521" type="line"/>
      <point x="300" y="568" type="line"/>
      <point x="342" y="530"/>
      <point x="361" y="493"/>
      <point x="373" y="444" type="curve"/>
      <point x="341" y="468"/>
      <point x="306" y="482"/>
      <point x="254" y="482" type="curve" smooth="yes"/>
      <point x="89" y="482"/>
      <point x="9" y="328"/>
      <point x="9" y="197" type="curve" smooth="yes"/>
      <point x="9" y="58"/>
      <point x="110" y="-20"/>
      <point x="247" y="-20" type="curve" smooth="yes"/>
      <point x="425" y="-20"/>
      <point x="532" y="121"/>
      <point x="554" y="281" type="curve" smooth="yes"/>
      <point x="559" y="313"/>
      <point x="561" y="343"/>
      <point x="561" y="373" type="curve" smooth="yes"/>
      <point x="561" y="493"/>
      <point x="520" y="591"/>
      <point x="416" y="672" type="curve"/>
    </contour>
    <contour>
      <point x="228" y="121"/>
      <point x="207" y="139"/>
      <point x="207" y="191" type="curve" smooth="yes"/>
      <point x="207" y="249"/>
      <point x="224" y="348"/>
      <point x="297" y="348" type="curve" smooth="yes"/>
      <point x="324" y="348"/>
      <point x="345" y="340"/>
      <point x="363" y="326" type="curve"/>
      <point x="360" y="302"/>
      <point x="357" y="277"/>
      <point x="353" y="253" type="curve" smooth="yes"/>
      <point x="340" y="171"/>
      <point x="318" y="121"/>
      <point x="263" y="121" type="curve" smooth="yes"/>
    </contour>
    <contour>
      <point x="302" y="744" type="move" name="top"/>
    </contour>
    <contour>
      <point x="247" y="0" type="move" name="bottom"/>
    </contour>
  </outline>
</glyph>
<glyph name="oslash" format="1">
  <advance width="572"/>
  <unicode hex="00F8"/>
  <outline>
    <contour>
      <point x="223" y="-19" type="line"/>
      <point x="231" y="-20"/>
      <point x="239" y="-20"/>
      <point x="247" y="-20" type="curve" smooth="yes"/>
      <point x="481" y="-20"/>
      <point x="557" y="165"/>
      <point x="558" y="323" type="curve" smooth="yes"/>
      <point x="559" y="399"/>
      <point x="529" y="465"/>
      <point x="475" y="506" type="curve"/>
      <point x="535" y="632" type="line"/>
      <point x="402" y="673" type="line"/>
      <point x="348" y="553" type="line"/>
      <point x="340" y="554"/>
      <point x="331" y="554"/>
      <point x="323" y="554" type="curve" smooth="yes"/>
      <point x="89" y="554"/>
      <point x="13" y="370"/>
      <point x="13" y="211" type="curve" smooth="yes"/>
      <point x="13" y="133"/>
      <point x="43" y="68"/>
      <point x="96" y="27" type="curve"/>
      <point x="40" y="-97" type="line"/>
      <point x="172" y="-138" type="line"/>
    </contour>
    <contour>
      <point x="191" y="174"/>
      <point x="189" y="188"/>
      <point x="189" y="206" type="curve" smooth="yes"/>
      <point x="189" y="269"/>
      <point x="212" y="412"/>
      <point x="307" y="412" type="curve" smooth="yes"/>
      <point x="308" y="412"/>
      <point x="309" y="412"/>
      <point x="310" y="412" type="curve"/>
      <point x="194" y="162" type="line"/>
    </contour>
    <contour>
      <point x="265" y="122"/>
      <point x="264" y="122"/>
      <point x="263" y="122" type="curve"/>
      <point x="376" y="365" type="line"/>
      <point x="379" y="354"/>
      <point x="381" y="340"/>
      <point x="381" y="324" type="curve" smooth="yes"/>
      <point x="381" y="265"/>
      <point x="357" y="122"/>
      <point x="266" y="122" type="curve" smooth="yes"/>
    </contour>
    <contour>
      <point x="324" y="534" type="move" name="top"/>
    </contour>
    <contour>
      <point x="251" y="0" type="move" name="bottom"/>
    </contour>
  </outline>
</glyph>
<glyph name="thorn" format="1">
  <advance width="588"/>
  <unicode hex="00FE"/>
  <outline>
    <contour>
      <point x="360" y="554"/>
      <point x="301" y="531"/>
      <point x="265" y="495" type="curve"/>
      <point x="303" y="764" type="line"/>
      <point x="107" y="744" type="line"/>
      <point x="-29" y="-227" type="line"/>
      <point x="167" y="-207" type="line"/>
      <point x="196" y="-8" type="line"/>
      <point x="212" y="-13"/>
      <point x="248" y="-20"/>
      <point x="285" y="-20" type="curve" smooth="yes"/>
      <point x="510" y="-20"/>
      <point x="571" y="191"/>
      <point x="571" y="347" type="curve" smooth="yes"/>
      <point x="571" y="478"/>
      <point x="518" y="554"/>
      <point x="405" y="554" type="curve" smooth="yes"/>
    </contour>
    <contour>
      <point x="245" y="121"/>
      <point x="228" y="126"/>
      <point x="215" y="131" type="curve"/>
      <point x="247" y="359" type="line"/>
      <point x="272" y="396"/>
      <point x="299" y="412"/>
      <point x="326" y="412" type="curve" smooth="yes"/>
      <point x="351" y="412"/>
      <point x="372" y="400"/>
      <point x="372" y="338" type="curve" smooth="yes"/>
      <point x="372" y="249"/>
      <point x="345" y="121"/>
      <point x="266" y="121" type="curve" smooth="yes"/>
    </contour>
  </outline>
</glyph>
<glyph name="dcroat" format="1">
  <advance width="599"/>
  <unicode hex="0111"/>
  <outline>
    <contour>
      <point x="285" y="696" type="line"/>
      <point x="284" y="590" type="line"/>
      <point x="592" y="590" type="line"/>
      <point x="643" y="590" type="line"/>
      <point x="658" y="696" type="line"/>
    </contour>
    <component base="d"/>
  </outline>
</glyph>
<glyph name="Hbar" format="1">
  <advance width="669"/>
  <unicode hex="0126"/>
  <outline>
    <contour>
      <point x="654" y="601" type="line"/>
      <point x="51" y="601" type="line"/>
      <point x="36" y="495" type="line"/>
      <point x="86" y="495" type="line"/>
      <point x="693" y="495" type="line"/>
      <point x="708" y="601" type="line"/>
    </contour>
    <component base="H" xOffset="10"/>
  </outline>
</glyph>
<glyph name="hbar" format="1">
  <advance width="569"/>
  <unicode hex="0127"/>
  <outline>
    <contour>
      <point x="61" y="696" type="line"/>
      <point x="46" y="590" type="line"/>
      <point x="97" y="590" type="line"/>
      <point x="404" y="590" type="line"/>
      <point x="434" y="696" type="line"/>
    </contour>
    <component base="h" xOffset="10"/>
  </outline>
</glyph>
<glyph name="dotlessi" format="1">
  <advance width="276"/>
  <unicode hex="0131"/>
  <outline>
    <contour>
      <point x="78" y="534" type="line"/>
      <point x="4" y="0" type="line"/>
      <point x="198" y="0" type="line"/>
      <point x="272" y="534" type="line"/>
    </contour>
    <contour>
      <point x="169" y="0" type="move" name="ogonek"/>
    </contour>
    <contour>
      <point x="101" y="0" type="move" name="bottom"/>
    </contour>
    <contour>
      <point x="175" y="534" type="move" name="top"/>
    </contour>
  </outline>
</glyph>
<glyph name="kgreenlandic" format="1">
  <advance width="560"/>
  <unicode hex="0138"/>
  <outline>
    <contour>
      <point x="405" y="534" type="line"/>
      <point x="241" y="282" type="line"/>
      <point x="333" y="0" type="line"/>
      <point x="543" y="0" type="line"/>
      <point x="439" y="285" type="line"/>
      <point x="609" y="534" type="line"/>
    </contour>
    <contour>
      <point x="78" y="534" type="line"/>
      <point x="4" y="0" type="line"/>
      <point x="199" y="0" type="line"/>
      <point x="273" y="534" type="line"/>
    </contour>
    <contour>
      <point x="318" y="534" type="move" name="top"/>
    </contour>
    <contour>
      <point x="242" y="0" type="move" name="bottom"/>
    </contour>
  </outline>
</glyph>
<glyph name="Lslash" format="1">
  <advance width="562"/>
  <unicode hex="0141"/>
  <outline>
    <contour>
      <point x="278" y="158" type="line"/>
      <point x="302" y="332" type="line"/>
      <point x="486" y="439" type="line"/>
      <point x="437" y="541" type="line"/>
      <point x="322" y="474" type="line"/>
      <point x="353" y="696" type="line"/>
      <point x="151" y="696" type="line"/>
      <point x="102" y="346" type="line"/>
      <point x="0" y="287" type="line"/>
      <point x="47" y="184" type="line"/>
      <point x="83" y="205" type="line"/>
      <point x="54" y="0" type="line"/>
      <point x="493" y="0" type="line"/>
      <point x="535" y="158" type="line"/>
    </contour>
  </outline>
</glyph>
<glyph name="lslash" format="1">
  <advance width="359"/>
  <unicode hex="0142"/>
  <outline>
    <contour>
      <point x="-4" y="343" type="line"/>
      <point x="24" y="227" type="line"/>
      <point x="385" y="435" type="line"/>
      <point x="360" y="554" type="line"/>
    </contour>
    <component base="l" xOffset="36"/>
  </outline>
</glyph>
<glyph name="napostrophe" format="1">
  <advance width="560"/>
  <unicode hex="0149"/>
  <outline>
    <contour>
      <point x="97" y="793"/>
      <point x="61" y="759"/>
      <point x="56" y="721" type="curve" smooth="yes"/>
      <point x="52" y="690"/>
      <point x="63" y="670"/>
      <point x="79" y="656" type="curve"/>
      <point x="44" y="564" type="line"/>
      <point x="122" y="564" type="line"/>
      <point x="174" y="643" type="line" smooth="yes"/>
      <point x="193" y="672"/>
      <point x="203" y="691"/>
      <point x="206" y="715" type="curve" smooth="yes"/>
      <point x="212" y="760"/>
      <point x="183" y="793"/>
      <point x="139" y="793" type="curve" smooth="yes"/>
    </contour>
    <component base="n"/>
  </outline>
</glyph>
<glyph name="eng" format="1">
  <advance width="560"/>
  <unicode hex="014B"/>
  <outline>
    <component base="n"/>
    <component base="hookHELPER" xOffset="126"/>
    <contour>
      <point x="219" y="-215" type="move" name="bottom"/>
    </contour>
  </outline>
</glyph>
<glyph name="OE" format="1">
  <advance width="890"/>
  <unicode hex="0152"/>
  <outline>
    <contour>
      <point x="113" y="716"/>
      <point x="25" y="454"/>
      <point x="25" y="267" type="curve" smooth="yes"/>
      <point x="25" y="86"/>
      <point x="118" y="-20"/>
      <point x="283" y="-20" type="curve" smooth="yes"/>
      <point x="363" y="-20"/>
      <point x="436" y="8"/>
      <point x="488" y="67" type="curve"/>
      <point x="625" y="155"/>
      <point x="650" y="292"/>
      <point x="650" y="405" type="curve" smooth="yes"/>
      <point x="650" y="503"/>
      <point x="623" y="586"/>
      <point x="557" y="638" type="curve"/>
      <point x="528" y="688"/>
      <point x="463" y="716"/>
      <point x="382" y="716" type="curve" smooth="yes"/>
    </contour>
    <contour>
      <point x="545" y="144" type="line"/>
      <point x="382" y="0" type="line"/>
      <point x="831" y="0" type="line"/>
      <point x="851" y="144" type="line"/>
    </contour>
    <contour>
      <point x="642" y="423" type="line"/>
      <point x="624" y="284" type="line"/>
      <point x="827" y="284" type="line"/>
      <point x="845" y="423" type="line"/>
    </contour>
    <contour>
      <point x="439" y="696" type="line"/>
      <point x="571" y="553" type="line"/>
      <point x="892" y="553" type="line"/>
      <point x="932" y="696" type="line"/>
    </contour>
    <contour>
      <point x="421" y="570"/>
      <point x="447" y="537"/>
      <point x="447" y="455" type="curve" smooth="yes"/>
      <point x="447" y="306"/>
      <point x="417" y="126"/>
      <point x="306" y="126" type="curve" smooth="yes"/>
      <point x="257" y="126"/>
      <point x="232" y="160"/>
      <point x="232" y="244" type="curve" smooth="yes"/>
      <point x="232" y="390"/>
      <point x="258" y="570"/>
      <point x="372" y="570" type="curve" smooth="yes"/>
    </contour>
    <contour>
      <point x="505" y="696" type="move" name="top"/>
    </contour>
    <contour>
      <point x="407" y="0" type="move" name="bottom"/>
    </contour>
  </outline>
</glyph>
<glyph name="oe" format="1">
  <advance width="886"/>
  <unicode hex="0153"/>
  <outline>
    <contour>
      <point x="91" y="554"/>
      <point x="13" y="370"/>
      <point x="13" y="211" type="curve" smooth="yes"/>
      <point x="13" y="66"/>
      <point x="102" y="-20"/>
      <point x="249" y="-20" type="curve"/>
      <point x="483" y="-20"/>
      <point x="506" y="215"/>
      <point x="547" y="323" type="curve"/>
      <point x="548" y="385"/>
      <point x="493" y="554"/>
      <point x="315" y="554" type="curve"/>
    </contour>
    <contour>
      <point x="346" y="412"/>
      <point x="365" y="390"/>
      <point x="364" y="333" type="curve" smooth="yes"/>
      <point x="363" y="264"/>
      <point x="350" y="122"/>
      <point x="265" y="122" type="curve" smooth="yes"/>
      <point x="229" y="122"/>
      <point x="211" y="144"/>
      <point x="211" y="201" type="curve" smooth="yes"/>
      <point x="211" y="270"/>
      <point x="224" y="412"/>
      <point x="309" y="412" type="curve"/>
    </contour>
    <contour>
      <point x="447" y="554"/>
      <point x="385" y="326"/>
      <point x="355" y="211" type="curve"/>
      <point x="385" y="85"/>
      <point x="433" y="-20"/>
      <point x="604" y="-20" type="curve" smooth="yes"/>
      <point x="694" y="-20"/>
      <point x="770" y="13"/>
      <point x="829" y="56" type="curve"/>
      <point x="762" y="169" type="line"/>
      <point x="712" y="137"/>
      <point x="674" y="120"/>
      <point x="630" y="120" type="curve" smooth="yes"/>
      <point x="583" y="120"/>
      <point x="548" y="140"/>
      <point x="548" y="208" type="curve"/>
      <point x="548" y="286"/>
      <point x="569" y="429"/>
      <point x="651" y="429" type="curve" smooth="yes"/>
      <point x="684" y="429"/>
      <point x="694" y="413"/>
      <point x="694" y="389" type="curve" smooth="yes"/>
      <point x="694" y="371"/>
      <point x="677" y="305"/>
      <point x="546" y="302" type="curve"/>
      <point x="532" y="190" type="line"/>
      <point x="691" y="202"/>
      <point x="888" y="247"/>
      <point x="888" y="401" type="curve" smooth="yes"/>
      <point x="888" y="488"/>
      <point x="813" y="554"/>
      <point x="674" y="554" type="curve" smooth="yes"/>
    </contour>
    <contour>
      <point x="481" y="534" type="move" name="top"/>
    </contour>
    <contour>
      <point x="433" y="0" type="move" name="bottom"/>
    </contour>
  </outline>
</glyph>
<glyph name="Tbar" format="1">
  <advance width="542"/>
  <unicode hex="0166"/>
  <outline>
    <contour>
      <point x="566" y="542" type="line"/>
      <point x="608" y="696" type="line"/>
      <point x="64" y="696" type="line"/>
      <point x="43" y="542" type="line"/>
      <point x="209" y="542" type="line"/>
      <point x="188" y="391" type="line"/>
      <point x="79" y="391" type="line"/>
      <point x="65" y="285" type="line"/>
      <point x="173" y="285" type="line"/>
      <point x="133" y="0" type="line"/>
      <point x="335" y="0" type="line"/>
      <point x="375" y="285" type="line"/>
      <point x="482" y="285" type="line"/>
      <point x="496" y="391" type="line"/>
      <point x="390" y="391" type="line"/>
      <point x="411" y="542" type="line"/>
    </contour>
  </outline>
</glyph>
<glyph name="tbar" format="1">
  <advance width="389"/>
  <unicode hex="0167"/>
  <outline>
    <contour>
      <point x="75" y="364" type="line"/>
      <point x="19" y="364" type="line"/>
      <point x="2" y="240" type="line"/>
      <point x="330" y="240" type="line"/>
      <point x="366" y="364" type="line"/>
    </contour>
    <component base="t"/>
  </outline>
</glyph>
<glyph name="longs" format="1">
  <advance width="357"/>
  <unicode hex="017F"/>
  <outline>
    <contour>
      <point x="205" y="764"/>
      <point x="123" y="677"/>
      <point x="108" y="566" type="curve" smooth="yes"/>
      <point x="30" y="0" type="line"/>
      <point x="223" y="0" type="line"/>
      <point x="301" y="554" type="line" smooth="yes"/>
      <point x="308" y="604"/>
      <point x="331" y="622"/>
      <point x="369" y="622" type="curve" smooth="yes"/>
      <point x="390" y="622"/>
      <point x="420" y="617"/>
      <point x="446" y="602" type="curve"/>
      <point x="512" y="717" type="line"/>
      <point x="478" y="741"/>
      <point x="421" y="764"/>
      <point x="350" y="764" type="curve" smooth="yes"/>
    </contour>
    <contour>
      <point x="33" y="534" type="line"/>
      <point x="15" y="400" type="line"/>
      <point x="204" y="400" type="line"/>
      <point x="244" y="534" type="line"/>
    </contour>
  </outline>
</glyph>
<glyph name="uni0180" format="1">
  <advance width="593"/>
  <unicode hex="0180"/>
  <outline>
    <contour>
      <point x="61" y="696" type="line"/>
      <point x="46" y="590" type="line"/>
      <point x="97" y="590" type="line"/>
      <point x="404" y="590" type="line"/>
      <point x="434" y="696" type="line"/>
    </contour>
    <component base="b" xOffset="10"/>
  </outline>
</glyph>
<glyph name="uni0183" format="1">
  <advance width="586"/>
  <unicode hex="0183"/>
  <outline>
    <contour>
      <point x="476" y="605" type="line"/>
      <point x="516" y="744" type="line"/>
      <point x="114" y="744" type="line"/>
      <point x="282" y="605" type="line"/>
    </contour>
    <contour>
      <point x="108" y="744" type="line"/>
      <point x="8" y="30" type="line"/>
      <point x="78" y="-1"/>
      <point x="157" y="-20"/>
      <point x="245" y="-20" type="curve" smooth="yes"/>
      <point x="515" y="-20"/>
      <point x="572" y="191"/>
      <point x="572" y="325" type="curve" smooth="yes"/>
      <point x="572" y="458"/>
      <point x="519" y="534"/>
      <point x="409" y="534" type="curve" smooth="yes"/>
      <point x="357" y="534"/>
      <point x="298" y="510"/>
      <point x="263" y="473" type="curve"/>
      <point x="301" y="744" type="line"/>
    </contour>
    <contour>
      <point x="352" y="392"/>
      <point x="373" y="380"/>
      <point x="373" y="316" type="curve" smooth="yes"/>
      <point x="373" y="249"/>
      <point x="346" y="121"/>
      <point x="267" y="121" type="curve" smooth="yes"/>
      <point x="246" y="121"/>
      <point x="229" y="126"/>
      <point x="216" y="131" type="curve"/>
      <point x="245" y="339" type="line"/>
      <point x="270" y="376"/>
      <point x="300" y="392"/>
      <point x="327" y="392" type="curve" smooth="yes"/>
    </contour>
  </outline>
</glyph>
<glyph name="uni0184" format="1">
  <advance width="615"/>
  <unicode hex="0184"/>
  <outline>
    <contour>
      <point x="300" y="0" type="line" smooth="yes"/>
      <point x="522" y="0"/>
      <point x="606" y="147"/>
      <point x="606" y="276" type="curve" smooth="yes"/>
      <point x="606" y="402"/>
      <point x="515" y="469"/>
      <point x="355" y="469" type="curve" smooth="yes"/>
      <point x="278" y="469" type="line"/>
      <point x="259" y="331" type="line"/>
      <point x="316" y="331" type="line" smooth="yes"/>
      <point x="372" y="331"/>
      <point x="394" y="300"/>
      <point x="394" y="260" type="curve" smooth="yes"/>
      <point x="394" y="217"/>
      <point x="375" y="145"/>
      <point x="292" y="145" type="curve" smooth="yes"/>
      <point x="248" y="145" type="line"/>
      <point x="325" y="696" type="line"/>
      <point x="159" y="696" type="line"/>
      <point x="92" y="471" type="line"/>
      <point x="26" y="0" type="line"/>
    </contour>
    <contour>
      <point x="159" y="696" type="line"/>
      <point x="120" y="633"/>
      <point x="74" y="575"/>
      <point x="21" y="528" type="curve"/>
      <point x="92" y="471" type="line"/>
    </contour>
  </outline>
</glyph>
<glyph name="uni0185" format="1">
  <advance width="541"/>
  <unicode hex="0185"/>
  <outline>
    <contour>
      <point x="142" y="534" type="line"/>
      <point x="100" y="470"/>
      <point x="58" y="423"/>
      <point x="5" y="376" type="curve"/>
      <point x="76" y="319" type="line"/>
    </contour>
    <contour>
      <point x="277" y="371" type="line"/>
      <point x="299" y="534" type="line"/>
      <point x="142" y="534" type="line"/>
      <point x="76" y="319" type="line"/>
      <point x="34" y="18" type="line"/>
      <point x="113" y="-7"/>
      <point x="178" y="-20"/>
      <point x="258" y="-20" type="curve" smooth="yes"/>
      <point x="467" y="-20"/>
      <point x="528" y="111"/>
      <point x="528" y="203" type="curve" smooth="yes"/>
      <point x="528" y="317"/>
      <point x="454" y="371"/>
      <point x="293" y="371" type="curve" smooth="yes"/>
    </contour>
    <contour>
      <point x="256" y="103"/>
      <point x="250" y="104"/>
      <point x="241" y="107" type="curve"/>
      <point x="260" y="251" type="line"/>
      <point x="275" y="251" type="line" smooth="yes"/>
      <point x="322" y="251"/>
      <point x="335" y="232"/>
      <point x="335" y="197" type="curve" smooth="yes"/>
      <point x="335" y="161"/>
      <point x="322" y="103"/>
      <point x="264" y="103" type="curve" smooth="yes"/>
    </contour>
  </outline>
</glyph>
<glyph name="uni0186" format="1">
  <advance width="572"/>
  <unicode hex="0186"/>
  <outline>
    <contour>
      <point x="199" y="716"/>
      <point x="124" y="686"/>
      <point x="57" y="635" type="curve"/>
      <point x="139" y="518" type="line"/>
      <point x="180" y="548"/>
      <point x="220" y="568"/>
      <point x="268" y="568" type="curve" smooth="yes"/>
      <point x="329" y="568"/>
      <point x="360" y="526"/>
      <point x="360" y="429" type="curve" smooth="yes"/>
      <point x="360" y="289"/>
      <point x="315" y="135"/>
      <point x="197" y="135" type="curve" smooth="yes"/>
      <point x="145" y="135"/>
      <point x="110" y="159"/>
      <point x="74" y="191" type="curve"/>
      <point x="-27" y="78" type="line"/>
      <point x="17" y="27"/>
      <point x="89" y="-20"/>
      <point x="190" y="-20" type="curve" smooth="yes"/>
      <point x="429" y="-20"/>
      <point x="569" y="179"/>
      <point x="569" y="424" type="curve" smooth="yes"/>
      <point x="569" y="610"/>
      <point x="464" y="716"/>
      <point x="296" y="716" type="curve" smooth="yes"/>
    </contour>
  </outline>
</glyph>
<glyph name="uni0187" format="1">
  <advance width="583"/>
  <unicode hex="0187"/>
  <outline>
    <contour>
      <point x="612" y="626" type="line"/>
      <point x="617" y="666" type="line" smooth="yes"/>
      <point x="622" y="703"/>
      <point x="639" y="721"/>
      <point x="670" y="721" type="curve" smooth="yes"/>
      <point x="691" y="721"/>
      <point x="708" y="716"/>
      <point x="729" y="705" type="curve"/>
      <point x="795" y="825" type="line"/>
      <point x="764" y="845"/>
      <point x="721" y="863"/>
      <point x="656" y="863" type="curve" smooth="yes"/>
      <point x="533" y="863"/>
      <point x="469" y="795"/>
      <point x="455" y="685" type="curve" smooth="yes"/>
      <point x="447" y="632" type="line"/>
    </contour>
    <contour>
      <point x="142" y="716"/>
      <point x="24" y="464"/>
      <point x="24" y="270" type="curve" smooth="yes"/>
      <point x="24" y="81"/>
      <point x="131" y="-20"/>
      <point x="307" y="-20" type="curve" smooth="yes"/>
      <point x="402" y="-20"/>
      <point x="487" y="25"/>
      <point x="544" y="76" type="curve"/>
      <point x="470" y="194" type="line"/>
      <point x="426" y="162"/>
      <point x="385" y="135"/>
      <point x="336" y="135" type="curve" smooth="yes"/>
      <point x="270" y="135"/>
      <point x="233" y="179"/>
      <point x="233" y="274" type="curve" smooth="yes"/>
      <point x="233" y="377"/>
      <point x="269" y="568"/>
      <point x="399" y="568" type="curve" smooth="yes"/>
      <point x="445" y="568"/>
      <point x="483" y="556"/>
      <point x="524" y="532" type="curve"/>
      <point x="612" y="626" type="line"/>
      <point x="586" y="657"/>
      <point x="554" y="670"/>
      <point x="514" y="665" type="curve"/>
      <point x="479" y="695"/>
      <point x="439" y="716"/>
      <point x="373" y="716" type="curve" smooth="yes"/>
    </contour>
  </outline>
</glyph>
<glyph name="uni0188" format="1">
  <advance width="470"/>
  <unicode hex="0188"/>
  <outline>
    <contour>
      <point x="109" y="554"/>
      <point x="12" y="355"/>
      <point x="12" y="217" type="curve" smooth="yes"/>
      <point x="12" y="74"/>
      <point x="101" y="-20"/>
      <point x="256" y="-20" type="curve" smooth="yes"/>
      <point x="334" y="-20"/>
      <point x="395" y="5"/>
      <point x="449" y="44" type="curve"/>
      <point x="379" y="168" type="line"/>
      <point x="342" y="145"/>
      <point x="317" y="133"/>
      <point x="284" y="133" type="curve" smooth="yes"/>
      <point x="244" y="133"/>
      <point x="215" y="148"/>
      <point x="215" y="212" type="curve" smooth="yes"/>
      <point x="215" y="291"/>
      <point x="235" y="405"/>
      <point x="328" y="405" type="curve" smooth="yes"/>
      <point x="363" y="405"/>
      <point x="396" y="396"/>
      <point x="426" y="381" type="curve"/>
      <point x="507" y="480" type="line"/>
      <point x="486" y="503"/>
      <point x="460" y="511"/>
      <point x="431" y="508" type="curve"/>
      <point x="402" y="532"/>
      <point x="348" y="554"/>
      <point x="296" y="554" type="curve" smooth="yes"/>
    </contour>
    <contour>
      <point x="519" y="567" type="line" smooth="yes"/>
      <point x="525" y="604"/>
      <point x="539" y="622"/>
      <point x="571" y="622" type="curve" smooth="yes"/>
      <point x="591" y="622"/>
      <point x="610" y="617"/>
      <point x="630" y="606" type="curve"/>
      <point x="696" y="726" type="line"/>
      <point x="666" y="746"/>
      <point x="621" y="764"/>
      <point x="556" y="764" type="curve" smooth="yes"/>
      <point x="434" y="764"/>
      <point x="372" y="696"/>
      <point x="356" y="586" type="curve" smooth="yes"/>
      <point x="349" y="533" type="line"/>
      <point x="507" y="480" type="line"/>
    </contour>
    <contour>
      <point x="302" y="744" type="move" name="top"/>
    </contour>
    <contour>
      <point x="197" y="0" type="move" name="bottom"/>
    </contour>
  </outline>
</glyph>
<glyph name="uni018B" format="1">
  <advance width="596"/>
  <unicode hex="018B"/>
  <outline>
    <contour>
      <point x="334" y="145" type="line"/>
      <point x="289" y="145" type="line" smooth="yes"/>
      <point x="239" y="145"/>
      <point x="214" y="168"/>
      <point x="214" y="214" type="curve" smooth="yes"/>
      <point x="214" y="274"/>
      <point x="249" y="318"/>
      <point x="318" y="318" type="curve" smooth="yes"/>
      <point x="373" y="318" type="line"/>
      <point x="393" y="456" type="line"/>
      <point x="314" y="456" type="line" smooth="yes"/>
      <point x="120" y="456"/>
      <point x="2" y="365"/>
      <point x="2" y="207" type="curve" smooth="yes"/>
      <point x="2" y="75"/>
      <point x="101" y="0"/>
      <point x="241" y="0" type="curve" smooth="yes"/>
      <point x="516" y="0" type="line"/>
      <point x="613" y="696" type="line"/>
      <point x="410" y="686" type="line"/>
    </contour>
    <contour>
      <point x="141" y="543" type="line"/>
      <point x="405" y="543" type="line"/>
      <point x="613" y="696" type="line"/>
      <point x="162" y="696" type="line"/>
    </contour>
  </outline>
</glyph>
<glyph name="uni018C" format="1">
  <advance width="601"/>
  <unicode hex="018C"/>
  <outline>
    <contour>
      <point x="402" y="605" type="line"/>
      <point x="610" y="744" type="line"/>
      <point x="218" y="744" type="line"/>
      <point x="198" y="605" type="line"/>
    </contour>
    <contour>
      <point x="386" y="491" type="line"/>
      <point x="360" y="518"/>
      <point x="321" y="534"/>
      <point x="275" y="534" type="curve" smooth="yes"/>
      <point x="89" y="534"/>
      <point x="16" y="347"/>
      <point x="16" y="197" type="curve" smooth="yes"/>
      <point x="16" y="61"/>
      <point x="68" y="-20"/>
      <point x="183" y="-20" type="curve" smooth="yes"/>
      <point x="258" y="-20"/>
      <point x="308" y="25"/>
      <point x="340" y="69" type="curve"/>
      <point x="339" y="0" type="line"/>
      <point x="512" y="0" type="line"/>
      <point x="616" y="744" type="line"/>
      <point x="421" y="744" type="line"/>
    </contour>
    <contour>
      <point x="340" y="393"/>
      <point x="354" y="386"/>
      <point x="369" y="369" type="curve"/>
      <point x="346" y="205" type="line"/>
      <point x="322" y="166"/>
      <point x="289" y="122"/>
      <point x="257" y="122" type="curve" smooth="yes"/>
      <point x="235" y="122"/>
      <point x="216" y="133"/>
      <point x="216" y="199" type="curve" smooth="yes"/>
      <point x="216" y="278"/>
      <point x="242" y="393"/>
      <point x="317" y="393" type="curve" smooth="yes"/>
    </contour>
  </outline>
</glyph>
<glyph name="uni018D" format="1">
  <advance width="567"/>
  <unicode hex="018D"/>
  <outline>
    <contour>
      <point x="377" y="-227"/>
      <point x="451" y="-140"/>
      <point x="451" y="-59" type="curve" smooth="yes"/>
      <point x="451" y="-15"/>
      <point x="434" y="30"/>
      <point x="370" y="74" type="curve"/>
      <point x="516" y="127"/>
      <point x="556" y="230"/>
      <point x="556" y="339" type="curve" smooth="yes"/>
      <point x="556" y="454"/>
      <point x="470" y="554"/>
      <point x="320" y="554" type="curve" smooth="yes"/>
      <point x="90" y="554"/>
      <point x="14" y="359"/>
      <point x="14" y="230" type="curve" smooth="yes"/>
      <point x="14" y="118"/>
      <point x="72" y="57"/>
      <point x="192" y="6" type="curve" smooth="yes"/>
      <point x="256" y="-21"/>
      <point x="268" y="-33"/>
      <point x="268" y="-53" type="curve" smooth="yes"/>
      <point x="268" y="-78"/>
      <point x="250" y="-97"/>
      <point x="210" y="-97" type="curve" smooth="yes"/>
      <point x="166" y="-97"/>
      <point x="135" y="-82"/>
      <point x="105" y="-54" type="curve"/>
      <point x="9" y="-146" type="line"/>
      <point x="49" y="-190"/>
      <point x="114" y="-227"/>
      <point x="213" y="-227" type="curve" smooth="yes"/>
    </contour>
    <contour>
      <point x="228" y="154"/>
      <point x="212" y="177"/>
      <point x="212" y="222" type="curve" smooth="yes"/>
      <point x="212" y="290"/>
      <point x="227" y="412"/>
      <point x="305" y="412" type="curve" smooth="yes"/>
      <point x="340" y="412"/>
      <point x="358" y="387"/>
      <point x="358" y="339" type="curve" smooth="yes"/>
      <point x="358" y="272"/>
      <point x="351" y="189"/>
      <point x="280" y="124" type="curve"/>
    </contour>
  </outline>
</glyph>
<glyph name="uni018E" format="1">
  <advance width="505"/>
  <unicode hex="018E"/>
  <outline>
    <contour>
      <point x="63" y="553" type="line"/>
      <point x="300" y="553" type="line"/>
      <point x="281" y="423" type="line"/>
      <point x="83" y="423" type="line"/>
      <point x="65" y="284" type="line"/>
      <point x="263" y="284" type="line"/>
      <point x="243" y="144" type="line"/>
      <point x="1" y="144" type="line"/>
      <point x="-19" y="0" type="line"/>
      <point x="425" y="0" type="line"/>
      <point x="522" y="696" type="line"/>
      <point x="83" y="696" type="line"/>
    </contour>
  </outline>
</glyph>
<glyph name="uni0190" format="1">
  <advance width="543"/>
  <unicode hex="0190"/>
  <outline>
    <contour>
      <point x="202" y="716"/>
      <point x="69" y="639"/>
      <point x="69" y="512" type="curve" smooth="yes"/>
      <point x="69" y="444"/>
      <point x="109" y="389"/>
      <point x="211" y="367" type="curve"/>
      <point x="83" y="353"/>
      <point x="2" y="298"/>
      <point x="2" y="174" type="curve" smooth="yes"/>
      <point x="2" y="54"/>
      <point x="105" y="-20"/>
      <point x="260" y="-20" type="curve" smooth="yes"/>
      <point x="374" y="-20"/>
      <point x="460" y="17"/>
      <point x="526" y="79" type="curve"/>
      <point x="434" y="185" type="line"/>
      <point x="386" y="146"/>
      <point x="346" y="126"/>
      <point x="295" y="126" type="curve" smooth="yes"/>
      <point x="239" y="126"/>
      <point x="210" y="147"/>
      <point x="210" y="200" type="curve" smooth="yes"/>
      <point x="210" y="260"/>
      <point x="255" y="295"/>
      <point x="334" y="295" type="curve" smooth="yes"/>
      <point x="386" y="295" type="line"/>
      <point x="429" y="436" type="line"/>
      <point x="348" y="436" type="line" smooth="yes"/>
      <point x="296" y="436"/>
      <point x="272" y="457"/>
      <point x="272" y="495" type="curve" smooth="yes"/>
      <point x="272" y="542"/>
      <point x="304" y="572"/>
      <point x="361" y="572" type="curve" smooth="yes"/>
      <point x="402" y="572"/>
      <point x="438" y="557"/>
      <point x="472" y="521" type="curve"/>
      <point x="578" y="619" type="line"/>
      <point x="522" y="682"/>
      <point x="454" y="716"/>
      <point x="344" y="716" type="curve" smooth="yes"/>
    </contour>
  </outline>
</glyph>
<glyph name="florin" format="1">
  <advance width="357"/>
  <unicode hex="0192"/>
  <outline>
    <contour>
      <point x="205" y="764"/>
      <point x="123" y="677"/>
      <point x="108" y="566" type="curve" smooth="yes"/>
      <point x="39" y="66" type="line" smooth="yes"/>
      <point x="27" y="-21"/>
      <point x="-13" y="-59"/>
      <point x="-91" y="-86" type="curve"/>
      <point x="-44" y="-227" type="line"/>
      <point x="91" y="-184"/>
      <point x="208" y="-112"/>
      <point x="234" y="76" type="curve" smooth="yes"/>
      <point x="301" y="554" type="line" smooth="yes"/>
      <point x="308" y="604"/>
      <point x="331" y="622"/>
      <point x="369" y="622" type="curve" smooth="yes"/>
      <point x="390" y="622"/>
      <point x="420" y="617"/>
      <point x="446" y="602" type="curve"/>
      <point x="512" y="717" type="line"/>
      <point x="478" y="741"/>
      <point x="421" y="764"/>
      <point x="350" y="764" type="curve" smooth="yes"/>
    </contour>
    <contour>
      <point x="33" y="534" type="line"/>
      <point x="15" y="400" type="line"/>
      <point x="380" y="400" type="line"/>
      <point x="420" y="534" type="line"/>
    </contour>
  </outline>
</glyph>
<glyph name="uni0193" format="1">
  <advance width="624"/>
  <unicode hex="0193"/>
  <outline>
    <contour>
      <point x="152" y="716"/>
      <point x="23" y="472"/>
      <point x="23" y="259" type="curve" smooth="yes"/>
      <point x="23" y="79"/>
      <point x="112" y="-20"/>
      <point x="309" y="-20" type="curve" smooth="yes"/>
      <point x="394" y="-20"/>
      <point x="497" y="8"/>
      <point x="577" y="58" type="curve"/>
      <point x="625" y="409" type="line"/>
      <point x="344" y="409" type="line"/>
      <point x="342" y="270" type="line"/>
      <point x="411" y="270" type="line"/>
      <point x="393" y="142" type="line"/>
      <point x="369" y="132"/>
      <point x="346" y="126"/>
      <point x="318" y="126" type="curve" smooth="yes"/>
      <point x="260" y="126"/>
      <point x="230" y="154"/>
      <point x="230" y="243" type="curve" smooth="yes"/>
      <point x="230" y="382"/>
      <point x="265" y="572"/>
      <point x="420" y="572" type="curve" smooth="yes"/>
      <point x="471" y="572"/>
      <point x="517" y="555"/>
      <point x="553" y="532" type="curve"/>
      <point x="653" y="622" type="line"/>
      <point x="630" y="648"/>
      <point x="600" y="661"/>
      <point x="563" y="658" type="curve"/>
      <point x="524" y="695"/>
      <point x="474" y="716"/>
      <point x="402" y="716" type="curve" smooth="yes"/>
    </contour>
    <contour>
      <point x="653" y="622" type="line"/>
      <point x="658" y="666" type="line" smooth="yes"/>
      <point x="662" y="703"/>
      <point x="680" y="721"/>
      <point x="711" y="721" type="curve" smooth="yes"/>
      <point x="732" y="721"/>
      <point x="749" y="716"/>
      <point x="770" y="705" type="curve"/>
      <point x="836" y="825" type="line"/>
      <point x="805" y="845"/>
      <point x="762" y="863"/>
      <point x="697" y="863" type="curve" smooth="yes"/>
      <point x="574" y="863"/>
      <point x="510" y="795"/>
      <point x="496" y="685" type="curve" smooth="yes"/>
      <point x="488" y="632" type="line"/>
    </contour>
  </outline>
</glyph>
<glyph name="uni0194" format="1">
  <advance width="569"/>
  <unicode hex="0194"/>
  <outline>
    <contour>
      <point x="339" y="-227"/>
      <point x="408" y="-170"/>
      <point x="408" y="-62" type="curve" smooth="yes"/>
      <point x="408" y="0"/>
      <point x="387" y="41"/>
      <point x="359" y="97" type="curve"/>
      <point x="282" y="237" type="line"/>
      <point x="247" y="696" type="line"/>
      <point x="36" y="696" type="line"/>
      <point x="165" y="106" type="line"/>
      <point x="252" y="7" type="line"/>
      <point x="262" y="-21"/>
      <point x="267" y="-44"/>
      <point x="267" y="-66" type="curve" smooth="yes"/>
      <point x="267" y="-89"/>
      <point x="256" y="-106"/>
      <point x="234" y="-106" type="curve" smooth="yes"/>
      <point x="220" y="-106"/>
      <point x="212" y="-99"/>
      <point x="212" y="-83" type="curve" smooth="yes"/>
      <point x="212" y="-58"/>
      <point x="233" y="-22"/>
      <point x="252" y="7" type="curve"/>
      <point x="359" y="97" type="line"/>
      <point x="655" y="696" type="line"/>
      <point x="446" y="696" type="line"/>
      <point x="282" y="237" type="line"/>
      <point x="165" y="106" type="line"/>
      <point x="112" y="38"/>
      <point x="71" y="-27"/>
      <point x="71" y="-97" type="curve" smooth="yes"/>
      <point x="71" y="-175"/>
      <point x="115" y="-227"/>
      <point x="221" y="-227" type="curve" smooth="yes"/>
    </contour>
  </outline>
</glyph>
<glyph name="uni0195" format="1">
  <advance width="842"/>
  <unicode hex="0195"/>
  <outline>
    <contour>
      <point x="638" y="534" type="line"/>
      <point x="641" y="508"/>
      <point x="642" y="483"/>
      <point x="642" y="456" type="curve" smooth="yes"/>
      <point x="642" y="348"/>
      <point x="629" y="122"/>
      <point x="542" y="122" type="curve" smooth="yes"/>
      <point x="507" y="122"/>
      <point x="509" y="160"/>
      <point x="513" y="190" type="curve" smooth="yes"/>
      <point x="541" y="393" type="line" smooth="yes"/>
      <point x="555" y="495"/>
      <point x="509" y="554"/>
      <point x="426" y="554" type="curve" smooth="yes"/>
      <point x="360" y="554"/>
      <point x="294" y="512"/>
      <point x="260" y="451" type="curve"/>
      <point x="303" y="764" type="line"/>
      <point x="107" y="744" type="line"/>
      <point x="3" y="0" type="line"/>
      <point x="197" y="0" type="line"/>
      <point x="237" y="278" type="line"/>
      <point x="272" y="353"/>
      <point x="300" y="393"/>
      <point x="324" y="393" type="curve" smooth="yes"/>
      <point x="337" y="393"/>
      <point x="346" y="383"/>
      <point x="340" y="341" type="curve" smooth="yes"/>
      <point x="318" y="182" type="line" smooth="yes"/>
      <point x="304" y="83"/>
      <point x="357" y="-20"/>
      <point x="521" y="-20" type="curve" smooth="yes"/>
      <point x="777" y="-20"/>
      <point x="829" y="171"/>
      <point x="829" y="426" type="curve" smooth="yes"/>
      <point x="829" y="469"/>
      <point x="826" y="504"/>
      <point x="821" y="534" type="curve"/>
    </contour>
  </outline>
</glyph>
<glyph name="uni0196" format="1">
  <advance width="397"/>
  <unicode hex="0196"/>
  <outline>
    <contour>
      <point x="94" y="696" type="line"/>
      <point x="25" y="207" type="line"/>
      <point x="227" y="207" type="line"/>
      <point x="296" y="696" type="line"/>
    </contour>
    <component base="hookHELPERright.case" xOffset="28" yOffset="207"/>
    <contour>
      <point x="195" y="696" type="move" name="top"/>
    </contour>
    <contour>
      <point x="156" y="0" type="move" name="bottom"/>
    </contour>
  </outline>
</glyph>
<glyph name="uni0198" format="1">
  <advance width="661"/>
  <unicode hex="0198"/>
  <outline>
    <contour>
      <point x="103" y="696" type="line"/>
      <point x="6" y="0" type="line"/>
      <point x="208" y="0" type="line"/>
      <point x="305" y="696" type="line"/>
    </contour>
    <contour>
      <point x="605" y="566"/>
      <point x="619" y="574"/>
      <point x="643" y="574" type="curve" smooth="yes"/>
      <point x="661" y="574"/>
      <point x="670" y="569"/>
      <point x="678" y="565" type="curve"/>
      <point x="740" y="677" type="line"/>
      <point x="714" y="697"/>
      <point x="680" y="716"/>
      <point x="621" y="716" type="curve" smooth="yes"/>
      <point x="530" y="716"/>
      <point x="482" y="683"/>
      <point x="418" y="590" type="curve" smooth="yes"/>
      <point x="266" y="371" type="line"/>
      <point x="402" y="0" type="line"/>
      <point x="630" y="0" type="line"/>
      <point x="472" y="377" type="line"/>
      <point x="576" y="525" type="line" smooth="yes"/>
    </contour>
  </outline>
</glyph>
<glyph name="uni0199" format="1">
  <advance width="579"/>
  <unicode hex="0199"/>
  <outline>
    <contour>
      <point x="78" y="533" type="line"/>
      <point x="3" y="0" type="line"/>
      <point x="198" y="0" type="line"/>
      <point x="244" y="337" type="line"/>
      <point x="287" y="398"/>
      <point x="323" y="421"/>
      <point x="355" y="421" type="curve" smooth="yes"/>
      <point x="379" y="421"/>
      <point x="393" y="409"/>
      <point x="393" y="385" type="curve" smooth="yes"/>
      <point x="393" y="340"/>
      <point x="364" y="295"/>
      <point x="252" y="256" type="curve"/>
      <point x="330" y="0" type="line"/>
      <point x="542" y="0" type="line"/>
      <point x="456" y="238" type="line"/>
      <point x="546" y="280"/>
      <point x="589" y="341"/>
      <point x="589" y="423" type="curve" smooth="yes"/>
      <point x="589" y="501"/>
      <point x="533" y="554"/>
      <point x="437" y="554" type="curve" smooth="yes"/>
      <point x="374" y="554"/>
      <point x="319" y="533"/>
      <point x="264" y="478" type="curve"/>
      <point x="272" y="533" type="line"/>
    </contour>
    <component base="hookaboveHELPER" xOffset="7"/>
  </outline>
</glyph>
<glyph name="uni019B" format="1">
  <advance width="540"/>
  <unicode hex="019B"/>
  <outline>
    <contour>
      <point x="275" y="555" type="line"/>
      <point x="384" y="627" type="line"/>
      <point x="458" y="676" type="line"/>
      <point x="400" y="767" type="line"/>
      <point x="292" y="693" type="line"/>
      <point x="197" y="630" type="line"/>
      <point x="116" y="574" type="line"/>
      <point x="205" y="509" type="line"/>
    </contour>
    <contour>
      <point x="109" y="641" type="line"/>
      <point x="228" y="634"/>
      <point x="264" y="591"/>
      <point x="271" y="470" type="curve"/>
      <point x="186" y="485" type="line"/>
      <point x="-34" y="27" type="line"/>
      <point x="156" y="-20" type="line"/>
      <point x="271" y="341" type="line"/>
      <point x="270" y="156"/>
      <point x="285" y="86"/>
      <point x="331" y="-19" type="curve"/>
      <point x="528" y="39" type="line"/>
      <point x="473" y="141"/>
      <point x="454" y="228"/>
      <point x="436" y="428" type="curve" smooth="yes"/>
      <point x="412" y="690"/>
      <point x="324" y="740"/>
      <point x="145" y="764" type="curve"/>
    </contour>
  </outline>
</glyph>
<glyph name="uni019C" format="1">
  <advance width="888"/>
  <unicode hex="019C"/>
  <outline>
    <contour>
      <point x="225" y="-20"/>
      <point x="283" y="6"/>
      <point x="336" y="69" type="curve"/>
      <point x="329" y="183" type="line"/>
      <point x="302" y="147"/>
      <point x="278" y="129"/>
      <point x="252" y="129" type="curve" smooth="yes"/>
      <point x="230" y="129"/>
      <point x="219" y="148"/>
      <point x="223" y="180" type="curve" smooth="yes"/>
      <point x="295" y="696" type="line"/>
      <point x="93" y="696" type="line"/>
      <point x="20" y="171" type="line" smooth="yes"/>
      <point x="4" y="59"/>
      <point x="55" y="-20"/>
      <point x="159" y="-20" type="curve" smooth="yes"/>
    </contour>
    <contour>
      <point x="529" y="-20"/>
      <point x="578" y="6"/>
      <point x="639" y="79" type="curve"/>
      <point x="634" y="183" type="line"/>
      <point x="607" y="147"/>
      <point x="583" y="129"/>
      <point x="557" y="129" type="curve" smooth="yes"/>
      <point x="535" y="129"/>
      <point x="524" y="148"/>
      <point x="528" y="180" type="curve" smooth="yes"/>
      <point x="600" y="696" type="line"/>
      <point x="398" y="696" type="line"/>
      <point x="325" y="171" type="line" smooth="yes"/>
      <point x="309" y="59"/>
      <point x="360" y="-20"/>
      <point x="464" y="-20" type="curve" smooth="yes"/>
    </contour>
    <contour>
      <point x="808" y="0" type="line"/>
      <point x="905" y="696" type="line"/>
      <point x="703" y="696" type="line"/>
      <point x="620" y="99" type="line"/>
      <point x="630" y="0" type="line"/>
    </contour>
  </outline>
</glyph>
<glyph name="uni019D" format="1">
  <advance width="639"/>
  <unicode hex="019D"/>
  <outline>
    <contour>
      <point x="79" y="-227"/>
      <point x="157" y="-159"/>
      <point x="179" y="-19" type="curve" smooth="yes"/>
      <point x="182" y="0" type="line"/>
      <point x="6" y="0" type="line"/>
      <point x="2" y="-28" type="line" smooth="yes"/>
      <point x="-4" y="-71"/>
      <point x="-25" y="-89"/>
      <point x="-57" y="-89" type="curve" smooth="yes"/>
      <point x="-83" y="-89"/>
      <point x="-98" y="-82"/>
      <point x="-119" y="-70" type="curve"/>
      <point x="-198" y="-181" type="line"/>
      <point x="-166" y="-207"/>
      <point x="-120" y="-227"/>
      <point x="-48" y="-227" type="curve" smooth="yes"/>
    </contour>
    <component base="N"/>
  </outline>
</glyph>
<glyph name="uni019E" format="1">
  <advance width="559"/>
  <unicode hex="019E"/>
  <outline>
    <contour>
      <point x="361" y="554"/>
      <point x="290" y="511"/>
      <point x="248" y="446" type="curve"/>
      <point x="247" y="534" type="line"/>
      <point x="78" y="534" type="line"/>
      <point x="4" y="0" type="line"/>
      <point x="198" y="0" type="line"/>
      <point x="238" y="278" type="line"/>
      <point x="273" y="353"/>
      <point x="305" y="393"/>
      <point x="328" y="393" type="curve" smooth="yes"/>
      <point x="342" y="393"/>
      <point x="351" y="383"/>
      <point x="345" y="341" type="curve" smooth="yes"/>
      <point x="258" y="-228" type="line"/>
      <point x="456" y="-207" type="line"/>
      <point x="542" y="393" type="line" smooth="yes"/>
      <point x="557" y="495"/>
      <point x="510" y="554"/>
      <point x="425" y="554" type="curve" smooth="yes"/>
    </contour>
  </outline>
</glyph>
<glyph name="uni01A2" format="1">
  <advance width="962"/>
  <unicode hex="01A2"/>
  <outline>
    <contour>
      <point x="688" y="716"/>
      <point x="619" y="697"/>
      <point x="562" y="652" type="curve"/>
      <point x="643" y="558" type="line"/>
      <point x="668" y="570"/>
      <point x="684" y="576"/>
      <point x="712" y="576" type="curve" smooth="yes"/>
      <point x="749" y="576"/>
      <point x="758" y="551"/>
      <point x="753" y="514" type="curve" smooth="yes"/>
      <point x="650" y="-215" type="line"/>
      <point x="852" y="-215" type="line"/>
      <point x="953" y="504" type="line" smooth="yes"/>
      <point x="973" y="645"/>
      <point x="895" y="716"/>
      <point x="758" y="716" type="curve" smooth="yes"/>
    </contour>
    <contour>
      <point x="112" y="716"/>
      <point x="25" y="458"/>
      <point x="25" y="268" type="curve" smooth="yes"/>
      <point x="25" y="89"/>
      <point x="121" y="-20"/>
      <point x="301" y="-20" type="curve"/>
      <point x="591" y="-20"/>
      <point x="676" y="241"/>
      <point x="676" y="429" type="curve" smooth="yes"/>
      <point x="676" y="609"/>
      <point x="570" y="716"/>
      <point x="400" y="716" type="curve"/>
    </contour>
    <contour>
      <point x="441" y="570"/>
      <point x="468" y="536"/>
      <point x="468" y="447" type="curve" smooth="yes"/>
      <point x="468" y="346"/>
      <point x="446" y="126"/>
      <point x="317" y="126" type="curve" smooth="yes"/>
      <point x="260" y="126"/>
      <point x="233" y="161"/>
      <point x="233" y="251" type="curve" smooth="yes"/>
      <point x="233" y="348"/>
      <point x="255" y="570"/>
      <point x="384" y="570" type="curve"/>
    </contour>
  </outline>
</glyph>
<glyph name="uni01A3" format="1">
  <advance width="828"/>
  <unicode hex="01A3"/>
  <outline>
    <contour>
      <point x="726" y="-207" type="line"/>
      <point x="803" y="342" type="line" smooth="yes"/>
      <point x="822" y="475"/>
      <point x="753" y="554"/>
      <point x="620" y="554" type="curve" smooth="yes"/>
      <point x="540" y="554"/>
      <point x="489" y="536"/>
      <point x="420" y="490" type="curve"/>
      <point x="501" y="397" type="line"/>
      <point x="535" y="409"/>
      <point x="553" y="414"/>
      <point x="573" y="414" type="curve" smooth="yes"/>
      <point x="603" y="414"/>
      <point x="616" y="400"/>
      <point x="611" y="362" type="curve" smooth="yes"/>
      <point x="530" y="-227" type="line"/>
    </contour>
    <contour>
      <point x="89" y="554"/>
      <point x="13" y="370"/>
      <point x="13" y="211" type="curve" smooth="yes"/>
      <point x="13" y="66"/>
      <point x="100" y="-20"/>
      <point x="247" y="-20" type="curve"/>
      <point x="481" y="-20"/>
      <point x="557" y="165"/>
      <point x="558" y="323" type="curve" smooth="yes"/>
      <point x="559" y="465"/>
      <point x="458" y="554"/>
      <point x="323" y="554" type="curve"/>
    </contour>
    <contour>
      <point x="344" y="412"/>
      <point x="361" y="390"/>
      <point x="360" y="333" type="curve" smooth="yes"/>
      <point x="359" y="264"/>
      <point x="348" y="122"/>
      <point x="263" y="122" type="curve" smooth="yes"/>
      <point x="227" y="122"/>
      <point x="211" y="144"/>
      <point x="211" y="201" type="curve" smooth="yes"/>
      <point x="211" y="270"/>
      <point x="222" y="412"/>
      <point x="307" y="412" type="curve"/>
    </contour>
  </outline>
</glyph>
<glyph name="uni01A5" format="1">
  <advance width="589"/>
  <unicode hex="01A5"/>
  <outline>
    <contour>
      <point x="167" y="-207" type="line"/>
      <point x="197" y="-6" type="line"/>
      <point x="212" y="-12"/>
      <point x="240" y="-20"/>
      <point x="290" y="-20" type="curve" smooth="yes"/>
      <point x="504" y="-20"/>
      <point x="573" y="191"/>
      <point x="573" y="347" type="curve" smooth="yes"/>
      <point x="573" y="478"/>
      <point x="520" y="554"/>
      <point x="407" y="554" type="curve" smooth="yes"/>
      <point x="363" y="554"/>
      <point x="306" y="534"/>
      <point x="268" y="491" type="curve"/>
      <point x="272" y="533" type="line"/>
      <point x="78" y="533" type="line"/>
      <point x="-27" y="-227" type="line"/>
    </contour>
    <contour>
      <point x="247" y="121"/>
      <point x="230" y="126"/>
      <point x="217" y="131" type="curve"/>
      <point x="249" y="360" type="line"/>
      <point x="274" y="396"/>
      <point x="301" y="412"/>
      <point x="328" y="412" type="curve" smooth="yes"/>
      <point x="353" y="412"/>
      <point x="374" y="400"/>
      <point x="374" y="338" type="curve" smooth="yes"/>
      <point x="374" y="249"/>
      <point x="347" y="121"/>
      <point x="268" y="121" type="curve" smooth="yes"/>
    </contour>
    <component base="hookaboveHELPER" xOffset="7"/>
  </outline>
</glyph>
<glyph name="yr" format="1">
  <advance width="612"/>
  <unicode hex="01A6"/>
  <outline>
    <contour>
      <point x="208" y="0" type="line"/>
      <point x="305" y="696" type="line"/>
      <point x="103" y="696" type="line"/>
      <point x="6" y="0" type="line"/>
    </contour>
    <contour>
      <point x="377" y="137" type="line"/>
      <point x="571" y="212"/>
      <point x="603" y="297"/>
      <point x="603" y="405" type="curve" smooth="yes"/>
      <point x="603" y="528"/>
      <point x="513" y="586"/>
      <point x="339" y="586" type="curve" smooth="yes"/>
      <point x="279" y="586" type="line"/>
      <point x="260" y="445" type="line"/>
      <point x="314" y="445" type="line" smooth="yes"/>
      <point x="367" y="445"/>
      <point x="395" y="424"/>
      <point x="395" y="383" type="curve" smooth="yes"/>
      <point x="395" y="339"/>
      <point x="377" y="276"/>
      <point x="299" y="276" type="curve" smooth="yes"/>
      <point x="230" y="276" type="line"/>
      <point x="211" y="138" type="line"/>
    </contour>
    <contour>
      <point x="580" y="-110" type="line"/>
      <point x="447" y="190" type="line"/>
      <point x="263" y="152" type="line"/>
      <point x="364" y="-110" type="line"/>
    </contour>
  </outline>
</glyph>
<glyph name="uni01A7" format="1">
  <advance width="566"/>
  <unicode hex="01A7"/>
  <outline>
    <contour>
      <point x="248" y="716"/>
      <point x="159" y="683"/>
      <point x="83" y="622" type="curve"/>
      <point x="159" y="513" type="line"/>
      <point x="209" y="550"/>
      <point x="259" y="570"/>
      <point x="319" y="570" type="curve" smooth="yes"/>
      <point x="358" y="570"/>
      <point x="379" y="555"/>
      <point x="380" y="527" type="curve" smooth="yes"/>
      <point x="379" y="487"/>
      <point x="348" y="466"/>
      <point x="236" y="433" type="curve" smooth="yes"/>
      <point x="94" y="387"/>
      <point x="4" y="321"/>
      <point x="4" y="178" type="curve" smooth="yes"/>
      <point x="4" y="60"/>
      <point x="96" y="-20"/>
      <point x="252" y="-20" type="curve" smooth="yes"/>
      <point x="381" y="-20"/>
      <point x="477" y="29"/>
      <point x="540" y="84" type="curve"/>
      <point x="454" y="197" type="line"/>
      <point x="401" y="157"/>
      <point x="343" y="131"/>
      <point x="283" y="131" type="curve" smooth="yes"/>
      <point x="230" y="131"/>
      <point x="212" y="156"/>
      <point x="212" y="186" type="curve" smooth="yes"/>
      <point x="212" y="226"/>
      <point x="244" y="259"/>
      <point x="338" y="286" type="curve" smooth="yes"/>
      <point x="487" y="332"/>
      <point x="587" y="396"/>
      <point x="587" y="534" type="curve" smooth="yes"/>
      <point x="587" y="646"/>
      <point x="496" y="716"/>
      <point x="356" y="716" type="curve" smooth="yes"/>
    </contour>
  </outline>
</glyph>
<glyph name="uni01A8" format="1">
  <advance width="481"/>
  <unicode hex="01A8"/>
  <outline>
    <component base="uni0433"/>
    <contour>
      <point x="278" y="534" type="move" name="top"/>
    </contour>
    <contour>
      <point x="203" y="0" type="move" name="bottom"/>
    </contour>
  </outline>
</glyph>
<glyph name="uni01AA" format="1">
  <advance width="482"/>
  <unicode hex="01AA"/>
  <outline>
    <contour>
      <point x="119" y="764"/>
      <point x="21" y="672"/>
      <point x="21" y="544" type="curve" smooth="yes"/>
      <point x="22" y="447"/>
      <point x="84" y="383"/>
      <point x="163" y="383" type="curve" smooth="yes"/>
      <point x="229" y="383"/>
      <point x="281" y="419"/>
      <point x="317" y="459" type="curve"/>
      <point x="288" y="533" type="line"/>
      <point x="264" y="522"/>
      <point x="244" y="515"/>
      <point x="222" y="515" type="curve" smooth="yes"/>
      <point x="197" y="515"/>
      <point x="184" y="526"/>
      <point x="184" y="553" type="curve" smooth="yes"/>
      <point x="183" y="589"/>
      <point x="195" y="632"/>
      <point x="234" y="632" type="curve" smooth="yes"/>
      <point x="259" y="632"/>
      <point x="265" y="618"/>
      <point x="259" y="577" type="curve" smooth="yes"/>
      <point x="179" y="0" type="line"/>
      <point x="373" y="0" type="line"/>
      <point x="448" y="534" type="line" smooth="yes"/>
      <point x="469" y="679"/>
      <point x="394" y="764"/>
      <point x="258" y="764" type="curve" smooth="yes"/>
    </contour>
    <component base="hookHELPERright" xOffset="193"/>
  </outline>
</glyph>
<glyph name="uni01AB" format="1">
  <advance width="389"/>
  <unicode hex="01AB"/>
  <outline>
    <contour>
      <point x="259" y="-226"/>
      <point x="344" y="-159"/>
      <point x="367" y="-16" type="curve" smooth="yes"/>
      <point x="373" y="22" type="line"/>
      <point x="202" y="1" type="line"/>
      <point x="197" y="-32" type="line" smooth="yes"/>
      <point x="191" y="-69"/>
      <point x="164" y="-86"/>
      <point x="128" y="-86" type="curve" smooth="yes"/>
      <point x="93" y="-86"/>
      <point x="71" y="-79"/>
      <point x="47" y="-67" type="curve"/>
      <point x="-30" y="-180" type="line"/>
      <point x="2" y="-206"/>
      <point x="56" y="-226"/>
      <point x="127" y="-226" type="curve" smooth="yes"/>
    </contour>
    <contour>
      <point x="137" y="649" type="line"/>
      <point x="88" y="474" type="line"/>
      <point x="49" y="198" type="line" smooth="yes"/>
      <point x="30" y="57"/>
      <point x="79" y="-19"/>
      <point x="211" y="-20" type="curve" smooth="yes"/>
      <point x="232" y="-20"/>
      <point x="257" y="-17"/>
      <point x="282" y="-12" type="curve"/>
      <point x="373" y="22" type="line"/>
      <point x="329" y="135" type="line"/>
      <point x="311" y="129"/>
      <point x="295" y="125"/>
      <point x="279" y="125" type="curve" smooth="yes"/>
      <point x="250" y="125"/>
      <point x="236" y="138"/>
      <point x="242" y="183" type="curve" smooth="yes"/>
      <point x="309" y="669" type="line"/>
    </contour>
    <contour>
      <point x="33" y="534" type="line"/>
      <point x="15" y="400" type="line"/>
      <point x="370" y="400" type="line"/>
      <point x="408" y="534" type="line"/>
    </contour>
  </outline>
</glyph>
<glyph name="uni01AC" format="1">
  <advance width="608"/>
  <unicode hex="01AC"/>
  <outline>
    <contour>
      <point x="401" y="0" type="line"/>
      <point x="477" y="542" type="line"/>
      <point x="632" y="542" type="line"/>
      <point x="674" y="696" type="line"/>
      <point x="283" y="696" type="line"/>
      <point x="242" y="542" type="line"/>
      <point x="275" y="542" type="line"/>
      <point x="199" y="0" type="line"/>
    </contour>
    <contour>
      <point x="193" y="454" type="line"/>
      <point x="189" y="467"/>
      <point x="185" y="479"/>
      <point x="185" y="491" type="curve" smooth="yes"/>
      <point x="185" y="525"/>
      <point x="202" y="542"/>
      <point x="233" y="542" type="curve" smooth="yes"/>
      <point x="272" y="542" type="line"/>
      <point x="289" y="696" type="line"/>
      <point x="266" y="696" type="line" smooth="yes"/>
      <point x="137" y="696"/>
      <point x="37" y="633"/>
      <point x="37" y="507" type="curve" smooth="yes"/>
      <point x="37" y="468"/>
      <point x="46" y="433"/>
      <point x="58" y="404" type="curve"/>
    </contour>
  </outline>
</glyph>
<glyph name="uni01AD" format="1">
  <advance width="389"/>
  <unicode hex="01AD"/>
  <outline>
    <contour>
      <point x="290" y="533" type="line"/>
      <point x="297" y="577" type="line" smooth="yes"/>
      <point x="302" y="614"/>
      <point x="318" y="632"/>
      <point x="346" y="632" type="curve" smooth="yes"/>
      <point x="364" y="632"/>
      <point x="382" y="627"/>
      <point x="402" y="616" type="curve"/>
      <point x="468" y="726" type="line"/>
      <point x="437" y="746"/>
      <point x="392" y="764"/>
      <point x="330" y="764" type="curve" smooth="yes"/>
      <point x="194" y="764"/>
      <point x="116" y="676"/>
      <point x="100" y="566" type="curve" smooth="yes"/>
      <point x="96" y="533" type="line"/>
    </contour>
    <contour>
      <point x="96" y="533" type="line"/>
      <point x="88" y="474" type="line"/>
      <point x="49" y="198" type="line" smooth="yes"/>
      <point x="30" y="57"/>
      <point x="79" y="-19"/>
      <point x="211" y="-20" type="curve" smooth="yes"/>
      <point x="259" y="-20"/>
      <point x="325" y="-6"/>
      <point x="373" y="22" type="curve"/>
      <point x="325" y="149" type="line"/>
      <point x="307" y="139"/>
      <point x="289" y="135"/>
      <point x="273" y="135" type="curve" smooth="yes"/>
      <point x="250" y="135"/>
      <point x="237" y="148"/>
      <point x="244" y="198" type="curve" smooth="yes"/>
      <point x="290" y="533" type="line"/>
    </contour>
    <contour>
      <point x="33" y="534" type="line"/>
      <point x="15" y="400" type="line"/>
      <point x="370" y="400" type="line"/>
      <point x="408" y="534" type="line"/>
    </contour>
  </outline>
</glyph>
<glyph name="uni01B1" format="1">
  <advance width="679"/>
  <unicode hex="01B1"/>
  <outline>
    <contour>
      <point x="521" y="-20"/>
      <point x="666" y="134"/>
      <point x="666" y="351" type="curve" smooth="yes"/>
      <point x="666" y="444"/>
      <point x="627" y="509"/>
      <point x="566" y="553" type="curve"/>
      <point x="677" y="554" type="line"/>
      <point x="697" y="696" type="line"/>
      <point x="446" y="696" type="line"/>
      <point x="428" y="565" type="line"/>
      <point x="449" y="523"/>
      <point x="462" y="480"/>
      <point x="462" y="393" type="curve" smooth="yes"/>
      <point x="462" y="273"/>
      <point x="432" y="126"/>
      <point x="317" y="126" type="curve" smooth="yes"/>
      <point x="257" y="126"/>
      <point x="230" y="165"/>
      <point x="230" y="246" type="curve" smooth="yes"/>
      <point x="230" y="346"/>
      <point x="264" y="471"/>
      <point x="334" y="563" type="curve"/>
      <point x="352" y="696" type="line"/>
      <point x="101" y="696" type="line"/>
      <point x="81" y="554" type="line"/>
      <point x="196" y="555" type="line"/>
      <point x="79" y="489"/>
      <point x="20" y="377"/>
      <point x="20" y="246" type="curve" smooth="yes"/>
      <point x="20" y="97"/>
      <point x="119" y="-20"/>
      <point x="301" y="-20" type="curve" smooth="yes"/>
    </contour>
  </outline>
</glyph>
<glyph name="uni01B2" format="1">
  <advance width="625"/>
  <unicode hex="01B2"/>
  <outline>
    <contour>
      <point x="449" y="716"/>
      <point x="416" y="710"/>
      <point x="385" y="699" type="curve"/>
      <point x="396" y="568" type="line"/>
      <point x="404" y="570"/>
      <point x="409" y="571"/>
      <point x="417" y="571" type="curve" smooth="yes"/>
      <point x="432" y="571"/>
      <point x="438" y="562"/>
      <point x="435" y="539" type="curve" smooth="yes"/>
      <point x="399" y="280" type="line" smooth="yes"/>
      <point x="383" y="166"/>
      <point x="334" y="128"/>
      <point x="280" y="128" type="curve" smooth="yes"/>
      <point x="237" y="128"/>
      <point x="221" y="157"/>
      <point x="229" y="213" type="curve" smooth="yes"/>
      <point x="296" y="696" type="line"/>
      <point x="94" y="696" type="line"/>
      <point x="26" y="217" type="line" smooth="yes"/>
      <point x="7" y="80"/>
      <point x="95" y="-20"/>
      <point x="257" y="-20" type="curve" smooth="yes"/>
      <point x="449" y="-20"/>
      <point x="575" y="86"/>
      <point x="603" y="285" type="curve" smooth="yes"/>
      <point x="634" y="516" type="line" smooth="yes"/>
      <point x="654" y="658"/>
      <point x="600" y="716"/>
      <point x="486" y="716" type="curve" smooth="yes"/>
    </contour>
    <contour>
      <point x="363" y="696" type="move" name="top"/>
    </contour>
    <contour>
      <point x="265" y="0" type="move" name="bottom"/>
    </contour>
  </outline>
</glyph>
<glyph name="uni01B3" format="1">
  <advance width="641"/>
  <unicode hex="01B3"/>
  <outline>
    <contour>
      <point x="325" y="412" type="line"/>
      <point x="262" y="696" type="line"/>
      <point x="45" y="696" type="line"/>
      <point x="202" y="256" type="line"/>
      <point x="166" y="0" type="line"/>
      <point x="368" y="0" type="line"/>
      <point x="404" y="257" type="line"/>
      <point x="561" y="525" type="line" smooth="yes"/>
      <point x="584" y="564"/>
      <point x="598" y="574"/>
      <point x="623" y="574" type="curve" smooth="yes"/>
      <point x="641" y="574"/>
      <point x="652" y="570"/>
      <point x="664" y="563" type="curve"/>
      <point x="729" y="680" type="line"/>
      <point x="698" y="700"/>
      <point x="662" y="716"/>
      <point x="602" y="716" type="curve" smooth="yes"/>
      <point x="497" y="716"/>
      <point x="445" y="672"/>
      <point x="393" y="558" type="curve" smooth="yes"/>
    </contour>
    <contour>
      <point x="371" y="696" type="move" name="top"/>
    </contour>
    <contour>
      <point x="283" y="0" type="move" name="bottom"/>
    </contour>
    <contour>
      <point x="46" y="696" type="move" name="topleft"/>
    </contour>
  </outline>
</glyph>
<glyph name="uni01B4" format="1">
  <advance width="535"/>
  <unicode hex="01B4"/>
  <outline>
    <contour>
      <point x="156" y="-223"/>
      <point x="292" y="-155"/>
      <point x="359" y="37" type="curve" smooth="yes"/>
      <point x="488" y="407" type="line" smooth="yes"/>
      <point x="499" y="439"/>
      <point x="515" y="447"/>
      <point x="533" y="447" type="curve" smooth="yes"/>
      <point x="543" y="447"/>
      <point x="551" y="445"/>
      <point x="557" y="443" type="curve"/>
      <point x="602" y="574" type="line"/>
      <point x="577" y="582"/>
      <point x="550" y="587"/>
      <point x="513" y="587" type="curve" smooth="yes"/>
      <point x="410" y="587"/>
      <point x="364" y="539"/>
      <point x="332" y="436" type="curve" smooth="yes"/>
      <point x="234" y="121" type="line"/>
      <point x="223" y="534" type="line"/>
      <point x="21" y="534" type="line"/>
      <point x="96" y="0" type="line"/>
      <point x="164" y="1" type="line"/>
      <point x="126" y="-59"/>
      <point x="80" y="-83"/>
      <point x="-22" y="-93" type="curve"/>
      <point x="-18" y="-228" type="line"/>
    </contour>
  </outline>
</glyph>
<glyph name="uni01B5" format="1">
  <advance width="545"/>
  <unicode hex="01B5"/>
  <outline>
    <contour>
      <point x="474" y="0" type="line"/>
      <point x="516" y="161" type="line"/>
      <point x="217" y="161" type="line"/>
      <point x="561" y="543" type="line"/>
      <point x="582" y="696" type="line"/>
      <point x="97" y="696" type="line"/>
      <point x="76" y="540" type="line"/>
      <point x="346" y="540" type="line"/>
      <point x="-8" y="151" type="line"/>
      <point x="-28" y="0" type="line"/>
    </contour>
    <component base="hyphen" xOffset="1" yOffset="97" xScale="1.3" yScale="0.8"/>
  </outline>
</glyph>
<glyph name="uni01B6" format="1">
  <advance width="462"/>
  <unicode hex="01B6"/>
  <outline>
    <contour>
      <point x="60" y="534" type="line"/>
      <point x="40" y="400" type="line"/>
      <point x="252" y="400" type="line"/>
      <point x="-16" y="128" type="line"/>
      <point x="-34" y="0" type="line"/>
      <point x="398" y="0" type="line"/>
      <point x="435" y="136" type="line"/>
      <point x="199" y="136" type="line"/>
      <point x="464" y="407" type="line"/>
      <point x="482" y="534" type="line"/>
    </contour>
    <component base="hyphen" xOffset="-14" yOffset="59" xScale="1.2" yScale="0.7"/>
  </outline>
</glyph>
<glyph name="uni01B7" format="1">
  <advance width="562"/>
  <unicode hex="01B7"/>
  <outline>
    <contour>
      <point x="399" y="-20"/>
      <point x="541" y="74"/>
      <point x="541" y="239" type="curve" smooth="yes"/>
      <point x="541" y="348"/>
      <point x="465" y="407"/>
      <point x="350" y="407" type="curve"/>
      <point x="325" y="407" type="line"/>
      <point x="136" y="296" type="line"/>
      <point x="241" y="296" type="line" smooth="yes"/>
      <point x="296" y="296"/>
      <point x="334" y="279"/>
      <point x="334" y="230" type="curve" smooth="yes"/>
      <point x="334" y="168"/>
      <point x="285" y="128"/>
      <point x="223" y="128" type="curve" smooth="yes"/>
      <point x="169" y="128"/>
      <point x="136" y="146"/>
      <point x="95" y="188" type="curve"/>
      <point x="-17" y="91" type="line"/>
      <point x="31" y="25"/>
      <point x="101" y="-20"/>
      <point x="225" y="-20" type="curve" smooth="yes"/>
    </contour>
    <contour>
      <point x="136" y="296" type="line"/>
      <point x="293" y="336" type="line"/>
      <point x="546" y="557" type="line"/>
      <point x="565" y="696" type="line"/>
      <point x="111" y="696" type="line"/>
      <point x="91" y="552" type="line"/>
      <point x="318" y="552" type="line"/>
      <point x="151" y="403" type="line"/>
    </contour>
  </outline>
</glyph>
<glyph name="uni01B8" format="1">
  <advance width="564"/>
  <unicode hex="01B8"/>
  <outline>
    <contour>
      <point x="382" y="-20"/>
      <point x="465" y="23"/>
      <point x="531" y="89" type="curve"/>
      <point x="444" y="190" type="line"/>
      <point x="392" y="148"/>
      <point x="347" y="128"/>
      <point x="289" y="128" type="curve" smooth="yes"/>
      <point x="244" y="128"/>
      <point x="215" y="152"/>
      <point x="215" y="194" type="curve" smooth="yes"/>
      <point x="215" y="259"/>
      <point x="261" y="296"/>
      <point x="331" y="296" type="curve" smooth="yes"/>
      <point x="434" y="296" type="line"/>
      <point x="275" y="407" type="line"/>
      <point x="255" y="407" type="line"/>
      <point x="118" y="407"/>
      <point x="5" y="320"/>
      <point x="5" y="186" type="curve" smooth="yes"/>
      <point x="5" y="63"/>
      <point x="95" y="-20"/>
      <point x="261" y="-20" type="curve" smooth="yes"/>
    </contour>
    <contour>
      <point x="314" y="552" type="line"/>
      <point x="550" y="552" type="line"/>
      <point x="570" y="696" type="line"/>
      <point x="117" y="696" type="line"/>
      <point x="98" y="557" type="line"/>
      <point x="300" y="336" type="line"/>
      <point x="434" y="296" type="line"/>
      <point x="449" y="400" type="line"/>
    </contour>
  </outline>
</glyph>
<glyph name="uni01B9" format="1">
  <advance width="517"/>
  <unicode hex="01B9"/>
  <outline>
    <contour>
      <point x="337" y="-227"/>
      <point x="421" y="-184"/>
      <point x="483" y="-118" type="curve"/>
      <point x="399" y="-19" type="line"/>
      <point x="344" y="-61"/>
      <point x="304" y="-79"/>
      <point x="253" y="-79" type="curve" smooth="yes"/>
      <point x="206" y="-79"/>
      <point x="172" y="-55"/>
      <point x="172" y="2" type="curve" smooth="yes"/>
      <point x="172" y="71"/>
      <point x="217" y="109"/>
      <point x="291" y="109" type="curve" smooth="yes"/>
      <point x="389" y="109" type="line"/>
      <point x="238" y="217" type="line"/>
      <point x="218" y="217" type="line"/>
      <point x="68" y="206"/>
      <point x="-29" y="118"/>
      <point x="-29" y="-15" type="curve" smooth="yes"/>
      <point x="-29" y="-137"/>
      <point x="59" y="-227"/>
      <point x="223" y="-227" type="curve" smooth="yes"/>
    </contour>
    <contour>
      <point x="273" y="390" type="line"/>
      <point x="510" y="390" type="line"/>
      <point x="530" y="534" type="line"/>
      <point x="84" y="534" type="line"/>
      <point x="66" y="402" type="line"/>
      <point x="266" y="149" type="line"/>
      <point x="390" y="109" type="line"/>
      <point x="404" y="211" type="line"/>
    </contour>
  </outline>
</glyph>
